MerriweatherSans-ExtraBold.ufo
<glyph name="exclam" format="2">
  <advance width="654"/>
  <unicode hex="0021"/>
  <outline>
    <contour>
      <point x="182" y="576" type="line"/>
      <point x="488" y="576" type="line"/>
      <point x="528" y="1738" type="line"/>
      <point x="130" y="1738" type="line"/>
    </contour>
    <contour>
      <point x="318" y="-22" type="curve" smooth="yes"/>
      <point x="442" y="-22"/>
      <point x="536" y="84"/>
      <point x="536" y="202" type="curve" smooth="yes"/>
      <point x="536" y="318"/>
      <point x="458" y="406"/>
      <point x="336" y="406" type="curve" smooth="yes"/>
      <point x="212" y="406"/>
      <point x="116" y="302"/>
      <point x="118" y="184" type="curve" smooth="yes"/>
      <point x="118" y="68"/>
      <point x="200" y="-22"/>
    </contour>
  </outline>
</glyph>
<glyph name="numbersign" format="2">
  <advance width="1554"/>
  <unicode hex="0023"/>
  <outline>
    <contour>
      <point x="284" y="0" type="line"/>
      <point x="576" y="0" type="line"/>
      <point x="708" y="1340" type="line"/>
      <point x="412" y="1340" type="line"/>
    </contour>
    <contour>
      <point x="838" y="0" type="line"/>
      <point x="1126" y="0" type="line"/>
      <point x="1256" y="1340" type="line"/>
      <point x="964" y="1340" type="line"/>
    </contour>
    <contour>
      <point x="1414" y="818" type="line"/>
      <point x="1414" y="1050" type="line"/>
      <point x="180" y="1050" type="line"/>
      <point x="180" y="818" type="line"/>
    </contour>
    <contour>
      <point x="1370" y="298" type="line"/>
      <point x="1370" y="540" type="line"/>
      <point x="140" y="540" type="line"/>
      <point x="140" y="298" type="line"/>
    </contour>
  </outline>
</glyph>
<glyph name="dollar" format="2">
  <advance width="1376"/>
  <unicode hex="0024"/>
  <outline>
    <contour>
      <point x="602" y="1420" type="line"/>
      <point x="800" y="1420" type="line"/>
      <point x="812" y="1722" type="line"/>
      <point x="614" y="1722" type="line"/>
    </contour>
    <contour>
      <point x="544" y="-220" type="line"/>
      <point x="744" y="-220" type="line"/>
      <point x="754" y="82" type="line"/>
      <point x="556" y="82" type="line"/>
    </contour>
    <component base="S" xOffset="84"/>
  </outline>
</glyph>
<glyph name="percent" format="2">
  <advance width="2234"/>
  <unicode hex="0025"/>
  <outline>
    <contour>
      <point x="508" y="576" type="curve" smooth="yes"/>
      <point x="742" y="576"/>
      <point x="956" y="742"/>
      <point x="956" y="1038" type="curve" smooth="yes"/>
      <point x="956" y="1292"/>
      <point x="832" y="1498"/>
      <point x="544" y="1496" type="curve" smooth="yes"/>
      <point x="310" y="1496"/>
      <point x="96" y="1330"/>
      <point x="96" y="1032" type="curve" smooth="yes"/>
      <point x="96" y="778"/>
      <point x="224" y="574"/>
    </contour>
    <contour>
      <point x="710" y="0" type="line"/>
      <point x="986" y="0" type="line"/>
      <point x="1530" y="1494" type="line"/>
      <point x="1252" y="1494" type="line"/>
    </contour>
    <contour>
      <point x="524" y="802" type="curve" smooth="yes"/>
      <point x="428" y="802"/>
      <point x="374" y="898"/>
      <point x="374" y="1042" type="curve" smooth="yes"/>
      <point x="374" y="1184"/>
      <point x="428" y="1270"/>
      <point x="528" y="1270" type="curve" smooth="yes"/>
      <point x="624" y="1270"/>
      <point x="678" y="1174"/>
      <point x="678" y="1030" type="curve" smooth="yes"/>
      <point x="678" y="888"/>
      <point x="624" y="802"/>
    </contour>
    <contour>
      <point x="1690" y="-4" type="curve" smooth="yes"/>
      <point x="1922" y="-2"/>
      <point x="2136" y="162"/>
      <point x="2136" y="460" type="curve" smooth="yes"/>
      <point x="2136" y="714"/>
      <point x="2012" y="918"/>
      <point x="1724" y="916" type="curve" smooth="yes"/>
      <point x="1492" y="916"/>
      <point x="1278" y="752"/>
      <point x="1278" y="454" type="curve" smooth="yes"/>
      <point x="1278" y="200"/>
      <point x="1406" y="-4"/>
    </contour>
    <contour>
      <point x="1706" y="224" type="curve" smooth="yes"/>
      <point x="1610" y="224"/>
      <point x="1554" y="320"/>
      <point x="1554" y="464" type="curve" smooth="yes"/>
      <point x="1554" y="606"/>
      <point x="1610" y="692"/>
      <point x="1708" y="692" type="curve" smooth="yes"/>
      <point x="1804" y="692"/>
      <point x="1858" y="596"/>
      <point x="1858" y="452" type="curve" smooth="yes"/>
      <point x="1858" y="310"/>
      <point x="1804" y="224"/>
    </contour>
  </outline>
</glyph>
<glyph name="ampersand" format="2">
  <advance width="1504"/>
  <unicode hex="0026"/>
  <outline>
    <contour>
      <point x="942" y="292" type="curve"/>
      <point x="874" y="252"/>
      <point x="806" y="226"/>
      <point x="682" y="226" type="curve" smooth="yes"/>
      <point x="474" y="226"/>
      <point x="394" y="304"/>
      <point x="394" y="418" type="curve" smooth="yes"/>
      <point x="394" y="518"/>
      <point x="472" y="588"/>
      <point x="604" y="642" type="curve"/>
      <point x="606" y="642"/>
      <point x="708" y="670"/>
      <point x="710" y="670" type="curve"/>
      <point x="918" y="762"/>
      <point x="1120" y="862"/>
      <point x="1120" y="1144" type="curve" smooth="yes"/>
      <point x="1120" y="1352"/>
      <point x="948" y="1510"/>
      <point x="682" y="1510" type="curve" smooth="yes"/>
      <point x="408" y="1510"/>
      <point x="232" y="1370"/>
      <point x="232" y="1126" type="curve" smooth="yes"/>
      <point x="232" y="950"/>
      <point x="328" y="812"/>
      <point x="424" y="686" type="curve"/>
      <point x="454" y="654" type="line"/>
      <point x="554" y="516"/>
      <point x="748" y="294"/>
      <point x="890" y="154" type="curve" smooth="yes"/>
      <point x="986" y="68"/>
      <point x="1116" y="-16"/>
      <point x="1308" y="-16" type="curve" smooth="yes"/>
      <point x="1374" y="-16"/>
      <point x="1426" y="-8"/>
      <point x="1460" y="0" type="curve"/>
      <point x="1460" y="200" type="line"/>
      <point x="1308" y="200"/>
      <point x="1238" y="250"/>
      <point x="1132" y="336" type="curve" smooth="yes"/>
      <point x="1024" y="434"/>
      <point x="846" y="656"/>
      <point x="778" y="752" type="curve"/>
      <point x="746" y="794" type="line"/>
      <point x="604" y="976"/>
      <point x="546" y="1028"/>
      <point x="546" y="1136" type="curve" smooth="yes"/>
      <point x="546" y="1218"/>
      <point x="598" y="1282"/>
      <point x="688" y="1282" type="curve" smooth="yes"/>
      <point x="794" y="1282"/>
      <point x="824" y="1200"/>
      <point x="824" y="1142" type="curve" smooth="yes"/>
      <point x="824" y="998"/>
      <point x="724" y="902"/>
      <point x="576" y="842" type="curve"/>
      <point x="574" y="842"/>
      <point x="492" y="824"/>
      <point x="490" y="824" type="curve"/>
      <point x="246" y="746"/>
      <point x="60" y="626"/>
      <point x="60" y="400" type="curve" smooth="yes"/>
      <point x="60" y="136"/>
      <point x="278" y="-16"/>
      <point x="724" y="-16" type="curve" smooth="yes"/>
      <point x="886" y="-16"/>
      <point x="1038" y="42"/>
      <point x="1138" y="98" type="curve"/>
      <point x="1142" y="98"/>
      <point x="1190" y="156"/>
      <point x="1192" y="158" type="curve"/>
      <point x="1314" y="240"/>
      <point x="1402" y="366"/>
      <point x="1402" y="588" type="curve" smooth="yes"/>
      <point x="1402" y="680"/>
      <point x="1394" y="724"/>
      <point x="1388" y="748" type="curve"/>
      <point x="1100" y="748" type="line"/>
      <point x="1104" y="720"/>
      <point x="1118" y="680"/>
      <point x="1118" y="588" type="curve" smooth="yes"/>
      <point x="1118" y="510"/>
      <point x="1082" y="386"/>
      <point x="998" y="348" type="curve"/>
      <point x="996" y="348"/>
      <point x="946" y="294"/>
    </contour>
  </outline>
</glyph>
<glyph name="quotesingle" format="2">
  <advance width="710"/>
  <unicode hex="0027"/>
  <outline>
    <contour>
      <point x="232" y="908" type="line"/>
      <point x="478" y="908" type="line"/>
      <point x="518" y="1664" type="line"/>
      <point x="192" y="1664" type="line"/>
    </contour>
  </outline>
</glyph>
<glyph name="asterisk" format="2">
  <advance width="1376"/>
  <unicode hex="002A"/>
  <outline>
    <contour>
      <point x="562" y="570" type="line"/>
      <point x="828" y="570" type="line"/>
      <point x="790" y="886" type="line"/>
      <point x="788" y="904"/>
      <point x="748" y="1030"/>
      <point x="746" y="1042" type="curve"/>
      <point x="866" y="924" type="line"/>
      <point x="1114" y="742" type="line"/>
      <point x="1248" y="986" type="line"/>
      <point x="962" y="1108" type="line"/>
      <point x="800" y="1146" type="line"/>
      <point x="960" y="1190" type="line"/>
      <point x="1240" y="1322" type="line"/>
      <point x="1116" y="1558" type="line"/>
      <point x="856" y="1370" type="line"/>
      <point x="842" y="1358"/>
      <point x="752" y="1256"/>
      <point x="744" y="1248" type="curve"/>
      <point x="786" y="1408" type="line"/>
      <point x="812" y="1716" type="line"/>
      <point x="546" y="1716" type="line"/>
      <point x="586" y="1404" type="line"/>
      <point x="588" y="1384"/>
      <point x="628" y="1258"/>
      <point x="630" y="1246" type="curve"/>
      <point x="516" y="1364" type="line"/>
      <point x="248" y="1548" type="line"/>
      <point x="128" y="1310" type="line"/>
      <point x="414" y="1182" type="line"/>
      <point x="432" y="1176"/>
      <point x="562" y="1150"/>
      <point x="574" y="1146" type="curve"/>
      <point x="416" y="1104" type="line"/>
      <point x="134" y="968" type="line"/>
      <point x="266" y="730" type="line"/>
      <point x="520" y="918" type="line"/>
      <point x="632" y="1042" type="line"/>
      <point x="590" y="884" type="line"/>
    </contour>
  </outline>
</glyph>
<glyph name="plus" format="2">
  <advance width="1368"/>
  <unicode hex="002B"/>
  <outline>
    <contour>
      <point x="546" y="242" type="line"/>
      <point x="820" y="242" type="line"/>
      <point x="820" y="430" type="line"/>
      <point x="814" y="630" type="line"/>
      <point x="966" y="626" type="line"/>
      <point x="1184" y="626" type="line"/>
      <point x="1184" y="890" type="line"/>
      <point x="966" y="890" type="line"/>
      <point x="814" y="884" type="line"/>
      <point x="820" y="1084" type="line"/>
      <point x="820" y="1278" type="line"/>
      <point x="546" y="1278" type="line"/>
      <point x="546" y="1084" type="line"/>
      <point x="552" y="884" type="line"/>
      <point x="396" y="890" type="line"/>
      <point x="184" y="890" type="line"/>
      <point x="184" y="626" type="line"/>
      <point x="396" y="626" type="line"/>
      <point x="552" y="630" type="line"/>
      <point x="546" y="430" type="line"/>
    </contour>
  </outline>
</glyph>
<glyph name="comma" format="2">
  <advance width="684"/>
  <unicode hex="002C"/>
  <outline>
    <contour>
      <point x="170" y="-398" type="line"/>
      <point x="298" y="-500" type="line"/>
      <point x="448" y="-444"/>
      <point x="568" y="-232"/>
      <point x="568" y="-10" type="curve" smooth="yes"/>
      <point x="568" y="104"/>
      <point x="516" y="268"/>
      <point x="404" y="310" type="curve"/>
      <point x="148" y="178" type="line"/>
      <point x="148" y="74" type="line"/>
      <point x="192" y="66"/>
      <point x="250" y="-30"/>
      <point x="250" y="-118" type="curve" smooth="yes"/>
      <point x="250" y="-246"/>
      <point x="208" y="-344"/>
      <point x="170" y="-374" type="curve"/>
    </contour>
  </outline>
</glyph>
<glyph name="slash" format="2">
  <advance width="970"/>
  <unicode hex="002F"/>
  <outline>
    <contour>
      <point x="72" y="-354" type="line"/>
      <point x="356" y="-354" type="line"/>
      <point x="898" y="1562" type="line"/>
      <point x="614" y="1562" type="line"/>
    </contour>
  </outline>
</glyph>
<glyph name="two" format="2">
  <advance width="1218"/>
  <unicode hex="0032"/>
  <outline>
    <contour>
      <point x="114" y="0" type="line" name="hr01"/>
      <point x="1146" y="0" type="line"/>
      <point x="1146" y="288" type="line" name="hr02"/>
      <point x="524" y="248" type="line" name="hr03"/>
      <point x="850" y="466"/>
      <point x="1094" y="726"/>
      <point x="1094" y="1028" type="curve" smooth="yes"/>
      <point x="1094" y="1274"/>
      <point x="966" y="1500"/>
      <point x="598" y="1500" type="curve" smooth="yes"/>
      <point x="318" y="1500"/>
      <point x="154" y="1382"/>
      <point x="74" y="1300" type="curve"/>
      <point x="188" y="1104" type="line"/>
      <point x="256" y="1170"/>
      <point x="388" y="1214"/>
      <point x="514" y="1214" type="curve" smooth="yes"/>
      <point x="644" y="1214"/>
      <point x="724" y="1138"/>
      <point x="724" y="990" type="curve" smooth="yes"/>
      <point x="724" y="642"/>
      <point x="304" y="292"/>
      <point x="66" y="152" type="curve"/>
    </contour>
  </outline>
</glyph>
<glyph name="four" format="2">
  <advance width="1422"/>
  <unicode hex="0034"/>
  <outline>
    <contour>
      <point x="148" y="296" type="line"/>
      <point x="1352" y="296" type="line"/>
      <point x="1352" y="552" type="line"/>
      <point x="444" y="552" type="line"/>
      <point x="554" y="730" type="line"/>
      <point x="690" y="982"/>
      <point x="776" y="1114"/>
      <point x="912" y="1366" type="curve"/>
      <point x="668" y="1500" type="line"/>
      <point x="554" y="1500" type="line"/>
      <point x="374" y="1106"/>
      <point x="244" y="818"/>
      <point x="64" y="424" type="curve"/>
    </contour>
    <contour>
      <point x="794" y="0" type="line"/>
      <point x="1136" y="0" type="line"/>
      <point x="1136" y="930" type="line"/>
      <point x="830" y="930" type="line"/>
      <point x="794" y="552" type="line"/>
    </contour>
  </outline>
</glyph>
<glyph name="six" format="2">
  <advance width="1422"/>
  <unicode hex="0036"/>
  <outline>
    <contour>
      <point x="116" y="608" type="curve" smooth="yes"/>
      <point x="116" y="246"/>
      <point x="360" y="-16"/>
      <point x="698" y="-16" type="curve" smooth="yes"/>
      <point x="1110" y="-16"/>
      <point x="1306" y="246"/>
      <point x="1306" y="554" type="curve" smooth="yes"/>
      <point x="1306" y="824"/>
      <point x="1134" y="1014"/>
      <point x="888" y="1014" type="curve" smooth="yes"/>
      <point x="720" y="1014"/>
      <point x="610" y="940"/>
      <point x="580" y="900" type="curve"/>
      <point x="646" y="712" type="line"/>
      <point x="674" y="724"/>
      <point x="708" y="744"/>
      <point x="776" y="744" type="curve" smooth="yes"/>
      <point x="868" y="744"/>
      <point x="948" y="676"/>
      <point x="948" y="486" type="curve" smooth="yes"/>
      <point x="948" y="326"/>
      <point x="874" y="232"/>
      <point x="730" y="232" type="curve" smooth="yes"/>
      <point x="562" y="232"/>
      <point x="498" y="414"/>
      <point x="500" y="672" type="curve" smooth="yes"/>
      <point x="502" y="966"/>
      <point x="698" y="1308"/>
      <point x="1070" y="1400" type="curve"/>
      <point x="988" y="1614" type="line"/>
      <point x="632" y="1570"/>
      <point x="116" y="1202"/>
    </contour>
  </outline>
</glyph>
<glyph name="nine" format="2">
  <advance width="1420"/>
  <unicode hex="0039"/>
  <outline>
    <contour>
      <point x="120" y="948" type="curve" smooth="yes"/>
      <point x="120" y="674"/>
      <point x="292" y="468"/>
      <point x="540" y="468" type="curve" smooth="yes"/>
      <point x="712" y="468"/>
      <point x="820" y="534"/>
      <point x="848" y="572" type="curve"/>
      <point x="784" y="760" type="line"/>
      <point x="754" y="750"/>
      <point x="728" y="736"/>
      <point x="656" y="736" type="curve" smooth="yes"/>
      <point x="556" y="736"/>
      <point x="478" y="818"/>
      <point x="478" y="1016" type="curve" smooth="yes"/>
      <point x="478" y="1168"/>
      <point x="556" y="1258"/>
      <point x="694" y="1258" type="curve" smooth="yes"/>
      <point x="860" y="1258"/>
      <point x="928" y="1078"/>
      <point x="926" y="810" type="curve" smooth="yes"/>
      <point x="924" y="522"/>
      <point x="716" y="160"/>
      <point x="334" y="66" type="curve"/>
      <point x="420" y="-140" type="line"/>
      <point x="776" y="-96"/>
      <point x="1308" y="280"/>
      <point x="1308" y="884" type="curve"/>
      <point x="1308" y="1252"/>
      <point x="1078" y="1506"/>
      <point x="736" y="1506" type="curve" smooth="yes"/>
      <point x="330" y="1506"/>
      <point x="120" y="1266"/>
    </contour>
  </outline>
</glyph>
<glyph name="less" format="2">
  <advance width="1344"/>
  <unicode hex="003C"/>
  <outline>
    <contour>
      <point x="206" y="682" type="line"/>
      <point x="1128" y="208" type="line"/>
      <point x="1128" y="534" type="line"/>
      <point x="586" y="774" type="line"/>
      <point x="586" y="736" type="line"/>
      <point x="1128" y="1008" type="line"/>
      <point x="1128" y="1324" type="line"/>
      <point x="206" y="834" type="line"/>
    </contour>
  </outline>
</glyph>
<glyph name="question" format="2">
  <advance width="1108"/>
  <unicode hex="003F"/>
  <outline>
    <contour>
      <point x="322" y="522" type="curve"/>
      <point x="598" y="522" type="line"/>
      <point x="580" y="596"/>
      <point x="560" y="650"/>
      <point x="564" y="708" type="curve" smooth="yes"/>
      <point x="576" y="1012"/>
      <point x="988" y="994"/>
      <point x="988" y="1384" type="curve" smooth="yes"/>
      <point x="992" y="1636"/>
      <point x="808" y="1802"/>
      <point x="424" y="1802" type="curve" smooth="yes"/>
      <point x="300" y="1802"/>
      <point x="152" y="1774"/>
      <point x="104" y="1742" type="curve"/>
      <point x="104" y="1480" type="line"/>
      <point x="146" y="1498"/>
      <point x="226" y="1528"/>
      <point x="334" y="1528" type="curve" smooth="yes"/>
      <point x="530" y="1528"/>
      <point x="600" y="1458"/>
      <point x="600" y="1346" type="curve" smooth="yes"/>
      <point x="600" y="1104"/>
      <point x="248" y="1076"/>
      <point x="250" y="768" type="curve" smooth="yes"/>
      <point x="250" y="646"/>
      <point x="290" y="576"/>
    </contour>
    <contour>
      <point x="472" y="-22" type="curve" smooth="yes"/>
      <point x="590" y="-22"/>
      <point x="682" y="78"/>
      <point x="682" y="190" type="curve" smooth="yes"/>
      <point x="682" y="302"/>
      <point x="606" y="384"/>
      <point x="490" y="384" type="curve" smooth="yes"/>
      <point x="372" y="384"/>
      <point x="276" y="286"/>
      <point x="278" y="174" type="curve" smooth="yes"/>
      <point x="278" y="62"/>
      <point x="358" y="-22"/>
    </contour>
  </outline>
</glyph>
<glyph name="at" format="2">
  <advance width="2192"/>
  <unicode hex="0040"/>
  <outline>
    <contour>
      <point x="1016" y="-450" type="curve" smooth="yes"/>
      <point x="1294" y="-450"/>
      <point x="1448" y="-376"/>
      <point x="1542" y="-312" type="curve"/>
      <point x="1498" y="-150" type="line"/>
      <point x="1414" y="-196"/>
      <point x="1294" y="-264"/>
      <point x="1036" y="-264" type="curve" smooth="yes"/>
      <point x="710" y="-264"/>
      <point x="360" y="-104"/>
      <point x="360" y="416" type="curve" smooth="yes"/>
      <point x="360" y="992"/>
      <point x="772" y="1320"/>
      <point x="1220" y="1320" type="curve" smooth="yes"/>
      <point x="1506" y="1320"/>
      <point x="1826" y="1196"/>
      <point x="1826" y="752" type="curve" smooth="yes"/>
      <point x="1826" y="396"/>
      <point x="1656" y="202"/>
      <point x="1514" y="202" type="curve" smooth="yes"/>
      <point x="1462" y="202"/>
      <point x="1446" y="258"/>
      <point x="1478" y="412" type="curve" smooth="yes"/>
      <point x="1518" y="592"/>
      <point x="1574" y="890"/>
      <point x="1604" y="1032" type="curve"/>
      <point x="1412" y="1000" type="line"/>
      <point x="1356" y="1036"/>
      <point x="1264" y="1054"/>
      <point x="1188" y="1054" type="curve" smooth="yes"/>
      <point x="772" y="1054"/>
      <point x="596" y="700"/>
      <point x="590" y="432" type="curve" smooth="yes"/>
      <point x="584" y="140"/>
      <point x="740" y="-4"/>
      <point x="884" y="-4" type="curve" smooth="yes"/>
      <point x="1148" y="-4"/>
      <point x="1288" y="312"/>
      <point x="1360" y="520" type="curve"/>
      <point x="1358" y="520"/>
      <point x="1288" y="520"/>
      <point x="1284" y="520" type="curve"/>
      <point x="1236" y="336"/>
      <point x="1230" y="240"/>
      <point x="1234" y="178" type="curve" smooth="yes"/>
      <point x="1242" y="44"/>
      <point x="1310" y="-4"/>
      <point x="1442" y="-4" type="curve" smooth="yes"/>
      <point x="1730" y="-4"/>
      <point x="2042" y="242"/>
      <point x="2042" y="778" type="curve" smooth="yes"/>
      <point x="2042" y="1250"/>
      <point x="1690" y="1506"/>
      <point x="1226" y="1506" type="curve" smooth="yes"/>
      <point x="638" y="1506"/>
      <point x="140" y="1072"/>
      <point x="140" y="418" type="curve" smooth="yes"/>
      <point x="140" y="-188"/>
      <point x="544" y="-450"/>
    </contour>
    <contour>
      <point x="960" y="248" type="curve" smooth="yes"/>
      <point x="904" y="248"/>
      <point x="864" y="314"/>
      <point x="866" y="450" type="curve" smooth="yes"/>
      <point x="868" y="648"/>
      <point x="994" y="840"/>
      <point x="1152" y="840" type="curve" smooth="yes"/>
      <point x="1216" y="840"/>
      <point x="1266" y="822"/>
      <point x="1290" y="794" type="curve"/>
      <point x="1262" y="570"/>
      <point x="1090" y="248"/>
    </contour>
  </outline>
</glyph>
<glyph name="A" format="2">
  <advance width="1426"/>
  <unicode hex="0041"/>
  <anchor x="714" y="0" name="bottom"/>
  <anchor x="676" y="-166" name="btm"/>
  <anchor x="1347" y="0" name="ogonek"/>
  <anchor x="714" y="1660" name="top"/>
  <outline>
    <contour>
      <point x="372" y="0" type="line"/>
      <point x="654" y="1002" type="line"/>
      <point x="704" y="1196" type="line"/>
      <point x="752" y="1002" type="line"/>
      <point x="1050" y="0" type="line"/>
      <point x="1444" y="0" type="line"/>
      <point x="922" y="1496" type="line"/>
      <point x="500" y="1496" type="line"/>
      <point x="-18" y="0" type="line"/>
    </contour>
    <contour>
      <point x="306" y="278" type="line"/>
      <point x="1070" y="278" type="line"/>
      <point x="1030" y="538" type="line"/>
      <point x="348" y="538" type="line"/>
    </contour>
  </outline>
</glyph>
<glyph name="C" format="2">
  <advance width="1288"/>
  <unicode hex="0043"/>
  <anchor x="772" y="0" name="bottom"/>
  <anchor x="772" y="-166" name="btm"/>
  <anchor x="820" y="1660" name="top"/>
  <outline>
    <contour>
      <point x="84" y="740" type="curve" smooth="yes"/>
      <point x="84" y="280"/>
      <point x="356" y="-16"/>
      <point x="848" y="-16" type="curve" smooth="yes"/>
      <point x="1022" y="-16"/>
      <point x="1136" y="30"/>
      <point x="1212" y="62" type="curve"/>
      <point x="1212" y="368" type="line"/>
      <point x="1162" y="326"/>
      <point x="1016" y="272"/>
      <point x="890" y="272" type="curve" smooth="yes"/>
      <point x="612" y="272"/>
      <point x="468" y="468"/>
      <point x="468" y="762" type="curve" smooth="yes"/>
      <point x="468" y="1050"/>
      <point x="646" y="1208"/>
      <point x="874" y="1208" type="curve" smooth="yes"/>
      <point x="1052" y="1208"/>
      <point x="1142" y="1150"/>
      <point x="1184" y="1122" type="curve"/>
      <point x="1232" y="1442" type="line"/>
      <point x="1142" y="1460"/>
      <point x="1050" y="1502"/>
      <point x="844" y="1502" type="curve" smooth="yes"/>
      <point x="418" y="1502"/>
      <point x="84" y="1244"/>
    </contour>
  </outline>
</glyph>
<glyph name="D" format="2">
  <advance width="1516"/>
  <unicode hex="0044"/>
  <anchor x="754" y="0" name="bottom"/>
  <anchor x="704" y="-166" name="btm"/>
  <anchor x="754" y="744" name="center"/>
  <anchor x="750" y="1660" name="top"/>
  <outline>
    <contour>
      <point x="160" y="0" type="line"/>
      <point x="204" y="0"/>
      <point x="248" y="0"/>
      <point x="292" y="0" type="curve" smooth="yes"/>
      <point x="406" y="0"/>
      <point x="536" y="-14"/>
      <point x="682" y="-16" type="curve" smooth="yes"/>
      <point x="1158" y="-18"/>
      <point x="1434" y="274"/>
      <point x="1434" y="780" type="curve" smooth="yes"/>
      <point x="1434" y="1238"/>
      <point x="1208" y="1502"/>
      <point x="704" y="1502" type="curve" smooth="yes"/>
      <point x="566" y="1502"/>
      <point x="372" y="1486"/>
      <point x="298" y="1486" type="curve" smooth="yes"/>
      <point x="252" y="1486"/>
      <point x="206" y="1486"/>
      <point x="160" y="1486" type="curve"/>
    </contour>
    <contour>
      <point x="534" y="274" type="curve"/>
      <point x="534" y="1220" type="line"/>
      <point x="570" y="1226"/>
      <point x="640" y="1234"/>
      <point x="690" y="1234" type="curve" smooth="yes"/>
      <point x="932" y="1234"/>
      <point x="1048" y="1106"/>
      <point x="1048" y="748" type="curve" smooth="yes"/>
      <point x="1048" y="410"/>
      <point x="912" y="260"/>
      <point x="704" y="258" type="curve" smooth="yes"/>
      <point x="638" y="258"/>
      <point x="572" y="262"/>
    </contour>
  </outline>
</glyph>
<glyph name="E" format="2">
  <advance width="1232"/>
  <unicode hex="0045"/>
  <anchor x="658" y="0" name="bottom"/>
  <anchor x="658" y="-166" name="btm"/>
  <anchor x="1080" y="0" name="ogonek"/>
  <anchor x="636" y="1660" name="top"/>
  <anchor x="32" y="1486" name="topleft"/>
  <outline>
    <contour>
      <point x="160" y="0" type="line"/>
      <point x="1158" y="0" type="line"/>
      <point x="1158" y="284" type="line"/>
      <point x="530" y="284" type="line"/>
      <point x="530" y="624" type="line"/>
      <point x="970" y="624" type="line"/>
      <point x="970" y="894" type="line"/>
      <point x="530" y="894" type="line"/>
      <point x="530" y="1208" type="line"/>
      <point x="1100" y="1208" type="line"/>
      <point x="1100" y="1486" type="line"/>
      <point x="160" y="1486" type="line"/>
    </contour>
  </outline>
</glyph>
<glyph name="F" format="2">
  <advance width="1128"/>
  <unicode hex="0046"/>
  <anchor x="560" y="0" name="bottom"/>
  <anchor x="640" y="-166" name="btm"/>
  <anchor x="648" y="1662" name="top"/>
  <outline>
    <contour>
      <point x="160" y="0" type="line"/>
      <point x="532" y="0" type="line"/>
      <point x="532" y="578" type="line"/>
      <point x="954" y="578" type="line"/>
      <point x="954" y="854" type="line"/>
      <point x="532" y="854" type="line"/>
      <point x="532" y="1208" type="line"/>
      <point x="1088" y="1208" type="line"/>
      <point x="1088" y="1486" type="line"/>
      <point x="160" y="1486" type="line"/>
    </contour>
  </outline>
</glyph>
<glyph name="H" format="2">
  <advance width="1576"/>
  <unicode hex="0048"/>
  <anchor x="788" y="0" name="bottom"/>
  <anchor x="790" y="-166" name="btm"/>
  <anchor x="788" y="744" name="center"/>
  <anchor x="788" y="1660" name="top"/>
  <anchor x="32" y="1486" name="topleft"/>
  <outline>
    <contour>
      <point x="160" y="0" type="line"/>
      <point x="534" y="0" type="line"/>
      <point x="534" y="616" type="line"/>
      <point x="1044" y="616" type="line"/>
      <point x="1044" y="0" type="line"/>
      <point x="1416" y="0" type="line"/>
      <point x="1416" y="1486" type="line"/>
      <point x="1044" y="1486" type="line"/>
      <point x="1044" y="884" type="line"/>
      <point x="534" y="884" type="line"/>
      <point x="534" y="1486" type="line"/>
      <point x="160" y="1486" type="line"/>
    </contour>
  </outline>
</glyph>
<glyph name="I" format="2">
  <advance width="736"/>
  <unicode hex="0049"/>
  <anchor x="368" y="0" name="bottom"/>
  <anchor x="368" y="-166" name="btm"/>
  <anchor x="556" y="0" name="ogonek"/>
  <anchor x="370" y="1660" name="top"/>
  <anchor x="40" y="1486" name="topleft"/>
  <outline>
    <contour>
      <point x="180" y="0" type="line"/>
      <point x="556" y="0" type="line"/>
      <point x="556" y="1486" type="line"/>
      <point x="180" y="1486" type="line"/>
    </contour>
  </outline>
</glyph>
<glyph name="J" format="2">
  <advance width="782"/>
  <unicode hex="004A"/>
  <anchor x="392" y="0" name="bottom"/>
  <anchor x="230" y="-166" name="btm"/>
  <anchor x="412" y="1662" name="top"/>
  <outline>
    <contour>
      <point x="46" y="-324" type="line"/>
      <point x="214" y="-332"/>
      <point x="532" y="-196"/>
      <point x="588" y="92" type="curve" smooth="yes"/>
      <point x="616" y="232"/>
      <point x="606" y="404"/>
      <point x="606" y="598" type="curve" smooth="yes"/>
      <point x="606" y="1486" type="line"/>
      <point x="232" y="1486" type="line"/>
      <point x="232" y="594" type="line" smooth="yes"/>
      <point x="232" y="340"/>
      <point x="230" y="212"/>
      <point x="200" y="108" type="curve" smooth="yes"/>
      <point x="160" y="-38"/>
      <point x="62" y="-100"/>
      <point x="-34" y="-138" type="curve"/>
    </contour>
  </outline>
</glyph>
<glyph name="K" format="2">
  <advance width="1426"/>
  <unicode hex="004B"/>
  <anchor x="710" y="0" name="bottom"/>
  <anchor x="742" y="-166" name="btm"/>
  <anchor x="742" y="1662" name="top"/>
  <outline>
    <contour>
      <point x="160" y="0" type="line"/>
      <point x="524" y="0" type="line"/>
      <point x="524" y="594" type="line"/>
      <point x="484" y="374" type="line"/>
      <point x="762" y="704" type="line"/>
      <point x="848" y="770" type="line"/>
      <point x="1398" y="1486" type="line"/>
      <point x="994" y="1486" type="line"/>
      <point x="524" y="854" type="line"/>
      <point x="524" y="1486" type="line"/>
      <point x="160" y="1486" type="line"/>
    </contour>
    <contour>
      <point x="944" y="118" type="curve" smooth="yes"/>
      <point x="976" y="56"/>
      <point x="990" y="26"/>
      <point x="1006" y="0" type="curve"/>
      <point x="1424" y="0" type="line"/>
      <point x="1402" y="36"/>
      <point x="1382" y="72"/>
      <point x="1360" y="108" type="curve"/>
      <point x="1208" y="368"/>
      <point x="976" y="770"/>
      <point x="880" y="888" type="curve"/>
      <point x="774" y="768" type="line"/>
      <point x="640" y="622" type="line"/>
      <point x="744" y="470"/>
      <point x="844" y="306"/>
    </contour>
  </outline>
</glyph>
<glyph name="O" format="2">
  <advance width="1552"/>
  <unicode hex="004F"/>
  <anchor x="778" y="0" name="bottom"/>
  <anchor x="774" y="-166" name="btm"/>
  <anchor x="778" y="744" name="center"/>
  <anchor x="924" y="0" name="ogonek"/>
  <anchor x="790" y="1660" name="top"/>
  <anchor x="34" y="1486" name="topleft"/>
  <anchor x="1022" y="1442" name="topright"/>
  <outline>
    <contour>
      <point x="772" y="-16" type="curve" smooth="yes"/>
      <point x="1178" y="-8"/>
      <point x="1458" y="218"/>
      <point x="1468" y="746" type="curve" smooth="yes"/>
      <point x="1476" y="1216"/>
      <point x="1222" y="1514"/>
      <point x="800" y="1502" type="curve" smooth="yes"/>
      <point x="388" y="1490"/>
      <point x="94" y="1278"/>
      <point x="84" y="750" type="curve" smooth="yes"/>
      <point x="76" y="278"/>
      <point x="332" y="-24"/>
    </contour>
    <contour>
      <point x="778" y="252" type="curve" smooth="yes"/>
      <point x="568" y="252"/>
      <point x="464" y="456"/>
      <point x="464" y="740" type="curve" smooth="yes"/>
      <point x="464" y="1108"/>
      <point x="612" y="1226"/>
      <point x="794" y="1226" type="curve" smooth="yes"/>
      <point x="994" y="1226"/>
      <point x="1088" y="1036"/>
      <point x="1088" y="756" type="curve" smooth="yes"/>
      <point x="1088" y="394"/>
      <point x="970" y="252"/>
    </contour>
  </outline>
</glyph>
<glyph name="P" format="2">
  <advance width="1352"/>
  <unicode hex="0050"/>
  <anchor x="672" y="0" name="bottom"/>
  <anchor x="678" y="-166" name="btm"/>
  <anchor x="742" y="1662" name="top"/>
  <outline>
    <contour>
      <point x="160" y="0" type="line"/>
      <point x="534" y="0" type="line"/>
      <point x="534" y="430" type="line"/>
      <point x="566" y="430"/>
      <point x="608" y="428"/>
      <point x="686" y="428" type="curve" smooth="yes"/>
      <point x="1082" y="428"/>
      <point x="1296" y="626"/>
      <point x="1296" y="978" type="curve" smooth="yes"/>
      <point x="1296" y="1364"/>
      <point x="1082" y="1502"/>
      <point x="724" y="1502" type="curve" smooth="yes"/>
      <point x="576" y="1502"/>
      <point x="442" y="1486"/>
      <point x="306" y="1486" type="curve" smooth="yes"/>
      <point x="160" y="1486" type="line"/>
    </contour>
    <contour>
      <point x="534" y="704" type="curve"/>
      <point x="534" y="1232" type="line"/>
      <point x="576" y="1238"/>
      <point x="632" y="1242"/>
      <point x="678" y="1242" type="curve" smooth="yes"/>
      <point x="852" y="1248"/>
      <point x="932" y="1140"/>
      <point x="932" y="980" type="curve" smooth="yes"/>
      <point x="932" y="772"/>
      <point x="826" y="696"/>
      <point x="686" y="696" type="curve" smooth="yes"/>
      <point x="624" y="696"/>
      <point x="576" y="700"/>
    </contour>
  </outline>
</glyph>
<glyph name="Q" format="2">
  <advance width="1566"/>
  <unicode hex="0051"/>
  <anchor x="784" y="0" name="bottom"/>
  <anchor x="784" y="-166" name="btm"/>
  <anchor x="784" y="1660" name="top"/>
  <outline>
    <contour>
      <point x="1192" y="-346" type="curve" smooth="yes"/>
      <point x="1286" y="-346"/>
      <point x="1352" y="-320"/>
      <point x="1388" y="-302" type="curve"/>
      <point x="1388" y="-52" type="line"/>
      <point x="1348" y="-66"/>
      <point x="1290" y="-80"/>
      <point x="1234" y="-80" type="curve" smooth="yes"/>
      <point x="1052" y="-80"/>
      <point x="986" y="-64"/>
      <point x="952" y="54" type="curve"/>
      <point x="850" y="54" type="line"/>
      <point x="672" y="8" type="line"/>
      <point x="746" y="-254"/>
      <point x="862" y="-346"/>
    </contour>
    <component base="O"/>
  </outline>
</glyph>
<glyph name="R" format="2">
  <advance width="1428"/>
  <unicode hex="0052"/>
  <anchor x="710" y="0" name="bottom"/>
  <anchor x="724" y="-166" name="btm"/>
  <anchor x="686" y="1660" name="top"/>
  <outline>
    <contour>
      <point x="532" y="0" type="line"/>
      <point x="532" y="526" type="line"/>
      <point x="764" y="526"/>
      <point x="816" y="542"/>
      <point x="894" y="556" type="curve" smooth="yes"/>
      <point x="1128" y="592"/>
      <point x="1290" y="726"/>
      <point x="1290" y="1030" type="curve" smooth="yes"/>
      <point x="1290" y="1404"/>
      <point x="998" y="1502"/>
      <point x="736" y="1502" type="curve" smooth="yes"/>
      <point x="524" y="1502"/>
      <point x="394" y="1486"/>
      <point x="288" y="1486" type="curve" smooth="yes"/>
      <point x="246" y="1486"/>
      <point x="202" y="1486"/>
      <point x="160" y="1486" type="curve"/>
      <point x="160" y="0" type="line"/>
    </contour>
    <contour>
      <point x="532" y="784" type="curve"/>
      <point x="532" y="1222" type="line"/>
      <point x="578" y="1234"/>
      <point x="636" y="1240"/>
      <point x="690" y="1240" type="curve" smooth="yes"/>
      <point x="886" y="1240"/>
      <point x="932" y="1134"/>
      <point x="932" y="1024" type="curve" smooth="yes"/>
      <point x="932" y="886"/>
      <point x="866" y="776"/>
      <point x="714" y="776" type="curve" smooth="yes"/>
      <point x="666" y="776"/>
      <point x="572" y="778"/>
    </contour>
    <contour>
      <point x="980" y="0" type="curve"/>
      <point x="1390" y="0" type="line"/>
      <point x="1370" y="36"/>
      <point x="1348" y="72"/>
      <point x="1328" y="108" type="curve" smooth="yes"/>
      <point x="1216" y="302"/>
      <point x="1160" y="562"/>
      <point x="1010" y="630" type="curve"/>
      <point x="774" y="598" type="line"/>
      <point x="688" y="530" type="line"/>
      <point x="812" y="528"/>
      <point x="846" y="284"/>
      <point x="926" y="106" type="curve" smooth="yes"/>
      <point x="954" y="42"/>
      <point x="964" y="20"/>
    </contour>
  </outline>
</glyph>
<glyph name="S" format="2">
  <advance width="1198"/>
  <unicode hex="0053"/>
  <anchor x="584" y="0" name="bottom"/>
  <anchor x="576" y="-166" name="btm"/>
  <anchor x="632" y="1660" name="top"/>
  <outline>
    <contour>
      <point x="580" y="-16" type="curve" smooth="yes"/>
      <point x="930" y="-16"/>
      <point x="1122" y="158"/>
      <point x="1122" y="424" type="curve" smooth="yes"/>
      <point x="1122" y="658"/>
      <point x="970" y="772"/>
      <point x="714" y="886" type="curve" smooth="yes"/>
      <point x="534" y="968"/>
      <point x="458" y="1018"/>
      <point x="458" y="1108" type="curve" smooth="yes"/>
      <point x="458" y="1182"/>
      <point x="522" y="1232"/>
      <point x="662" y="1232" type="curve" smooth="yes"/>
      <point x="792" y="1232"/>
      <point x="932" y="1184"/>
      <point x="992" y="1138" type="curve"/>
      <point x="1050" y="1416" type="line"/>
      <point x="996" y="1448"/>
      <point x="854" y="1502"/>
      <point x="630" y="1502" type="curve" smooth="yes"/>
      <point x="316" y="1502"/>
      <point x="100" y="1366"/>
      <point x="100" y="1094" type="curve" smooth="yes"/>
      <point x="100" y="856"/>
      <point x="260" y="724"/>
      <point x="448" y="634" type="curve" smooth="yes"/>
      <point x="670" y="528"/>
      <point x="750" y="492"/>
      <point x="750" y="396" type="curve" smooth="yes"/>
      <point x="750" y="308"/>
      <point x="690" y="270"/>
      <point x="550" y="270" type="curve" smooth="yes"/>
      <point x="394" y="270"/>
      <point x="230" y="324"/>
      <point x="156" y="366" type="curve"/>
      <point x="110" y="76" type="line"/>
      <point x="168" y="40"/>
      <point x="368" y="-16"/>
    </contour>
  </outline>
</glyph>
<glyph name="T" format="2">
  <advance width="1224"/>
  <unicode hex="0054"/>
  <anchor x="612" y="0" name="bottom"/>
  <anchor x="612" y="744" name="center"/>
  <anchor x="610" y="1660" name="top"/>
  <outline>
    <contour>
      <point x="424" y="0" type="line"/>
      <point x="800" y="0" type="line"/>
      <point x="800" y="1200" type="line"/>
      <point x="1196" y="1200" type="line"/>
      <point x="1196" y="1486" type="line"/>
      <point x="28" y="1486" type="line"/>
      <point x="28" y="1200" type="line"/>
      <point x="424" y="1200" type="line"/>
    </contour>
  </outline>
</glyph>
<glyph name="W" format="2">
  <advance width="1952"/>
  <unicode hex="0057"/>
  <anchor x="976" y="0" name="bottom"/>
  <anchor x="964" y="-166" name="btm"/>
  <anchor x="964" y="1660" name="top"/>
  <outline>
    <contour>
      <point x="378" y="-10" type="line"/>
      <point x="738" y="-10" type="line"/>
      <point x="926" y="766" type="line"/>
      <point x="1014" y="1410" type="line"/>
      <point x="918" y="1410" type="line"/>
      <point x="1016" y="766" type="line"/>
      <point x="1206" y="-10" type="line"/>
      <point x="1572" y="-10" type="line"/>
      <point x="1964" y="1486" type="line"/>
      <point x="1606" y="1486" type="line"/>
      <point x="1452" y="656" type="line"/>
      <point x="1388" y="168" type="line"/>
      <point x="1432" y="168" type="line"/>
      <point x="1352" y="656" type="line"/>
      <point x="1150" y="1486" type="line"/>
      <point x="812" y="1486" type="line"/>
      <point x="616" y="656" type="line"/>
      <point x="542" y="170" type="line"/>
      <point x="580" y="170" type="line"/>
      <point x="516" y="656" type="line"/>
      <point x="360" y="1486" type="line"/>
      <point x="-12" y="1486" type="line"/>
    </contour>
  </outline>
</glyph>
<glyph name="Y" format="2">
  <advance width="1258"/>
  <unicode hex="0059"/>
  <anchor x="630" y="0" name="bottom"/>
  <anchor x="642" y="-166" name="btm"/>
  <anchor x="642" y="1660" name="top"/>
  <anchor x="40" y="1486" name="topleft"/>
  <outline>
    <contour>
      <point x="438" y="0" type="line"/>
      <point x="818" y="0" type="line"/>
      <point x="818" y="592" type="line"/>
      <point x="784" y="458" type="line"/>
      <point x="1310" y="1486" type="line"/>
      <point x="916" y="1486" type="line"/>
      <point x="692" y="1006" type="line"/>
      <point x="616" y="770" type="line"/>
      <point x="666" y="770" type="line"/>
      <point x="576" y="1006" type="line"/>
      <point x="356" y="1486" type="line"/>
      <point x="-52" y="1486" type="line"/>
      <point x="470" y="460" type="line"/>
      <point x="438" y="592" type="line"/>
    </contour>
  </outline>
</glyph>
<glyph name="bracketleft" format="2">
  <advance width="828"/>
  <unicode hex="005B"/>
  <outline>
    <contour>
      <point x="160" y="66" type="line"/>
      <point x="160" y="-126"/>
      <point x="206" y="-210"/>
      <point x="356" y="-210" type="curve" smooth="yes"/>
      <point x="514" y="-210"/>
      <point x="614" y="-196"/>
      <point x="718" y="-182" type="curve"/>
      <point x="718" y="-12" type="line"/>
      <point x="472" y="-12" type="line"/>
      <point x="472" y="1506" type="line"/>
      <point x="718" y="1506" type="line"/>
      <point x="718" y="1684" type="line"/>
      <point x="614" y="1694"/>
      <point x="514" y="1708"/>
      <point x="356" y="1708" type="curve" smooth="yes"/>
      <point x="206" y="1708"/>
      <point x="160" y="1644"/>
      <point x="160" y="1452" type="curve" smooth="yes"/>
    </contour>
  </outline>
</glyph>
<glyph name="asciicircum" format="2">
  <advance width="1356"/>
  <unicode hex="005E"/>
  <outline>
    <contour>
      <point x="134" y="478" type="line"/>
      <point x="458" y="478" type="line"/>
      <point x="688" y="1074" type="line"/>
      <point x="668" y="1074" type="line"/>
      <point x="906" y="478" type="line"/>
      <point x="1222" y="478" type="line"/>
      <point x="796" y="1496" type="line"/>
      <point x="562" y="1496" type="line"/>
    </contour>
  </outline>
</glyph>
<glyph name="underscore" format="2">
  <advance width="1660"/>
  <unicode hex="005F"/>
  <outline>
    <contour>
      <point x="-36" y="-398" type="line"/>
      <point x="1696" y="-398" type="line"/>
      <point x="1696" y="-228" type="line"/>
      <point x="-36" y="-228" type="line"/>
    </contour>
  </outline>
</glyph>
<glyph name="grave" format="2">
  <advance width="684"/>
  <unicode hex="0060"/>
  <outline>
    <contour>
      <point x="636" y="1348" type="line"/>
      <point x="536" y="1440"/>
      <point x="384" y="1646"/>
      <point x="302" y="1782" type="curve"/>
      <point x="64" y="1598" type="line"/>
      <point x="132" y="1446"/>
      <point x="382" y="1238"/>
      <point x="472" y="1194" type="curve"/>
    </contour>
  </outline>
</glyph>
<glyph name="a" format="2">
  <advance width="1234"/>
  <unicode hex="0061"/>
  <anchor x="618" y="0" name="bottom"/>
  <anchor x="604" y="-200" name="btm"/>
  <anchor x="1098" y="0" name="ogonek"/>
  <anchor x="598" y="1660" name="top"/>
  <outline>
    <contour>
      <point x="446" y="-16" type="curve" smooth="yes"/>
      <point x="596" y="-16"/>
      <point x="694" y="40"/>
      <point x="756" y="94" type="curve"/>
      <point x="796" y="180" type="line"/>
      <point x="738" y="254" type="line"/>
      <point x="718" y="232"/>
      <point x="656" y="208"/>
      <point x="598" y="208" type="curve" smooth="yes"/>
      <point x="524" y="208"/>
      <point x="456" y="252"/>
      <point x="456" y="358" type="curve" smooth="yes"/>
      <point x="456" y="438"/>
      <point x="500" y="464"/>
      <point x="542" y="482" type="curve" smooth="yes"/>
      <point x="582" y="500"/>
      <point x="668" y="514"/>
      <point x="738" y="516" type="curve"/>
      <point x="790" y="626" type="line"/>
      <point x="738" y="690" type="line"/>
      <point x="598" y="690"/>
      <point x="418" y="680"/>
      <point x="284" y="622" type="curve" smooth="yes"/>
      <point x="160" y="570"/>
      <point x="84" y="470"/>
      <point x="84" y="340" type="curve" smooth="yes"/>
      <point x="84" y="132"/>
      <point x="226" y="-16"/>
    </contour>
    <contour>
      <point x="1098" y="0" type="line"/>
      <point x="1098" y="712" type="line" smooth="yes"/>
      <point x="1098" y="1020"/>
      <point x="966" y="1132"/>
      <point x="616" y="1132" type="curve" smooth="yes"/>
      <point x="416" y="1132"/>
      <point x="208" y="1060"/>
      <point x="126" y="1010" type="curve"/>
      <point x="200" y="798" type="line"/>
      <point x="298" y="844"/>
      <point x="454" y="876"/>
      <point x="582" y="876" type="curve" smooth="yes"/>
      <point x="682" y="876"/>
      <point x="738" y="854"/>
      <point x="738" y="756" type="curve" smooth="yes"/>
      <point x="738" y="166" type="line"/>
      <point x="756" y="166" type="line"/>
      <point x="756" y="0" type="line"/>
    </contour>
  </outline>
</glyph>
<glyph name="d" format="2">
  <advance width="1344"/>
  <unicode hex="0064"/>
  <anchor x="670" y="0" name="bottom"/>
  <anchor x="656" y="-166" name="btm"/>
  <anchor x="670" y="558" name="center"/>
  <anchor x="432" y="1662" name="top"/>
  <anchor x="1304" y="1114" name="topright"/>
  <outline>
    <contour>
      <point x="862" y="0" type="line"/>
      <point x="1188" y="0" type="line"/>
      <point x="1188" y="1624" type="line"/>
      <point x="832" y="1624" type="line"/>
      <point x="832" y="1220" type="line"/>
      <point x="840" y="892" type="line"/>
      <point x="832" y="884" type="line"/>
      <point x="832" y="154" type="line"/>
      <point x="862" y="132" type="line"/>
    </contour>
    <contour>
      <point x="520" y="-16" type="curve" smooth="yes"/>
      <point x="718" y="-16"/>
      <point x="824" y="76"/>
      <point x="870" y="126" type="curve"/>
      <point x="834" y="308" type="line"/>
      <point x="794" y="280"/>
      <point x="714" y="254"/>
      <point x="644" y="254" type="curve" smooth="yes"/>
      <point x="530" y="254"/>
      <point x="456" y="328"/>
      <point x="458" y="536" type="curve" smooth="yes"/>
      <point x="458" y="766"/>
      <point x="548" y="878"/>
      <point x="674" y="878" type="curve" smooth="yes"/>
      <point x="742" y="878"/>
      <point x="804" y="870"/>
      <point x="834" y="846" type="curve"/>
      <point x="896" y="1074" type="line"/>
      <point x="872" y="1092"/>
      <point x="784" y="1128"/>
      <point x="646" y="1128" type="curve" smooth="yes"/>
      <point x="306" y="1128"/>
      <point x="84" y="896"/>
      <point x="84" y="518" type="curve" smooth="yes"/>
      <point x="84" y="158"/>
      <point x="284" y="-16"/>
    </contour>
  </outline>
</glyph>
<glyph name="h" format="2">
  <advance width="1314"/>
  <unicode hex="0068"/>
  <anchor x="658" y="0" name="bottom"/>
  <anchor x="660" y="-166" name="btm"/>
  <anchor x="658" y="984" name="center"/>
  <anchor x="318" y="1738" name="top"/>
  <outline>
    <contour>
      <point x="140" y="0" type="line"/>
      <point x="502" y="0" type="line"/>
      <point x="502" y="774" type="line"/>
      <point x="556" y="828"/>
      <point x="634" y="846"/>
      <point x="680" y="846" type="curve" smooth="yes"/>
      <point x="776" y="848"/>
      <point x="822" y="806"/>
      <point x="822" y="636" type="curve" smooth="yes"/>
      <point x="822" y="0" type="line"/>
      <point x="1186" y="0" type="line"/>
      <point x="1186" y="698" type="line" smooth="yes"/>
      <point x="1186" y="996"/>
      <point x="1074" y="1136"/>
      <point x="832" y="1130" type="curve" smooth="yes"/>
      <point x="682" y="1128"/>
      <point x="542" y="1050"/>
      <point x="472" y="986" type="curve"/>
      <point x="482" y="956" type="line"/>
      <point x="502" y="1206" type="line"/>
      <point x="502" y="1624" type="line"/>
      <point x="140" y="1624" type="line"/>
    </contour>
  </outline>
</glyph>
<glyph name="k" format="2">
  <advance width="1240"/>
  <unicode hex="006B"/>
  <anchor x="612" y="0" name="bottom"/>
  <anchor x="640" y="-166" name="btm"/>
  <anchor x="816" y="1660" name="top"/>
  <outline>
    <contour>
      <point x="1234" y="1114" type="line"/>
      <point x="822" y="1114" type="line"/>
      <point x="438" y="648" type="line"/>
      <point x="480" y="598" type="line"/>
      <point x="496" y="1008" type="line"/>
      <point x="496" y="1622" type="line"/>
      <point x="140" y="1622" type="line"/>
      <point x="140" y="662" type="line"/>
      <point x="140" y="0" type="line"/>
      <point x="496" y="0" type="line"/>
      <point x="496" y="184" type="line"/>
      <point x="492" y="378" type="line"/>
      <point x="482" y="304" type="line"/>
    </contour>
    <contour>
      <point x="582" y="466" type="line"/>
      <point x="858" y="0" type="line"/>
      <point x="1260" y="0" type="line"/>
      <point x="818" y="716" type="line"/>
    </contour>
  </outline>
</glyph>
<glyph name="l" format="2">
  <advance width="630"/>
  <unicode hex="006C"/>
  <anchor x="316" y="0" name="bottom"/>
  <anchor x="308" y="-166" name="btm"/>
  <anchor x="316" y="984" name="center"/>
  <anchor x="314" y="1808" name="top"/>
  <anchor x="612" y="1966" name="topright"/>
  <outline>
    <contour>
      <point x="134" y="0" type="line"/>
      <point x="496" y="0" type="line"/>
      <point x="496" y="1624" type="line"/>
      <point x="134" y="1624" type="line"/>
    </contour>
  </outline>
</glyph>
<glyph name="m" format="2">
  <advance width="1982"/>
  <unicode hex="006D"/>
  <anchor x="994" y="0" name="bottom"/>
  <anchor x="994" y="-166" name="btm"/>
  <anchor x="994" y="1660" name="top"/>
  <outline>
    <contour>
      <point x="144" y="0" type="line"/>
      <point x="504" y="0" type="line"/>
      <point x="504" y="774" type="line"/>
      <point x="554" y="822"/>
      <point x="632" y="846"/>
      <point x="684" y="846" type="curve" smooth="yes"/>
      <point x="788" y="848"/>
      <point x="822" y="798"/>
      <point x="822" y="636" type="curve" smooth="yes"/>
      <point x="822" y="0" type="line"/>
      <point x="1182" y="0" type="line"/>
      <point x="1182" y="704" type="line" smooth="yes"/>
      <point x="1182" y="1024"/>
      <point x="1068" y="1136"/>
      <point x="846" y="1130" type="curve" smooth="yes"/>
      <point x="700" y="1128"/>
      <point x="558" y="1056"/>
      <point x="482" y="994" type="curve"/>
      <point x="474" y="1114" type="line"/>
      <point x="144" y="1114" type="line"/>
    </contour>
    <contour>
      <point x="1168" y="766" type="line"/>
      <point x="1204" y="800"/>
      <point x="1276" y="846"/>
      <point x="1352" y="846" type="curve" smooth="yes"/>
      <point x="1458" y="848"/>
      <point x="1492" y="800"/>
      <point x="1492" y="638" type="curve" smooth="yes"/>
      <point x="1492" y="0" type="line"/>
      <point x="1854" y="0" type="line"/>
      <point x="1854" y="702" type="line" smooth="yes"/>
      <point x="1854" y="1028"/>
      <point x="1720" y="1132"/>
      <point x="1496" y="1130" type="curve" smooth="yes"/>
      <point x="1310" y="1132"/>
      <point x="1160" y="1036"/>
      <point x="1108" y="988" type="curve"/>
    </contour>
  </outline>
</glyph>
<glyph name="p" format="2">
  <advance width="1352"/>
  <unicode hex="0070"/>
  <anchor x="676" y="0" name="bottom"/>
  <anchor x="766" y="-166" name="btm"/>
  <anchor x="810" y="1660" name="top"/>
  <outline>
    <contour>
      <point x="156" y="-494" type="line"/>
      <point x="518" y="-494" type="line"/>
      <point x="518" y="-136" type="line"/>
      <point x="514" y="42" type="line"/>
      <point x="518" y="144" type="line"/>
      <point x="518" y="954" type="line"/>
      <point x="498" y="978" type="line"/>
      <point x="498" y="1114" type="line"/>
      <point x="156" y="1114" type="line"/>
    </contour>
    <contour>
      <point x="698" y="-16" type="curve" smooth="yes"/>
      <point x="1040" y="-16"/>
      <point x="1268" y="220"/>
      <point x="1268" y="598" type="curve" smooth="yes"/>
      <point x="1268" y="958"/>
      <point x="1062" y="1128"/>
      <point x="824" y="1128" type="curve" smooth="yes"/>
      <point x="626" y="1128"/>
      <point x="526" y="1038"/>
      <point x="480" y="988" type="curve"/>
      <point x="518" y="802" type="line"/>
      <point x="556" y="832"/>
      <point x="630" y="860"/>
      <point x="702" y="860" type="curve" smooth="yes"/>
      <point x="816" y="860"/>
      <point x="888" y="790"/>
      <point x="888" y="576" type="curve" smooth="yes"/>
      <point x="886" y="350"/>
      <point x="798" y="228"/>
      <point x="670" y="228" type="curve" smooth="yes"/>
      <point x="604" y="228"/>
      <point x="546" y="240"/>
      <point x="518" y="268" type="curve"/>
      <point x="456" y="40" type="line"/>
      <point x="480" y="22"/>
      <point x="566" y="-16"/>
    </contour>
  </outline>
</glyph>
<glyph name="q" format="2">
  <advance width="1350"/>
  <unicode hex="0071"/>
  <anchor x="676" y="0" name="bottom"/>
  <anchor x="578" y="-166" name="btm"/>
  <anchor x="584" y="1662" name="top"/>
  <outline>
    <contour>
      <point x="834" y="-136" type="line"/>
      <point x="834" y="-494" type="line"/>
      <point x="1194" y="-494" type="line"/>
      <point x="1194" y="1114" type="line"/>
      <point x="882" y="1072" type="line"/>
      <point x="856" y="978" type="line"/>
      <point x="834" y="954" type="line"/>
      <point x="834" y="192" type="line"/>
      <point x="838" y="106" type="line"/>
    </contour>
    <contour>
      <point x="526" y="-16" type="curve" smooth="yes"/>
      <point x="724" y="-16"/>
      <point x="826" y="76"/>
      <point x="872" y="126" type="curve"/>
      <point x="834" y="308" type="line"/>
      <point x="796" y="280"/>
      <point x="720" y="254"/>
      <point x="650" y="254" type="curve" smooth="yes"/>
      <point x="536" y="254"/>
      <point x="462" y="328"/>
      <point x="464" y="536" type="curve" smooth="yes"/>
      <point x="464" y="766"/>
      <point x="554" y="878"/>
      <point x="680" y="878" type="curve" smooth="yes"/>
      <point x="748" y="878"/>
      <point x="804" y="870"/>
      <point x="834" y="846" type="curve"/>
      <point x="968" y="1062" type="line"/>
      <point x="908" y="1094"/>
      <point x="786" y="1128"/>
      <point x="652" y="1128" type="curve" smooth="yes"/>
      <point x="312" y="1128"/>
      <point x="84" y="896"/>
      <point x="84" y="518" type="curve" smooth="yes"/>
      <point x="84" y="158"/>
      <point x="290" y="-16"/>
    </contour>
  </outline>
</glyph>
<glyph name="s" format="2">
  <advance width="1030"/>
  <unicode hex="0073"/>
  <anchor x="512" y="0" name="bottom"/>
  <anchor x="524" y="-166" name="btm"/>
  <anchor x="530" y="1660" name="top"/>
  <outline>
    <contour>
      <point x="86" y="74" type="line"/>
      <point x="148" y="36"/>
      <point x="316" y="-16"/>
      <point x="500" y="-16" type="curve" smooth="yes"/>
      <point x="784" y="-16"/>
      <point x="970" y="106"/>
      <point x="970" y="338" type="curve" smooth="yes"/>
      <point x="970" y="514"/>
      <point x="868" y="600"/>
      <point x="604" y="696" type="curve" smooth="yes"/>
      <point x="486" y="740"/>
      <point x="434" y="756"/>
      <point x="434" y="816" type="curve" smooth="yes"/>
      <point x="434" y="866"/>
      <point x="480" y="892"/>
      <point x="604" y="892" type="curve" smooth="yes"/>
      <point x="712" y="892"/>
      <point x="832" y="842"/>
      <point x="872" y="806" type="curve"/>
      <point x="904" y="1060" type="line"/>
      <point x="854" y="1088"/>
      <point x="728" y="1128"/>
      <point x="546" y="1128" type="curve" smooth="yes"/>
      <point x="292" y="1128"/>
      <point x="84" y="1020"/>
      <point x="84" y="804" type="curve" smooth="yes"/>
      <point x="82" y="634"/>
      <point x="166" y="524"/>
      <point x="410" y="436" type="curve" smooth="yes"/>
      <point x="522" y="396"/>
      <point x="612" y="364"/>
      <point x="612" y="306" type="curve" smooth="yes"/>
      <point x="612" y="250"/>
      <point x="566" y="224"/>
      <point x="450" y="226" type="curve" smooth="yes"/>
      <point x="304" y="226"/>
      <point x="154" y="296"/>
      <point x="122" y="324" type="curve"/>
    </contour>
  </outline>
</glyph>
<glyph name="t" format="2">
  <advance width="920"/>
  <unicode hex="0074"/>
  <anchor x="444" y="0" name="bottom"/>
  <anchor x="488" y="-166" name="btm"/>
  <anchor x="444" y="558" name="center"/>
  <anchor x="424" y="1826" name="top"/>
  <anchor x="856" y="1114" name="topright"/>
  <outline>
    <contour>
      <point x="502" y="-16" type="curve" smooth="yes"/>
      <point x="664" y="-16"/>
      <point x="820" y="46"/>
      <point x="872" y="98" type="curve"/>
      <point x="830" y="298" type="line"/>
      <point x="796" y="276"/>
      <point x="716" y="254"/>
      <point x="666" y="254" type="curve" smooth="yes"/>
      <point x="568" y="254"/>
      <point x="538" y="272"/>
      <point x="538" y="480" type="curve" smooth="yes"/>
      <point x="538" y="876" type="line"/>
      <point x="826" y="876" type="line"/>
      <point x="826" y="1114" type="line"/>
      <point x="538" y="1114" type="line"/>
      <point x="538" y="1368" type="line"/>
      <point x="318" y="1368" type="line"/>
      <point x="292" y="1306"/>
      <point x="262" y="1226"/>
      <point x="240" y="1180" type="curve" smooth="yes"/>
      <point x="210" y="1118"/>
      <point x="146" y="1096"/>
      <point x="48" y="1068" type="curve"/>
      <point x="48" y="876" type="line"/>
      <point x="176" y="876" type="line"/>
      <point x="176" y="346" type="line" smooth="yes"/>
      <point x="176" y="104"/>
      <point x="262" y="-16"/>
    </contour>
  </outline>
</glyph>
<glyph name="w" format="2">
  <advance width="1730"/>
  <unicode hex="0077"/>
  <anchor x="866" y="0" name="bottom"/>
  <anchor x="870" y="-166" name="btm"/>
  <anchor x="870" y="1662" name="top"/>
  <outline>
    <contour>
      <point x="332" y="-16" type="line"/>
      <point x="660" y="-16" type="line"/>
      <point x="816" y="532" type="line"/>
      <point x="890" y="888" type="line"/>
      <point x="830" y="888" type="line"/>
      <point x="902" y="532" type="line"/>
      <point x="1064" y="-16" type="line"/>
      <point x="1380" y="-16" type="line"/>
      <point x="1732" y="1114" type="line"/>
      <point x="1396" y="1114" type="line"/>
      <point x="1290" y="664" type="line"/>
      <point x="1196" y="202" type="line"/>
      <point x="1268" y="202" type="line"/>
      <point x="1168" y="664" type="line"/>
      <point x="1036" y="1114" type="line"/>
      <point x="712" y="1114" type="line"/>
      <point x="580" y="664" type="line"/>
      <point x="472" y="200" type="line"/>
      <point x="548" y="200" type="line"/>
      <point x="452" y="664" type="line"/>
      <point x="350" y="1114" type="line"/>
      <point x="-2" y="1114" type="line"/>
    </contour>
  </outline>
</glyph>
<glyph name="z" format="2">
  <advance width="1068"/>
  <unicode hex="007A"/>
  <anchor x="526" y="0" name="bottom"/>
  <anchor x="528" y="-166" name="btm"/>
  <anchor x="526" y="558" name="center"/>
  <anchor x="552" y="1660" name="top"/>
  <outline>
    <contour>
      <point x="76" y="0" type="line"/>
      <point x="998" y="0" type="line"/>
      <point x="998" y="254" type="line"/>
      <point x="518" y="254" type="line"/>
      <point x="582" y="344" type="line"/>
      <point x="1034" y="1020" type="line"/>
      <point x="998" y="1114" type="line"/>
      <point x="118" y="1114" type="line"/>
      <point x="116" y="868" type="line"/>
      <point x="554" y="868" type="line"/>
      <point x="496" y="778" type="line"/>
      <point x="34" y="82" type="line"/>
    </contour>
  </outline>
</glyph>
<glyph name="bar" format="2">
  <advance width="842"/>
  <unicode hex="007C"/>
  <outline>
    <contour>
      <point x="280" y="-182" type="line"/>
      <point x="562" y="-182" type="line"/>
      <point x="562" y="1738" type="line"/>
      <point x="280" y="1738" type="line"/>
    </contour>
  </outline>
</glyph>
<glyph name="asciitilde" format="2">
  <advance width="1412"/>
  <unicode hex="007E"/>
  <outline>
    <contour>
      <point x="326" y="670" type="line"/>
      <point x="368" y="712"/>
      <point x="422" y="772"/>
      <point x="516" y="772" type="curve" smooth="yes"/>
      <point x="672" y="772"/>
      <point x="690" y="618"/>
      <point x="894" y="618" type="curve" smooth="yes"/>
      <point x="1072" y="618"/>
      <point x="1206" y="754"/>
      <point x="1226" y="834" type="curve"/>
      <point x="1102" y="994" type="line"/>
      <point x="1062" y="952"/>
      <point x="1006" y="892"/>
      <point x="910" y="892" type="curve" smooth="yes"/>
      <point x="768" y="892"/>
      <point x="728" y="1044"/>
      <point x="522" y="1044" type="curve" smooth="yes"/>
      <point x="344" y="1044"/>
      <point x="208" y="886"/>
      <point x="186" y="814" type="curve"/>
    </contour>
  </outline>
</glyph>
<glyph name="cent" format="2">
  <advance width="1172"/>
  <unicode hex="00A2"/>
  <outline>
    <contour>
      <point x="568" y="1042" type="line"/>
      <point x="750" y="1042" type="line"/>
      <point x="756" y="1344" type="line"/>
      <point x="576" y="1344" type="line"/>
    </contour>
    <contour>
      <point x="538" y="-210" type="line"/>
      <point x="720" y="-210" type="line"/>
      <point x="726" y="90" type="line"/>
      <point x="544" y="90" type="line"/>
    </contour>
    <component base="c" xOffset="50"/>
  </outline>
</glyph>
<glyph name="brokenbar" format="2">
  <advance width="842"/>
  <unicode hex="00A6"/>
  <outline>
    <contour>
      <point x="280" y="-182" type="line"/>
      <point x="562" y="-182" type="line"/>
      <point x="562" y="590" type="line"/>
      <point x="280" y="590" type="line"/>
    </contour>
    <contour>
      <point x="280" y="950" type="line"/>
      <point x="562" y="950" type="line"/>
      <point x="562" y="1738" type="line"/>
      <point x="280" y="1738" type="line"/>
    </contour>
  </outline>
</glyph>
<glyph name="section" format="2">
  <advance width="1372"/>
  <unicode hex="00A7"/>
  <outline>
    <contour>
      <point x="234" y="1294" type="curve" smooth="yes"/>
      <point x="234" y="870"/>
      <point x="920" y="908"/>
      <point x="920" y="620" type="curve" smooth="yes"/>
      <point x="920" y="538"/>
      <point x="834" y="396"/>
      <point x="794" y="344" type="curve"/>
      <point x="922" y="298" type="line"/>
      <point x="1084" y="390"/>
      <point x="1206" y="518"/>
      <point x="1206" y="690" type="curve" smooth="yes"/>
      <point x="1206" y="1104"/>
      <point x="568" y="1114"/>
      <point x="568" y="1282" type="curve" smooth="yes"/>
      <point x="568" y="1358"/>
      <point x="642" y="1382"/>
      <point x="734" y="1382" type="curve" smooth="yes"/>
      <point x="894" y="1384"/>
      <point x="982" y="1332"/>
      <point x="1022" y="1302" type="curve"/>
      <point x="1072" y="1562" type="line"/>
      <point x="1012" y="1596"/>
      <point x="890" y="1634"/>
      <point x="702" y="1634" type="curve" smooth="yes"/>
      <point x="468" y="1634"/>
      <point x="234" y="1532"/>
    </contour>
    <contour>
      <point x="1150" y="176" type="curve" smooth="yes"/>
      <point x="1150" y="618"/>
      <point x="466" y="538"/>
      <point x="466" y="808" type="curve" smooth="yes"/>
      <point x="466" y="890"/>
      <point x="554" y="984"/>
      <point x="592" y="1036" type="curve"/>
      <point x="448" y="1094" type="line"/>
      <point x="290" y="1012"/>
      <point x="172" y="890"/>
      <point x="172" y="734" type="curve" smooth="yes"/>
      <point x="172" y="318"/>
      <point x="816" y="334"/>
      <point x="816" y="174" type="curve" smooth="yes"/>
      <point x="816" y="96"/>
      <point x="738" y="68"/>
      <point x="640" y="66" type="curve" smooth="yes"/>
      <point x="476" y="66"/>
      <point x="356" y="126"/>
      <point x="308" y="164" type="curve"/>
      <point x="258" y="-98" type="line"/>
      <point x="320" y="-140"/>
      <point x="484" y="-188"/>
      <point x="670" y="-188" type="curve" smooth="yes"/>
      <point x="908" y="-188"/>
      <point x="1150" y="-82"/>
    </contour>
  </outline>
</glyph>
<glyph name="dieresis" format="2">
  <advance width="1010"/>
  <unicode hex="00A8"/>
  <outline>
    <contour>
      <point x="246" y="1250" type="curve" smooth="yes"/>
      <point x="358" y="1250"/>
      <point x="444" y="1342"/>
      <point x="444" y="1452" type="curve" smooth="yes"/>
      <point x="444" y="1560"/>
      <point x="376" y="1636"/>
      <point x="262" y="1636" type="curve" smooth="yes"/>
      <point x="152" y="1636"/>
      <point x="60" y="1544"/>
      <point x="60" y="1436" type="curve" smooth="yes"/>
      <point x="60" y="1328"/>
      <point x="134" y="1250"/>
    </contour>
    <contour>
      <point x="750" y="1250" type="curve" smooth="yes"/>
      <point x="864" y="1250"/>
      <point x="950" y="1342"/>
      <point x="950" y="1452" type="curve" smooth="yes"/>
      <point x="950" y="1560"/>
      <point x="880" y="1636"/>
      <point x="768" y="1636" type="curve" smooth="yes"/>
      <point x="656" y="1636"/>
      <point x="566" y="1544"/>
      <point x="566" y="1436" type="curve" smooth="yes"/>
      <point x="566" y="1328"/>
      <point x="640" y="1250"/>
    </contour>
  </outline>
</glyph>
<glyph name="ordfeminine" format="2">
  <advance width="1054"/>
  <unicode hex="00AA"/>
  <outline>
    <contour>
      <point x="402" y="648" type="curve" smooth="yes"/>
      <point x="518" y="648"/>
      <point x="628" y="706"/>
      <point x="662" y="742" type="curve"/>
      <point x="692" y="804" type="line"/>
      <point x="650" y="884" type="line"/>
      <point x="632" y="872"/>
      <point x="582" y="846"/>
      <point x="510" y="846" type="curve" smooth="yes"/>
      <point x="448" y="846"/>
      <point x="396" y="886"/>
      <point x="396" y="946" type="curve" smooth="yes"/>
      <point x="396" y="986"/>
      <point x="408" y="1030"/>
      <point x="460" y="1060" type="curve" smooth="yes"/>
      <point x="512" y="1088"/>
      <point x="574" y="1094"/>
      <point x="650" y="1094" type="curve"/>
      <point x="692" y="1154" type="line"/>
      <point x="650" y="1242" type="line"/>
      <point x="530" y="1242"/>
      <point x="408" y="1226"/>
      <point x="304" y="1188" type="curve" smooth="yes"/>
      <point x="194" y="1146"/>
      <point x="110" y="1054"/>
      <point x="110" y="924" type="curve" smooth="yes"/>
      <point x="110" y="756"/>
      <point x="220" y="648"/>
    </contour>
    <contour>
      <point x="942" y="654" type="line"/>
      <point x="942" y="1142" type="line"/>
      <point x="942" y="1280" type="line" smooth="yes"/>
      <point x="942" y="1510"/>
      <point x="812" y="1590"/>
      <point x="540" y="1590" type="curve" smooth="yes"/>
      <point x="382" y="1590"/>
      <point x="172" y="1518"/>
      <point x="136" y="1484" type="curve"/>
      <point x="192" y="1312" type="line"/>
      <point x="236" y="1344"/>
      <point x="398" y="1386"/>
      <point x="490" y="1386" type="curve" smooth="yes"/>
      <point x="610" y="1386"/>
      <point x="650" y="1364"/>
      <point x="650" y="1278" type="curve" smooth="yes"/>
      <point x="650" y="792" type="line"/>
      <point x="662" y="792" type="line"/>
      <point x="662" y="728" type="line" smooth="yes"/>
      <point x="662" y="648"/>
      <point x="704" y="654"/>
      <point x="778" y="654" type="curve" smooth="yes"/>
    </contour>
  </outline>
</glyph>
<glyph name="guillemetleft" format="2">
  <advance width="1982"/>
  <unicode hex="00AB"/>
  <outline>
    <contour>
      <point x="216" y="462" type="line"/>
      <point x="844" y="54" type="line"/>
      <point x="928" y="302" type="line"/>
      <point x="480" y="664" type="line"/>
      <point x="480" y="538" type="line"/>
      <point x="928" y="900" type="line"/>
      <point x="844" y="1146" type="line"/>
      <point x="216" y="740" type="line"/>
    </contour>
    <contour>
      <point x="1014" y="462" type="line"/>
      <point x="1662" y="54" type="line"/>
      <point x="1746" y="302" type="line"/>
      <point x="1278" y="664" type="line"/>
      <point x="1278" y="538" type="line"/>
      <point x="1746" y="900" type="line"/>
      <point x="1662" y="1146" type="line"/>
      <point x="1014" y="740" type="line"/>
    </contour>
  </outline>
</glyph>
<glyph name="logicalnot" format="2">
  <advance width="1444"/>
  <unicode hex="00AC"/>
  <outline>
    <contour>
      <point x="238" y="590" type="line"/>
      <point x="940" y="590" type="line"/>
      <point x="940" y="292" type="line"/>
      <point x="1206" y="292" type="line"/>
      <point x="1206" y="832" type="line"/>
      <point x="238" y="832" type="line"/>
    </contour>
  </outline>
</glyph>
<glyph name="macron" format="2">
  <advance width="708"/>
  <unicode hex="00AF"/>
  <outline>
    <contour>
      <point x="52" y="1372" type="line"/>
      <point x="656" y="1372" type="line"/>
      <point x="656" y="1604" type="line"/>
      <point x="52" y="1604" type="line"/>
    </contour>
  </outline>
</glyph>
<glyph name="degree" format="2">
  <advance width="954"/>
  <unicode hex="00B0"/>
  <outline>
    <contour>
      <point x="96" y="1248" type="curve" smooth="yes"/>
      <point x="96" y="1038"/>
      <point x="262" y="872"/>
      <point x="476" y="872" type="curve" smooth="yes"/>
      <point x="700" y="872"/>
      <point x="858" y="1034"/>
      <point x="858" y="1248" type="curve" smooth="yes"/>
      <point x="858" y="1458"/>
      <point x="696" y="1622"/>
      <point x="476" y="1622" type="curve" smooth="yes"/>
      <point x="258" y="1622"/>
      <point x="96" y="1462"/>
    </contour>
    <contour>
      <point x="316" y="1248" type="curve" smooth="yes"/>
      <point x="316" y="1350"/>
      <point x="388" y="1414"/>
      <point x="476" y="1414" type="curve" smooth="yes"/>
      <point x="562" y="1414"/>
      <point x="638" y="1348"/>
      <point x="638" y="1248" type="curve" smooth="yes"/>
      <point x="638" y="1148"/>
      <point x="566" y="1082"/>
      <point x="476" y="1082" type="curve" smooth="yes"/>
      <point x="392" y="1082"/>
      <point x="316" y="1148"/>
    </contour>
  </outline>
</glyph>
<glyph name="acute" format="2">
  <advance width="684"/>
  <unicode hex="00B4"/>
  <outline>
    <contour>
      <point x="206" y="1208" type="line"/>
      <point x="292" y="1250"/>
      <point x="542" y="1450"/>
      <point x="604" y="1598" type="curve"/>
      <point x="368" y="1782" type="line"/>
      <point x="274" y="1632"/>
      <point x="126" y="1454"/>
      <point x="36" y="1364" type="curve"/>
    </contour>
  </outline>
</glyph>
<glyph name="micro" format="2">
  <advance width="1374"/>
  <unicode hex="00B5"/>
  <outline>
    <contour>
      <point x="146" y="-362" type="line"/>
      <point x="474" y="-362" type="line"/>
      <point x="438" y="158" type="line"/>
      <point x="380" y="148" type="line"/>
      <point x="426" y="22"/>
      <point x="510" y="-16"/>
      <point x="648" y="-16" type="curve" smooth="yes"/>
      <point x="790" y="-16"/>
      <point x="860" y="58"/>
      <point x="892" y="118" type="curve"/>
      <point x="902" y="24"/>
      <point x="972" y="-18"/>
      <point x="1070" y="-18" type="curve" smooth="yes"/>
      <point x="1230" y="-18"/>
      <point x="1332" y="64"/>
      <point x="1344" y="84" type="curve"/>
      <point x="1314" y="260" type="line"/>
      <point x="1278" y="238"/>
      <point x="1244" y="234"/>
      <point x="1232" y="234" type="curve" smooth="yes"/>
      <point x="1210" y="234"/>
      <point x="1184" y="248"/>
      <point x="1184" y="308" type="curve" smooth="yes"/>
      <point x="1184" y="1114" type="line"/>
      <point x="822" y="1114" type="line"/>
      <point x="822" y="302" type="line"/>
      <point x="784" y="266"/>
      <point x="718" y="250"/>
      <point x="674" y="250" type="curve" smooth="yes"/>
      <point x="556" y="250"/>
      <point x="508" y="320"/>
      <point x="508" y="478" type="curve" smooth="yes"/>
      <point x="508" y="1114" type="line"/>
      <point x="146" y="1114" type="line"/>
    </contour>
  </outline>
</glyph>
<glyph name="paragraph" format="2">
  <advance width="1500"/>
  <unicode hex="00B6"/>
  <outline>
    <contour>
      <point x="564" y="0" type="line"/>
      <point x="842" y="0" type="line"/>
      <point x="842" y="1460" type="line"/>
      <point x="1036" y="1460" type="line"/>
      <point x="1038" y="0" type="line"/>
      <point x="1314" y="0" type="line"/>
      <point x="1314" y="1652" type="line"/>
      <point x="1138" y="1654"/>
      <point x="882" y="1670"/>
      <point x="736" y="1670" type="curve" smooth="yes"/>
      <point x="324" y="1670"/>
      <point x="140" y="1502"/>
      <point x="140" y="1218" type="curve" smooth="yes"/>
      <point x="140" y="894"/>
      <point x="318" y="758"/>
      <point x="564" y="758" type="curve"/>
    </contour>
  </outline>
</glyph>
<glyph name="cedilla" format="2">
  <advance width="516"/>
  <unicode hex="00B8"/>
  <outline>
    <contour>
      <point x="28" y="-426" type="line"/>
      <point x="54" y="-442"/>
      <point x="156" y="-454"/>
      <point x="214" y="-454" type="curve" smooth="yes"/>
      <point x="356" y="-454"/>
      <point x="472" y="-378"/>
      <point x="474" y="-210" type="curve" smooth="yes"/>
      <point x="474" y="-124"/>
      <point x="454" y="-8"/>
      <point x="410" y="30" type="curve"/>
      <point x="358" y="34" type="line"/>
      <point x="202" y="30" type="line"/>
      <point x="220" y="-2"/>
      <point x="240" y="-38"/>
      <point x="238" y="-116" type="curve" smooth="yes"/>
      <point x="236" y="-212"/>
      <point x="186" y="-262"/>
      <point x="124" y="-262" type="curve" smooth="yes"/>
      <point x="92" y="-262"/>
      <point x="68" y="-260"/>
      <point x="50" y="-250" type="curve"/>
    </contour>
  </outline>
</glyph>
<glyph name="guillemetright" format="2">
  <advance width="1990"/>
  <unicode hex="00BB"/>
  <outline>
    <contour>
      <point x="1766" y="462" type="line"/>
      <point x="1766" y="740" type="line"/>
      <point x="1118" y="1146" type="line"/>
      <point x="1034" y="900" type="line"/>
      <point x="1502" y="538" type="line"/>
      <point x="1502" y="664" type="line"/>
      <point x="1034" y="302" type="line"/>
      <point x="1118" y="54" type="line"/>
    </contour>
    <contour>
      <point x="940" y="462" type="line"/>
      <point x="940" y="740" type="line"/>
      <point x="312" y="1146" type="line"/>
      <point x="228" y="900" type="line"/>
      <point x="676" y="538" type="line"/>
      <point x="676" y="664" type="line"/>
      <point x="228" y="302" type="line"/>
      <point x="312" y="54" type="line"/>
    </contour>
  </outline>
</glyph>
<glyph name="AE" format="2">
  <advance width="1924"/>
  <unicode hex="00C6"/>
  <anchor x="962" y="0" name="bottom"/>
  <anchor x="1378" y="-166" name="btm"/>
  <anchor x="1032" y="1660" name="top"/>
  <outline>
    <contour>
      <point x="-116" y="0" type="line"/>
      <point x="284" y="0" type="line"/>
      <point x="874" y="1366" type="line"/>
      <point x="588" y="1486" type="line"/>
    </contour>
    <contour>
      <point x="846" y="1486" type="line"/>
      <point x="588" y="1486" type="line"/>
      <point x="636" y="1344" type="line"/>
      <point x="896" y="1344" type="line"/>
    </contour>
    <contour>
      <point x="280" y="310" type="line"/>
      <point x="1018" y="310" type="line"/>
      <point x="1002" y="566" type="line"/>
      <point x="326" y="566" type="line"/>
    </contour>
    <contour>
      <point x="846" y="0" type="line"/>
      <point x="1838" y="0" type="line"/>
      <point x="1838" y="284" type="line"/>
      <point x="1214" y="284" type="line"/>
      <point x="1214" y="626" type="line"/>
      <point x="1648" y="626" type="line"/>
      <point x="1648" y="898" type="line"/>
      <point x="1214" y="898" type="line"/>
      <point x="1214" y="1208" type="line"/>
      <point x="1780" y="1208" type="line"/>
      <point x="1780" y="1486" type="line"/>
      <point x="846" y="1486" type="line"/>
    </contour>
  </outline>
</glyph>
<glyph name="Thorn" format="2">
  <advance width="1352"/>
  <unicode hex="00DE"/>
  <anchor x="672" y="0" name="bottom"/>
  <anchor x="672" y="1486" name="top"/>
  <outline>
    <contour>
      <point x="748" y="230" type="curve" smooth="yes"/>
      <point x="1102" y="230"/>
      <point x="1294" y="442"/>
      <point x="1294" y="786" type="curve" smooth="yes"/>
      <point x="1294" y="1102"/>
      <point x="1098" y="1268"/>
      <point x="772" y="1268" type="curve" smooth="yes"/>
      <point x="678" y="1268"/>
      <point x="576" y="1258"/>
      <point x="498" y="1254" type="curve"/>
      <point x="520" y="980" type="line"/>
      <point x="566" y="992"/>
      <point x="612" y="998"/>
      <point x="666" y="998" type="curve" smooth="yes"/>
      <point x="842" y="1002"/>
      <point x="928" y="914"/>
      <point x="928" y="772" type="curve" smooth="yes"/>
      <point x="928" y="550"/>
      <point x="810" y="492"/>
      <point x="666" y="492" type="curve" smooth="yes"/>
      <point x="622" y="492"/>
      <point x="574" y="492"/>
      <point x="522" y="502" type="curve"/>
      <point x="522" y="240" type="line"/>
      <point x="560" y="236"/>
      <point x="642" y="230"/>
    </contour>
    <contour>
      <point x="160" y="0" type="line"/>
      <point x="534" y="0" type="line"/>
      <point x="534" y="1486" type="line"/>
      <point x="160" y="1486" type="line"/>
    </contour>
  </outline>
</glyph>
<glyph name="eth" format="2">
  <advance width="1290"/>
  <unicode hex="00F0"/>
  <outline>
    <contour>
      <point x="648" y="-26" type="curve" smooth="yes"/>
      <point x="956" y="-26"/>
      <point x="1224" y="174"/>
      <point x="1224" y="650" type="curve" smooth="yes"/>
      <point x="1224" y="1038"/>
      <point x="1004" y="1422"/>
      <point x="656" y="1606" type="curve" smooth="yes"/>
      <point x="638" y="1616"/>
      <point x="588" y="1640"/>
      <point x="570" y="1650" type="curve" smooth="yes"/>
      <point x="472" y="1706"/>
      <point x="396" y="1730"/>
      <point x="270" y="1766" type="curve"/>
      <point x="212" y="1580" type="line"/>
      <point x="296" y="1554"/>
      <point x="378" y="1508"/>
      <point x="446" y="1462" type="curve" smooth="yes"/>
      <point x="462" y="1452"/>
      <point x="498" y="1424"/>
      <point x="512" y="1416" type="curve" smooth="yes"/>
      <point x="664" y="1314"/>
      <point x="782" y="1172"/>
      <point x="818" y="998" type="curve"/>
      <point x="902" y="968" type="line"/>
      <point x="872" y="1038"/>
      <point x="778" y="1122"/>
      <point x="602" y="1122" type="curve" smooth="yes"/>
      <point x="270" y="1122"/>
      <point x="82" y="872"/>
      <point x="82" y="538" type="curve" smooth="yes"/>
      <point x="82" y="204"/>
      <point x="302" y="-26"/>
    </contour>
    <contour>
      <point x="652" y="224" type="curve" smooth="yes"/>
      <point x="542" y="224"/>
      <point x="462" y="316"/>
      <point x="462" y="524" type="curve" smooth="yes"/>
      <point x="462" y="766"/>
      <point x="540" y="890"/>
      <point x="662" y="890" type="curve" smooth="yes"/>
      <point x="748" y="890"/>
      <point x="822" y="846"/>
      <point x="850" y="802" type="curve"/>
      <point x="854" y="752"/>
      <point x="854" y="632"/>
      <point x="854" y="578" type="curve" smooth="yes"/>
      <point x="854" y="332"/>
      <point x="758" y="224"/>
    </contour>
    <contour>
      <point x="452" y="1216" type="line"/>
      <point x="626" y="1452" type="line"/>
      <point x="650" y="1488" type="line"/>
      <point x="700" y="1538"/>
      <point x="836" y="1720"/>
      <point x="836" y="1720" type="curve"/>
      <point x="672" y="1834" type="line"/>
      <point x="672" y="1834"/>
      <point x="528" y="1626"/>
      <point x="486" y="1582" type="curve"/>
      <point x="464" y="1550" type="line"/>
      <point x="292" y="1328" type="line"/>
    </contour>
  </outline>
</glyph>
<glyph name="oslash" format="2">
  <advance width="1304"/>
  <unicode hex="00F8"/>
  <anchor x="644" y="1660" name="top"/>
  <outline>
    <contour>
      <point x="306" y="-204" type="line"/>
      <point x="434" y="-228" type="line"/>
      <point x="998" y="1324" type="line"/>
      <point x="868" y="1352" type="line"/>
    </contour>
    <contour>
      <point x="640" y="-16" type="curve" smooth="yes"/>
      <point x="974" y="-16"/>
      <point x="1210" y="176"/>
      <point x="1214" y="534" type="curve" smooth="yes"/>
      <point x="1220" y="854"/>
      <point x="1072" y="1128"/>
      <point x="660" y="1128" type="curve" smooth="yes"/>
      <point x="326" y="1128"/>
      <point x="90" y="936"/>
      <point x="84" y="580" type="curve"/>
      <point x="80" y="260"/>
      <point x="228" y="-16"/>
    </contour>
    <contour>
      <point x="648" y="234" type="curve" smooth="yes"/>
      <point x="506" y="234"/>
      <point x="448" y="384"/>
      <point x="448" y="568" type="curve" smooth="yes"/>
      <point x="448" y="770"/>
      <point x="508" y="878"/>
      <point x="654" y="878" type="curve"/>
      <point x="794" y="878"/>
      <point x="852" y="730"/>
      <point x="852" y="550" type="curve" smooth="yes"/>
      <point x="852" y="338"/>
      <point x="790" y="234"/>
    </contour>
  </outline>
</glyph>
<glyph name="thorn" format="2">
  <advance width="1324"/>
  <unicode hex="00FE"/>
  <anchor x="674" y="0" name="bottom"/>
  <anchor x="674" y="1114" name="top"/>
  <outline>
    <contour>
      <point x="156" y="62" type="line"/>
      <point x="156" y="-496" type="line"/>
      <point x="520" y="-496" type="line"/>
      <point x="520" y="-166" type="line"/>
      <point x="516" y="10" type="line"/>
    </contour>
    <component base="b"/>
  </outline>
</glyph>
<glyph name="Aogonek" format="2">
  <advance width="1426"/>
  <unicode hex="0104"/>
  <outline>
    <contour>
      <point x="914" y="-300" type="curve"/>
      <point x="918" y="-428"/>
      <point x="1046" y="-504"/>
      <point x="1188" y="-504" type="curve" smooth="yes"/>
      <point x="1298" y="-504"/>
      <point x="1376" y="-480"/>
      <point x="1440" y="-438" type="curve"/>
      <point x="1440" y="-272" type="line"/>
      <point x="1404" y="-284"/>
      <point x="1368" y="-292"/>
      <point x="1334" y="-292" type="curve" smooth="yes"/>
      <point x="1264" y="-292"/>
      <point x="1216" y="-270"/>
      <point x="1212" y="-206" type="curve"/>
      <point x="1206" y="-114"/>
      <point x="1294" y="-44"/>
      <point x="1394" y="8" type="curve"/>
      <point x="1302" y="58" type="line"/>
      <point x="1146" y="0" type="line"/>
      <point x="1032" y="-56"/>
      <point x="910" y="-158"/>
    </contour>
    <component base="A"/>
  </outline>
</glyph>
<glyph name="Dcroat" format="2">
  <advance width="1524"/>
  <unicode hex="0110"/>
  <outline>
    <contour>
      <point x="58" y="660" type="line"/>
      <point x="830" y="660" type="line"/>
      <point x="830" y="892" type="line"/>
      <point x="58" y="892" type="line"/>
    </contour>
    <component base="D"/>
  </outline>
</glyph>
<glyph name="dcroat" format="2">
  <advance width="1348"/>
  <unicode hex="0111"/>
  <outline>
    <contour>
      <point x="620" y="1262" type="line"/>
      <point x="1318" y="1262" type="line"/>
      <point x="1318" y="1458" type="line"/>
      <point x="620" y="1458" type="line"/>
    </contour>
    <component base="d"/>
  </outline>
</glyph>
<glyph name="Hbar" format="2">
  <advance width="1604"/>
  <unicode hex="0126"/>
  <outline>
    <contour>
      <point x="168" y="0" type="line"/>
      <point x="544" y="0" type="line"/>
      <point x="544" y="560" type="line"/>
      <point x="1060" y="560" type="line"/>
      <point x="1060" y="0" type="line"/>
      <point x="1436" y="0" type="line"/>
      <point x="1436" y="1486" type="line"/>
      <point x="1060" y="1486" type="line"/>
      <point x="1060" y="820" type="line"/>
      <point x="544" y="820" type="line"/>
      <point x="544" y="1486" type="line"/>
      <point x="168" y="1486" type="line"/>
    </contour>
    <contour>
      <point x="28" y="1010" type="line"/>
      <point x="1580" y="1010" type="line"/>
      <point x="1580" y="1226" type="line"/>
      <point x="28" y="1226" type="line"/>
    </contour>
  </outline>
</glyph>
<glyph name="idotless" format="2">
  <advance width="658"/>
  <unicode hex="0131"/>
  <anchor x="330" y="0" name="bottom"/>
  <anchor x="328" y="-166" name="btm"/>
  <anchor x="510" y="0" name="ogonek"/>
  <anchor x="328" y="1660" name="top"/>
  <outline>
    <contour>
      <point x="148" y="0" type="line"/>
      <point x="510" y="0" type="line"/>
      <point x="510" y="1114" type="line"/>
      <point x="148" y="1114" type="line"/>
    </contour>
  </outline>
</glyph>
<glyph name="kgreenlandic" format="2">
  <advance width="1252"/>
  <unicode hex="0138"/>
  <anchor x="626" y="0" name="bottom"/>
  <anchor x="626" y="1114" name="top"/>
  <outline>
    <contour>
      <point x="1246" y="1114" type="line"/>
      <point x="844" y="1114" type="line"/>
      <point x="468" y="602" type="line"/>
      <point x="510" y="580" type="line"/>
      <point x="522" y="810" type="line"/>
      <point x="522" y="1114" type="line"/>
      <point x="160" y="1114" type="line"/>
      <point x="160" y="0" type="line"/>
      <point x="522" y="0" type="line"/>
      <point x="522" y="158" type="line"/>
      <point x="522" y="322" type="line"/>
      <point x="506" y="248" type="line"/>
    </contour>
    <contour>
      <point x="598" y="436" type="line"/>
      <point x="864" y="0" type="line"/>
      <point x="1274" y="0" type="line"/>
      <point x="836" y="700" type="line"/>
    </contour>
  </outline>
</glyph>
<glyph name="Lslash" format="2">
  <advance width="1088"/>
  <unicode hex="0141"/>
  <outline>
    <contour>
      <point x="16" y="734" type="line"/>
      <point x="86" y="544" type="line"/>
      <point x="862" y="828" type="line"/>
      <point x="790" y="1020" type="line"/>
    </contour>
    <component base="L"/>
  </outline>
</glyph>
<glyph name="lslash" format="2">
  <advance width="770"/>
  <unicode hex="0142"/>
  <outline>
    <contour>
      <point x="50" y="654" type="line"/>
      <point x="720" y="898" type="line"/>
      <point x="720" y="1128" type="line"/>
      <point x="50" y="874" type="line"/>
    </contour>
    <component base="l" xOffset="28"/>
  </outline>
</glyph>
<glyph name="Eng" format="2">
  <advance width="1592"/>
  <unicode hex="014A"/>
  <outline>
    <contour>
      <point x="516" y="0" type="line"/>
      <point x="516" y="644" type="line"/>
      <point x="432" y="1280" type="line"/>
      <point x="348" y="1280" type="line"/>
      <point x="574" y="796" type="line"/>
      <point x="1050" y="10" type="line"/>
      <point x="1050" y="-138"/>
      <point x="878" y="-270"/>
      <point x="712" y="-318" type="curve"/>
      <point x="784" y="-458" type="line"/>
      <point x="1084" y="-458"/>
      <point x="1316" y="-294"/>
      <point x="1380" y="-98" type="curve" smooth="yes"/>
      <point x="1422" y="30"/>
      <point x="1422" y="126"/>
      <point x="1422" y="310" type="curve" smooth="yes"/>
      <point x="1422" y="1486" type="line"/>
      <point x="1076" y="1486" type="line"/>
      <point x="1076" y="832" type="line"/>
      <point x="1138" y="270" type="line"/>
      <point x="1208" y="270" type="line"/>
      <point x="1016" y="670" type="line"/>
      <point x="524" y="1486" type="line"/>
      <point x="168" y="1486" type="line"/>
      <point x="168" y="0" type="line"/>
    </contour>
  </outline>
</glyph>
<glyph name="eng" format="2">
  <advance width="1350"/>
  <unicode hex="014B"/>
  <outline>
    <contour>
      <point x="160" y="0" type="line"/>
      <point x="526" y="0" type="line"/>
      <point x="526" y="768" type="line"/>
      <point x="580" y="822"/>
      <point x="664" y="844"/>
      <point x="708" y="844" type="curve" smooth="yes"/>
      <point x="808" y="846"/>
      <point x="836" y="796"/>
      <point x="836" y="634" type="curve" smooth="yes"/>
      <point x="836" y="-26" type="line" smooth="yes"/>
      <point x="836" y="-230"/>
      <point x="802" y="-266"/>
      <point x="716" y="-266" type="curve" smooth="yes"/>
      <point x="682" y="-266"/>
      <point x="628" y="-258"/>
      <point x="608" y="-250" type="curve"/>
      <point x="608" y="-476" type="line"/>
      <point x="656" y="-488"/>
      <point x="728" y="-496"/>
      <point x="830" y="-496" type="curve" smooth="yes"/>
      <point x="1058" y="-496"/>
      <point x="1204" y="-340"/>
      <point x="1204" y="-18" type="curve" smooth="yes"/>
      <point x="1204" y="702" type="line" smooth="yes"/>
      <point x="1202" y="1028"/>
      <point x="1084" y="1136"/>
      <point x="852" y="1130" type="curve"/>
      <point x="714" y="1128"/>
      <point x="574" y="1052"/>
      <point x="502" y="994" type="curve"/>
      <point x="494" y="1112" type="line"/>
      <point x="160" y="1112" type="line"/>
    </contour>
  </outline>
</glyph>
<glyph name="OE" format="2">
  <advance width="2106"/>
  <unicode hex="0152"/>
  <anchor x="1054" y="0" name="bottom"/>
  <anchor x="1040" y="-166" name="btm"/>
  <anchor x="1040" y="1660" name="top"/>
  <outline>
    <contour>
      <point x="94" y="750" type="curve" smooth="yes"/>
      <point x="86" y="298"/>
      <point x="330" y="-18"/>
      <point x="754" y="-16" type="curve" smooth="yes"/>
      <point x="910" y="-14"/>
      <point x="1020" y="32"/>
      <point x="1074" y="88" type="curve"/>
      <point x="1058" y="434" type="line"/>
      <point x="1016" y="304"/>
      <point x="928" y="264"/>
      <point x="790" y="264" type="curve" smooth="yes"/>
      <point x="592" y="264"/>
      <point x="476" y="426"/>
      <point x="476" y="740" type="curve" smooth="yes"/>
      <point x="476" y="1156"/>
      <point x="668" y="1214"/>
      <point x="814" y="1214" type="curve" smooth="yes"/>
      <point x="942" y="1214"/>
      <point x="1018" y="1144"/>
      <point x="1056" y="1058" type="curve"/>
      <point x="1072" y="1408" type="line"/>
      <point x="1020" y="1464"/>
      <point x="928" y="1502"/>
      <point x="792" y="1502" type="curve" smooth="yes"/>
      <point x="410" y="1500"/>
      <point x="104" y="1264"/>
    </contour>
    <contour>
      <point x="1026" y="0" type="line"/>
      <point x="2018" y="0" type="line"/>
      <point x="2018" y="284" type="line"/>
      <point x="1394" y="284" type="line"/>
      <point x="1394" y="626" type="line"/>
      <point x="1818" y="626" type="line"/>
      <point x="1818" y="898" type="line"/>
      <point x="1394" y="898" type="line"/>
      <point x="1394" y="1208" type="line"/>
      <point x="1960" y="1208" type="line"/>
      <point x="1960" y="1486" type="line"/>
      <point x="1026" y="1486" type="line"/>
    </contour>
  </outline>
</glyph>
<glyph name="oe" format="2">
  <advance width="1946"/>
  <unicode hex="0153"/>
  <anchor x="974" y="0" name="bottom"/>
  <anchor x="1042" y="-166" name="btm"/>
  <anchor x="1042" y="1660" name="top"/>
  <outline>
    <contour>
      <point x="1396" y="-16" type="curve" smooth="yes"/>
      <point x="1594" y="-16"/>
      <point x="1758" y="44"/>
      <point x="1832" y="104" type="curve"/>
      <point x="1778" y="300" type="line"/>
      <point x="1724" y="272"/>
      <point x="1586" y="244"/>
      <point x="1482" y="244" type="curve" smooth="yes"/>
      <point x="1306" y="244"/>
      <point x="1206" y="316"/>
      <point x="1202" y="510" type="curve"/>
      <point x="1200" y="808"/>
      <point x="1268" y="896"/>
      <point x="1392" y="896" type="curve" smooth="yes"/>
      <point x="1502" y="896"/>
      <point x="1542" y="814"/>
      <point x="1532" y="652" type="curve"/>
      <point x="1050" y="652" type="line"/>
      <point x="1032" y="476" type="line"/>
      <point x="1854" y="476" type="line"/>
      <point x="1860" y="524"/>
      <point x="1864" y="596"/>
      <point x="1864" y="676" type="curve" smooth="yes"/>
      <point x="1864" y="1034"/>
      <point x="1636" y="1128"/>
      <point x="1400" y="1128" type="curve" smooth="yes"/>
      <point x="1048" y="1128"/>
      <point x="852" y="886"/>
      <point x="852" y="562" type="curve" smooth="yes"/>
      <point x="852" y="200"/>
      <point x="1040" y="-16"/>
    </contour>
    <contour>
      <point x="646" y="234" type="curve" smooth="yes"/>
      <point x="506" y="234"/>
      <point x="462" y="384"/>
      <point x="462" y="568" type="curve" smooth="yes"/>
      <point x="462" y="770"/>
      <point x="506" y="878"/>
      <point x="652" y="878" type="curve"/>
      <point x="792" y="878"/>
      <point x="834" y="730"/>
      <point x="834" y="550" type="curve" smooth="yes"/>
      <point x="834" y="338"/>
      <point x="790" y="234"/>
    </contour>
    <contour>
      <point x="638" y="-16" type="curve" smooth="yes"/>
      <point x="972" y="-16"/>
      <point x="1198" y="176"/>
      <point x="1202" y="534" type="curve" smooth="yes"/>
      <point x="1208" y="854"/>
      <point x="1070" y="1128"/>
      <point x="660" y="1128" type="curve" smooth="yes"/>
      <point x="324" y="1128"/>
      <point x="88" y="936"/>
      <point x="84" y="580" type="curve" smooth="yes"/>
      <point x="80" y="260"/>
      <point x="226" y="-16"/>
    </contour>
  </outline>
</glyph>
<glyph name="Schwa" format="2">
  <advance width="1478"/>
  <unicode hex="018F"/>
  <anchor x="742" y="0" name="bottom"/>
  <anchor x="716" y="-166" name="btm"/>
  <anchor x="708" y="1662" name="top"/>
  <outline>
    <contour>
      <point x="686" y="-16" type="curve" smooth="yes"/>
      <point x="1138" y="-16"/>
      <point x="1394" y="310"/>
      <point x="1394" y="744" type="curve" smooth="yes"/>
      <point x="1394" y="1286"/>
      <point x="1074" y="1502"/>
      <point x="716" y="1504" type="curve" smooth="yes"/>
      <point x="452" y="1506"/>
      <point x="262" y="1414"/>
      <point x="168" y="1346" type="curve"/>
      <point x="240" y="1086" type="line"/>
      <point x="342" y="1156"/>
      <point x="456" y="1210"/>
      <point x="672" y="1210" type="curve" smooth="yes"/>
      <point x="894" y="1210"/>
      <point x="1036" y="1042"/>
      <point x="1036" y="762" type="curve" smooth="yes"/>
      <point x="1036" y="474"/>
      <point x="920" y="262"/>
      <point x="708" y="262" type="curve" smooth="yes"/>
      <point x="514" y="262"/>
      <point x="424" y="406"/>
      <point x="436" y="626" type="curve"/>
      <point x="1136" y="626" type="line"/>
      <point x="1162" y="866" type="line"/>
      <point x="98" y="866" type="line"/>
      <point x="90" y="804"/>
      <point x="84" y="764"/>
      <point x="84" y="656" type="curve" smooth="yes"/>
      <point x="84" y="174"/>
      <point x="384" y="-16"/>
    </contour>
  </outline>
</glyph>
<glyph name="florin" format="2">
  <advance width="1216"/>
  <unicode hex="0192"/>
  <outline>
    <contour>
      <point x="244" y="-348" type="line"/>
      <point x="610" y="-348" type="line"/>
      <point x="718" y="872" type="line"/>
      <point x="972" y="872" type="line"/>
      <point x="992" y="1114" type="line"/>
      <point x="738" y="1114" type="line"/>
      <point x="746" y="1174" type="line" smooth="yes"/>
      <point x="760" y="1318"/>
      <point x="828" y="1388"/>
      <point x="926" y="1388" type="curve" smooth="yes"/>
      <point x="1000" y="1388"/>
      <point x="1052" y="1378"/>
      <point x="1076" y="1362" type="curve"/>
      <point x="1096" y="1622" type="line"/>
      <point x="1074" y="1630"/>
      <point x="984" y="1644"/>
      <point x="896" y="1644" type="curve" smooth="yes"/>
      <point x="662" y="1644"/>
      <point x="412" y="1544"/>
      <point x="380" y="1208" type="curve" smooth="yes"/>
      <point x="372" y="1114" type="line"/>
      <point x="216" y="1082" type="line"/>
      <point x="198" y="872" type="line"/>
      <point x="352" y="872" type="line"/>
    </contour>
  </outline>
</glyph>
<glyph name="Ezh" format="2">
  <advance width="1208"/>
  <unicode hex="01B7"/>
  <anchor x="612" y="0" name="bottom"/>
  <anchor x="610" y="1660" name="top"/>
  <outline>
    <contour>
      <point x="440" y="-22" type="curve" smooth="yes"/>
      <point x="866" y="-22"/>
      <point x="1138" y="188"/>
      <point x="1136" y="432" type="curve" smooth="yes"/>
      <point x="1138" y="668"/>
      <point x="956" y="836"/>
      <point x="666" y="836" type="curve"/>
      <point x="1060" y="1208" type="line"/>
      <point x="1056" y="1486" type="line"/>
      <point x="112" y="1486" type="line"/>
      <point x="110" y="1208" type="line"/>
      <point x="692" y="1208" type="line"/>
      <point x="610" y="1146" type="line"/>
      <point x="322" y="866" type="line"/>
      <point x="324" y="582" type="line"/>
      <point x="374" y="640"/>
      <point x="456" y="672"/>
      <point x="532" y="670" type="curve" smooth="yes"/>
      <point x="634" y="668"/>
      <point x="728" y="606"/>
      <point x="728" y="468" type="curve" smooth="yes"/>
      <point x="728" y="322"/>
      <point x="610" y="236"/>
      <point x="344" y="236" type="curve" smooth="yes"/>
      <point x="300" y="236"/>
      <point x="186" y="246"/>
      <point x="110" y="270" type="curve"/>
      <point x="112" y="28" type="line"/>
      <point x="186" y="8"/>
      <point x="298" y="-22"/>
    </contour>
  </outline>
</glyph>
<glyph name="jdotless" format="2">
  <advance width="662"/>
  <unicode hex="0237"/>
  <anchor x="332" y="-546" name="bottom"/>
  <anchor x="342" y="1662" name="top"/>
  <outline>
    <contour>
      <point x="-102" y="-470" type="line"/>
      <point x="-72" y="-480"/>
      <point x="24" y="-496"/>
      <point x="90" y="-496" type="curve" smooth="yes"/>
      <point x="354" y="-496"/>
      <point x="518" y="-356"/>
      <point x="518" y="80" type="curve" smooth="yes"/>
      <point x="518" y="1114" type="line"/>
      <point x="164" y="1114" type="line"/>
      <point x="164" y="2" type="line" smooth="yes"/>
      <point x="164" y="-202"/>
      <point x="118" y="-262"/>
      <point x="30" y="-262" type="curve" smooth="yes"/>
      <point x="-20" y="-262"/>
      <point x="-86" y="-250"/>
      <point x="-102" y="-242" type="curve"/>
    </contour>
  </outline>
</glyph>
<glyph name="schwa" format="2">
  <advance width="1192"/>
  <unicode hex="0259"/>
  <anchor x="554" y="-547" name="bottom"/>
  <anchor x="558" y="-166" name="btm"/>
  <anchor x="560" y="1662" name="top"/>
  <outline>
    <contour>
      <point x="554" y="1130" type="curve" smooth="yes"/>
      <point x="356" y="1130"/>
      <point x="188" y="1070"/>
      <point x="114" y="1010" type="curve"/>
      <point x="170" y="818" type="line"/>
      <point x="224" y="846"/>
      <point x="362" y="874"/>
      <point x="470" y="874" type="curve" smooth="yes"/>
      <point x="644" y="874"/>
      <point x="746" y="798"/>
      <point x="750" y="604" type="curve" smooth="yes"/>
      <point x="754" y="306"/>
      <point x="684" y="218"/>
      <point x="558" y="218" type="curve" smooth="yes"/>
      <point x="448" y="218"/>
      <point x="408" y="300"/>
      <point x="418" y="462" type="curve"/>
      <point x="902" y="462" type="line"/>
      <point x="922" y="642" type="line"/>
      <point x="94" y="642" type="line"/>
      <point x="88" y="594"/>
      <point x="82" y="518"/>
      <point x="82" y="438" type="curve" smooth="yes"/>
      <point x="86" y="80"/>
      <point x="314" y="-14"/>
      <point x="550" y="-14" type="curve" smooth="yes"/>
      <point x="904" y="-14"/>
      <point x="1108" y="228"/>
      <point x="1108" y="552" type="curve" smooth="yes"/>
      <point x="1108" y="914"/>
      <point x="914" y="1130"/>
    </contour>
  </outline>
</glyph>
<glyph name="ringhalfright" format="2">
  <advance width="430"/>
  <unicode hex="02BE"/>
  <outline>
    <contour>
      <point x="50" y="1266" type="line"/>
      <point x="268" y="1266"/>
      <point x="408" y="1376"/>
      <point x="404" y="1572" type="curve" smooth="yes"/>
      <point x="400" y="1782"/>
      <point x="224" y="1860"/>
      <point x="50" y="1862" type="curve"/>
      <point x="50" y="1702" type="line"/>
      <point x="148" y="1702"/>
      <point x="204" y="1644"/>
      <point x="204" y="1570" type="curve" smooth="yes"/>
      <point x="204" y="1488"/>
      <point x="140" y="1430"/>
      <point x="50" y="1430" type="curve"/>
    </contour>
  </outline>
</glyph>
<glyph name="ringhalfleft" format="2">
  <advance width="430"/>
  <unicode hex="02BF"/>
  <outline>
    <contour>
      <point x="380" y="1266" type="curve"/>
      <point x="380" y="1430" type="line"/>
      <point x="290" y="1430"/>
      <point x="226" y="1488"/>
      <point x="226" y="1570" type="curve" smooth="yes"/>
      <point x="226" y="1644"/>
      <point x="282" y="1702"/>
      <point x="380" y="1702" type="curve"/>
      <point x="380" y="1862" type="line"/>
      <point x="206" y="1860"/>
      <point x="30" y="1782"/>
      <point x="26" y="1572" type="curve" smooth="yes"/>
      <point x="22" y="1376"/>
      <point x="162" y="1266"/>
    </contour>
  </outline>
</glyph>
<glyph name="circumflex" format="2">
  <advance width="874"/>
  <unicode hex="02C6"/>
  <outline>
    <contour>
      <point x="202" y="1220" type="line"/>
      <point x="436" y="1442" type="line"/>
      <point x="670" y="1220" type="line"/>
      <point x="842" y="1332" type="line"/>
      <point x="546" y="1692" type="line"/>
      <point x="328" y="1692" type="line"/>
      <point x="30" y="1332" type="line"/>
    </contour>
  </outline>
</glyph>
<glyph name="verticallinemod" format="2">
  <unicode hex="02C8"/>
  <outline>
    <contour>
      <point x="168" y="2098" type="line"/>
      <point x="-168" y="2098" type="line"/>
      <point x="-114" y="1216" type="line"/>
      <point x="112" y="1216" type="line"/>
    </contour>
  </outline>
</glyph>
<glyph name="firsttonechinese" format="2">
  <advance width="684"/>
  <unicode hex="02C9"/>
  <outline>
    <contour>
      <point x="40" y="1680" type="line"/>
      <point x="644" y="1680" type="line"/>
      <point x="644" y="1920" type="line"/>
      <point x="40" y="1920" type="line"/>
    </contour>
  </outline>
</glyph>
<glyph name="verticallinelowmod" format="2">
  <unicode hex="02CC"/>
  <outline>
    <contour>
      <point x="168" y="190" type="line"/>
      <point x="-168" y="190" type="line"/>
      <point x="-114" y="-692" type="line"/>
      <point x="112" y="-692" type="line"/>
    </contour>
  </outline>
</glyph>
<glyph name="breve" format="2">
  <unicode hex="02D8"/>
  <outline>
    <contour>
      <point x="404" y="1256" type="curve" smooth="yes"/>
      <point x="640" y="1256"/>
      <point x="782" y="1422"/>
      <point x="780" y="1648" type="curve"/>
      <point x="560" y="1648" type="line"/>
      <point x="552" y="1602"/>
      <point x="540" y="1494"/>
      <point x="404" y="1494" type="curve" smooth="yes"/>
      <point x="264" y="1494"/>
      <point x="254" y="1602"/>
      <point x="250" y="1648" type="curve"/>
      <point x="28" y="1648" type="line"/>
      <point x="24" y="1422"/>
      <point x="156" y="1256"/>
    </contour>
  </outline>
</glyph>
<glyph name="dotaccent" format="2">
  <advance width="520"/>
  <unicode hex="02D9"/>
  <outline>
    <contour>
      <point x="252" y="1250" type="curve" smooth="yes"/>
      <point x="372" y="1250"/>
      <point x="468" y="1342"/>
      <point x="468" y="1452" type="curve" smooth="yes"/>
      <point x="468" y="1562"/>
      <point x="388" y="1638"/>
      <point x="270" y="1638" type="curve" smooth="yes"/>
      <point x="152" y="1638"/>
      <point x="52" y="1546"/>
      <point x="52" y="1436" type="curve" smooth="yes"/>
      <point x="52" y="1328"/>
      <point x="136" y="1250"/>
    </contour>
  </outline>
</glyph>
<glyph name="ring" format="2">
  <advance width="760"/>
  <unicode hex="02DA"/>
  <outline>
    <contour>
      <point x="376" y="1266" type="curve" smooth="yes"/>
      <point x="560" y="1266"/>
      <point x="734" y="1354"/>
      <point x="736" y="1566" type="curve" smooth="yes"/>
      <point x="736" y="1758"/>
      <point x="602" y="1862"/>
      <point x="386" y="1862" type="curve" smooth="yes"/>
      <point x="212" y="1862"/>
      <point x="30" y="1784"/>
      <point x="26" y="1572" type="curve" smooth="yes"/>
      <point x="22" y="1384"/>
      <point x="154" y="1266"/>
    </contour>
    <contour>
      <point x="380" y="1430" type="curve" smooth="yes"/>
      <point x="290" y="1430"/>
      <point x="226" y="1488"/>
      <point x="226" y="1570" type="curve" smooth="yes"/>
      <point x="226" y="1670"/>
      <point x="298" y="1704"/>
      <point x="380" y="1702" type="curve" smooth="yes"/>
      <point x="470" y="1702"/>
      <point x="536" y="1650"/>
      <point x="536" y="1562" type="curve" smooth="yes"/>
      <point x="536" y="1460"/>
      <point x="474" y="1430"/>
    </contour>
  </outline>
</glyph>
<glyph name="ogonek" format="2">
  <advance width="634"/>
  <unicode hex="02DB"/>
  <outline>
    <contour>
      <point x="320" y="-506" type="curve" smooth="yes"/>
      <point x="412" y="-506"/>
      <point x="498" y="-482"/>
      <point x="552" y="-440" type="curve"/>
      <point x="550" y="-296" type="line"/>
      <point x="512" y="-304"/>
      <point x="468" y="-310"/>
      <point x="430" y="-310" type="curve" smooth="yes"/>
      <point x="364" y="-310"/>
      <point x="320" y="-292"/>
      <point x="316" y="-242" type="curve" smooth="yes"/>
      <point x="306" y="-128"/>
      <point x="424" y="-44"/>
      <point x="538" y="28" type="curve"/>
      <point x="408" y="8" type="line"/>
      <point x="280" y="-10" type="line"/>
      <point x="184" y="-66"/>
      <point x="48" y="-170"/>
      <point x="62" y="-336" type="curve" smooth="yes"/>
      <point x="70" y="-454"/>
      <point x="194" y="-506"/>
    </contour>
  </outline>
</glyph>
<glyph name="tilde" format="2">
  <advance width="912"/>
  <unicode hex="02DC"/>
  <outline>
    <contour>
      <point x="138" y="1302" type="line"/>
      <point x="170" y="1346"/>
      <point x="232" y="1400"/>
      <point x="296" y="1400" type="curve" smooth="yes"/>
      <point x="412" y="1400"/>
      <point x="430" y="1270"/>
      <point x="610" y="1270" type="curve" smooth="yes"/>
      <point x="768" y="1270"/>
      <point x="876" y="1386"/>
      <point x="906" y="1500" type="curve"/>
      <point x="782" y="1632" type="line"/>
      <point x="750" y="1588"/>
      <point x="688" y="1530"/>
      <point x="620" y="1530" type="curve" smooth="yes"/>
      <point x="512" y="1530"/>
      <point x="506" y="1658"/>
      <point x="312" y="1658" type="curve" smooth="yes"/>
      <point x="150" y="1658"/>
      <point x="38" y="1544"/>
      <point x="8" y="1432" type="curve"/>
    </contour>
  </outline>
</glyph>
<glyph name="hungarumlaut" format="2">
  <advance width="1016"/>
  <unicode hex="02DD"/>
  <outline>
    <contour>
      <point x="166" y="1250" type="line"/>
      <point x="262" y="1304"/>
      <point x="464" y="1522"/>
      <point x="530" y="1650" type="curve"/>
      <point x="320" y="1794" type="line"/>
      <point x="26" y="1352" type="line"/>
    </contour>
    <contour>
      <point x="672" y="1250" type="line"/>
      <point x="768" y="1298"/>
      <point x="978" y="1520"/>
      <point x="1042" y="1644" type="curve"/>
      <point x="832" y="1788" type="line"/>
      <point x="536" y="1352" type="line"/>
    </contour>
  </outline>
</glyph>
<glyph name="gravecomb" format="2">
  <unicode hex="0300"/>
  <anchor x="0" y="1662" name="_top"/>
  <anchor x="-158" y="1782" name="top"/>
  <outline>
    <contour>
      <point x="98" y="1348" type="line"/>
      <point x="-2" y="1440"/>
      <point x="-154" y="1646"/>
      <point x="-236" y="1782" type="curve"/>
      <point x="-444" y="1598" type="line"/>
      <point x="-376" y="1446"/>
      <point x="-126" y="1238"/>
      <point x="-36" y="1194" type="curve"/>
    </contour>
  </outline>
</glyph>
<glyph name="tildecomb" format="2">
  <unicode hex="0303"/>
  <anchor x="0" y="1660" name="_top"/>
  <anchor x="0" y="2078" name="top"/>
  <outline>
    <contour>
      <point x="140" y="1272" type="curve" smooth="yes"/>
      <point x="268" y="1272"/>
      <point x="404" y="1390"/>
      <point x="404" y="1558" type="curve"/>
      <point x="270" y="1604" type="line"/>
      <point x="238" y="1518"/>
      <point x="198" y="1496"/>
      <point x="148" y="1496" type="curve" smooth="yes"/>
      <point x="58" y="1496"/>
      <point x="0" y="1642"/>
      <point x="-148" y="1642" type="curve" smooth="yes"/>
      <point x="-276" y="1642"/>
      <point x="-412" y="1524"/>
      <point x="-412" y="1356" type="curve"/>
      <point x="-278" y="1310" type="line"/>
      <point x="-246" y="1390"/>
      <point x="-212" y="1418"/>
      <point x="-156" y="1418" type="curve" smooth="yes"/>
      <point x="-62" y="1418"/>
      <point x="-8" y="1272"/>
    </contour>
  </outline>
</glyph>
<glyph name="macroncomb" format="2">
  <unicode hex="0304"/>
  <anchor x="0" y="1662" name="_top"/>
  <anchor x="0" y="2088" name="top"/>
  <outline>
    <contour>
      <point x="-302" y="1320" type="line"/>
      <point x="302" y="1320" type="line"/>
      <point x="302" y="1552" type="line"/>
      <point x="-302" y="1552" type="line"/>
    </contour>
  </outline>
</glyph>
<glyph name="brevecomb" format="2">
  <unicode hex="0306"/>
  <anchor x="0" y="1662" name="_top"/>
  <anchor x="0" y="1966" name="top"/>
  <outline>
    <contour>
      <point x="0" y="1256" type="curve" smooth="yes"/>
      <point x="236" y="1256"/>
      <point x="378" y="1422"/>
      <point x="376" y="1648" type="curve"/>
      <point x="156" y="1648" type="line"/>
      <point x="148" y="1602"/>
      <point x="136" y="1494"/>
      <point x="0" y="1494" type="curve" smooth="yes"/>
      <point x="-140" y="1494"/>
      <point x="-150" y="1602"/>
      <point x="-154" y="1648" type="curve"/>
      <point x="-376" y="1648" type="line"/>
      <point x="-380" y="1422"/>
      <point x="-248" y="1256"/>
    </contour>
  </outline>
</glyph>
<glyph name="dotaccentcomb" format="2">
  <unicode hex="0307"/>
  <anchor x="0" y="1662" name="_top"/>
  <anchor x="0" y="2084" name="top"/>
  <outline>
    <contour>
      <point x="-8" y="1270" type="curve" smooth="yes"/>
      <point x="112" y="1270"/>
      <point x="208" y="1362"/>
      <point x="208" y="1472" type="curve" smooth="yes"/>
      <point x="208" y="1582"/>
      <point x="128" y="1658"/>
      <point x="10" y="1658" type="curve" smooth="yes"/>
      <point x="-108" y="1658"/>
      <point x="-208" y="1566"/>
      <point x="-208" y="1456" type="curve" smooth="yes"/>
      <point x="-208" y="1348"/>
      <point x="-124" y="1270"/>
    </contour>
  </outline>
</glyph>
<glyph name="dieresiscomb" format="2">
  <unicode hex="0308"/>
  <anchor x="0" y="1660" name="_top"/>
  <anchor x="0" y="2100" name="top"/>
  <outline>
    <contour>
      <point x="-258" y="1272" type="curve" smooth="yes"/>
      <point x="-146" y="1272"/>
      <point x="-60" y="1364"/>
      <point x="-60" y="1474" type="curve" smooth="yes"/>
      <point x="-60" y="1582"/>
      <point x="-128" y="1658"/>
      <point x="-242" y="1658" type="curve" smooth="yes"/>
      <point x="-352" y="1658"/>
      <point x="-444" y="1566"/>
      <point x="-444" y="1458" type="curve" smooth="yes"/>
      <point x="-444" y="1350"/>
      <point x="-370" y="1272"/>
    </contour>
    <contour>
      <point x="246" y="1272" type="curve" smooth="yes"/>
      <point x="360" y="1272"/>
      <point x="446" y="1364"/>
      <point x="446" y="1474" type="curve" smooth="yes"/>
      <point x="446" y="1582"/>
      <point x="376" y="1658"/>
      <point x="264" y="1658" type="curve" smooth="yes"/>
      <point x="152" y="1658"/>
      <point x="62" y="1566"/>
      <point x="62" y="1458" type="curve" smooth="yes"/>
      <point x="62" y="1350"/>
      <point x="136" y="1272"/>
    </contour>
  </outline>
</glyph>
<glyph name="hookabovecomb" format="2">
  <unicode hex="0309"/>
  <anchor x="0" y="1660" name="_top"/>
  <anchor x="0" y="1966" name="top"/>
  <outline>
    <contour>
      <point x="-92" y="1276" type="curve"/>
      <point x="92" y="1276" type="line"/>
      <point x="78" y="1334"/>
      <point x="94" y="1386"/>
      <point x="132" y="1416" type="curve" smooth="yes"/>
      <point x="182" y="1454"/>
      <point x="236" y="1516"/>
      <point x="236" y="1602" type="curve" smooth="yes"/>
      <point x="236" y="1708"/>
      <point x="140" y="1788"/>
      <point x="-20" y="1788" type="curve" smooth="yes"/>
      <point x="-112" y="1788"/>
      <point x="-204" y="1770"/>
      <point x="-248" y="1748" type="curve"/>
      <point x="-244" y="1580" type="line"/>
      <point x="-220" y="1598"/>
      <point x="-172" y="1616"/>
      <point x="-122" y="1616" type="curve" smooth="yes"/>
      <point x="-42" y="1616"/>
      <point x="-20" y="1582"/>
      <point x="-20" y="1542" type="curve" smooth="yes"/>
      <point x="-20" y="1466"/>
      <point x="-118" y="1448"/>
      <point x="-118" y="1364" type="curve" smooth="yes"/>
      <point x="-118" y="1324"/>
      <point x="-108" y="1304"/>
    </contour>
  </outline>
</glyph>
<glyph name="ringcomb" format="2">
  <unicode hex="030A"/>
  <anchor x="0" y="1660" name="_top"/>
  <anchor x="226" y="2074" name="top"/>
  <outline>
    <contour>
      <point x="-4" y="1266" type="curve" smooth="yes"/>
      <point x="180" y="1266"/>
      <point x="352" y="1354"/>
      <point x="354" y="1566" type="curve" smooth="yes"/>
      <point x="356" y="1758"/>
      <point x="222" y="1862"/>
      <point x="6" y="1862" type="curve" smooth="yes"/>
      <point x="-168" y="1862"/>
      <point x="-350" y="1784"/>
      <point x="-354" y="1572" type="curve" smooth="yes"/>
      <point x="-358" y="1384"/>
      <point x="-226" y="1266"/>
    </contour>
    <contour>
      <point x="0" y="1430" type="curve" smooth="yes"/>
      <point x="-90" y="1430"/>
      <point x="-154" y="1488"/>
      <point x="-154" y="1570" type="curve" smooth="yes"/>
      <point x="-154" y="1670"/>
      <point x="-82" y="1704"/>
      <point x="0" y="1702" type="curve" smooth="yes"/>
      <point x="90" y="1700"/>
      <point x="154" y="1650"/>
      <point x="154" y="1562" type="curve" smooth="yes"/>
      <point x="154" y="1460"/>
      <point x="94" y="1430"/>
    </contour>
  </outline>
</glyph>
<glyph name="hungarumlautcomb" format="2">
  <unicode hex="030B"/>
  <anchor x="0" y="1654" name="_top"/>
  <anchor x="126" y="1794" name="top"/>
  <outline>
    <contour>
      <point x="-242" y="1250" type="line"/>
      <point x="-146" y="1304"/>
      <point x="56" y="1522"/>
      <point x="122" y="1650" type="curve"/>
      <point x="-88" y="1794" type="line"/>
      <point x="-106" y="1768"/>
      <point x="-308" y="1452"/>
      <point x="-382" y="1352" type="curve"/>
    </contour>
    <contour>
      <point x="264" y="1250" type="line"/>
      <point x="360" y="1298"/>
      <point x="570" y="1520"/>
      <point x="634" y="1644" type="curve"/>
      <point x="424" y="1788" type="line"/>
      <point x="404" y="1760"/>
      <point x="184" y="1428"/>
      <point x="128" y="1352" type="curve"/>
    </contour>
  </outline>
</glyph>
<glyph name="caroncomb" format="2">
  <unicode hex="030C"/>
  <anchor x="0" y="1660" name="_top"/>
  <anchor x="0" y="2092" name="top"/>
  <outline>
    <contour>
      <point x="-410" y="1622" type="line"/>
      <point x="-112" y="1260" type="line"/>
      <point x="106" y="1260" type="line"/>
      <point x="402" y="1620" type="line"/>
      <point x="230" y="1732" type="line"/>
      <point x="-4" y="1510" type="line"/>
      <point x="-238" y="1732" type="line"/>
    </contour>
  </outline>
</glyph>
<glyph name="dblgravecomb" format="2">
  <unicode hex="030F"/>
  <anchor x="0" y="1654" name="_top"/>
  <anchor x="-116" y="1966" name="top"/>
  <outline>
    <contour>
      <point x="276" y="1250" type="curve"/>
      <point x="416" y="1352" type="line"/>
      <point x="342" y="1452"/>
      <point x="142" y="1768"/>
      <point x="124" y="1794" type="curve"/>
      <point x="-86" y="1650" type="line"/>
      <point x="-20" y="1522"/>
      <point x="182" y="1304"/>
    </contour>
    <contour>
      <point x="-188" y="1250" type="curve"/>
      <point x="-52" y="1352" type="line"/>
      <point x="-110" y="1428"/>
      <point x="-330" y="1760"/>
      <point x="-350" y="1788" type="curve"/>
      <point x="-560" y="1644" type="line"/>
      <point x="-494" y="1520"/>
      <point x="-286" y="1298"/>
    </contour>
  </outline>
</glyph>
<glyph name="commaturnedabovecomb" format="2">
  <unicode hex="0312"/>
  <anchor x="0" y="1674" name="_top"/>
  <anchor x="0" y="1980" name="top"/>
  <outline>
    <contour>
      <point x="-6" y="1268" type="curve" smooth="yes"/>
      <point x="0" y="1268" type="line" smooth="yes"/>
      <point x="72" y="1268"/>
      <point x="174" y="1298"/>
      <point x="174" y="1398" type="curve" smooth="yes"/>
      <point x="174" y="1452"/>
      <point x="148" y="1484"/>
      <point x="126" y="1500" type="curve" smooth="yes"/>
      <point x="110" y="1512"/>
      <point x="90" y="1528"/>
      <point x="90" y="1570" type="curve" smooth="yes"/>
      <point x="90" y="1614"/>
      <point x="106" y="1678"/>
      <point x="132" y="1688" type="curve"/>
      <point x="126" y="1704" type="line"/>
      <point x="6" y="1730" type="line"/>
      <point x="2" y="1730" type="line"/>
      <point x="-54" y="1710"/>
      <point x="-172" y="1574"/>
      <point x="-174" y="1430" type="curve" smooth="yes"/>
      <point x="-176" y="1324"/>
      <point x="-104" y="1268"/>
    </contour>
  </outline>
</glyph>
<glyph name="horncomb" format="2">
  <unicode hex="031B"/>
  <anchor x="-4" y="1114" name="_topright"/>
  <anchor x="210" y="1114" name="topright"/>
  <outline>
    <contour>
      <point x="-26" y="894" type="line"/>
      <point x="288" y="896"/>
      <point x="496" y="1034"/>
      <point x="496" y="1322" type="curve" smooth="yes"/>
      <point x="496" y="1358"/>
      <point x="494" y="1384"/>
      <point x="492" y="1400" type="curve"/>
      <point x="256" y="1400" type="line"/>
      <point x="258" y="1392"/>
      <point x="258" y="1380"/>
      <point x="258" y="1344" type="curve" smooth="yes"/>
      <point x="258" y="1256"/>
      <point x="222" y="1116"/>
      <point x="-26" y="1114" type="curve"/>
    </contour>
  </outline>
</glyph>
<glyph name="dotbelowcomb" format="2">
  <unicode hex="0323"/>
  <anchor x="0" y="0" name="_bottom"/>
  <anchor x="0" y="-166" name="_btm"/>
  <anchor x="0" y="-486" name="bottom"/>
  <outline>
    <contour>
      <point x="-8" y="-534" type="curve" smooth="yes"/>
      <point x="112" y="-534"/>
      <point x="208" y="-442"/>
      <point x="208" y="-332" type="curve" smooth="yes"/>
      <point x="208" y="-222"/>
      <point x="128" y="-146"/>
      <point x="10" y="-146" type="curve" smooth="yes"/>
      <point x="-108" y="-146"/>
      <point x="-208" y="-238"/>
      <point x="-208" y="-348" type="curve" smooth="yes"/>
      <point x="-208" y="-456"/>
      <point x="-124" y="-534"/>
    </contour>
  </outline>
</glyph>
<glyph name="dieresisbelowcomb" format="2">
  <unicode hex="0324"/>
  <anchor x="2" y="0" name="_bottom"/>
  <anchor x="0" y="-166" name="_btm"/>
  <anchor x="0" y="1662" name="_top"/>
  <anchor x="2" y="-472" name="bottom"/>
  <outline>
    <contour>
      <point x="-258" y="-472" type="curve" smooth="yes"/>
      <point x="-146" y="-472"/>
      <point x="-60" y="-380"/>
      <point x="-60" y="-270" type="curve" smooth="yes"/>
      <point x="-60" y="-162"/>
      <point x="-128" y="-86"/>
      <point x="-242" y="-86" type="curve" smooth="yes"/>
      <point x="-352" y="-86"/>
      <point x="-444" y="-178"/>
      <point x="-444" y="-286" type="curve" smooth="yes"/>
      <point x="-444" y="-394"/>
      <point x="-370" y="-472"/>
    </contour>
    <contour>
      <point x="246" y="-472" type="curve" smooth="yes"/>
      <point x="360" y="-472"/>
      <point x="446" y="-380"/>
      <point x="446" y="-270" type="curve" smooth="yes"/>
      <point x="446" y="-162"/>
      <point x="376" y="-86"/>
      <point x="264" y="-86" type="curve" smooth="yes"/>
      <point x="152" y="-86"/>
      <point x="62" y="-178"/>
      <point x="62" y="-286" type="curve" smooth="yes"/>
      <point x="62" y="-394"/>
      <point x="136" y="-472"/>
    </contour>
  </outline>
</glyph>
<glyph name="cedillacomb" format="2">
  <unicode hex="0327"/>
  <anchor x="-46" y="0" name="_bottom"/>
  <anchor x="0" y="-166" name="_btm"/>
  <anchor x="-46" y="-454" name="bottom"/>
  <outline>
    <contour>
      <point x="-350" y="-426" type="line"/>
      <point x="-324" y="-442"/>
      <point x="-222" y="-454"/>
      <point x="-164" y="-454" type="curve" smooth="yes"/>
      <point x="-22" y="-454"/>
      <point x="92" y="-378"/>
      <point x="96" y="-210" type="curve" smooth="yes"/>
      <point x="98" y="-124"/>
      <point x="76" y="-8"/>
      <point x="32" y="30" type="curve"/>
      <point x="-20" y="34" type="line"/>
      <point x="-176" y="30" type="line"/>
      <point x="-158" y="-2"/>
      <point x="-138" y="-38"/>
      <point x="-140" y="-116" type="curve" smooth="yes"/>
      <point x="-142" y="-212"/>
      <point x="-192" y="-262"/>
      <point x="-254" y="-262" type="curve" smooth="yes"/>
      <point x="-286" y="-262"/>
      <point x="-310" y="-260"/>
      <point x="-328" y="-250" type="curve"/>
    </contour>
  </outline>
</glyph>
<glyph name="ogonekcomb" format="2">
  <unicode hex="0328"/>
  <anchor x="-61" y="0" name="_ogonek"/>
  <outline>
    <contour>
      <point x="-236" y="-506" type="curve" smooth="yes"/>
      <point x="-144" y="-506"/>
      <point x="-58" y="-482"/>
      <point x="-4" y="-440" type="curve"/>
      <point x="-6" y="-296" type="line"/>
      <point x="-44" y="-304"/>
      <point x="-88" y="-310"/>
      <point x="-126" y="-310" type="curve" smooth="yes"/>
      <point x="-192" y="-310"/>
      <point x="-236" y="-292"/>
      <point x="-240" y="-242" type="curve" smooth="yes"/>
      <point x="-249" y="-142"/>
      <point x="-160" y="-66"/>
      <point x="-61" y="0" type="curve"/>
      <point x="-204" y="36" type="line"/>
      <point x="-264" y="0" type="line" smooth="yes"/>
      <point x="-367" y="-62"/>
      <point x="-507" y="-179"/>
      <point x="-494" y="-336" type="curve" smooth="yes"/>
      <point x="-486" y="-454"/>
      <point x="-362" y="-506"/>
    </contour>
  </outline>
</glyph>
<glyph name="brevebelowcomb" format="2">
  <unicode hex="032E"/>
  <anchor x="0" y="0" name="_bottom"/>
  <anchor x="0" y="-166" name="_btm"/>
  <anchor x="0" y="-484" name="bottom"/>
  <outline>
    <contour>
      <point x="0" y="-484" type="curve" smooth="yes"/>
      <point x="236" y="-484"/>
      <point x="378" y="-318"/>
      <point x="376" y="-92" type="curve"/>
      <point x="156" y="-92" type="line"/>
      <point x="148" y="-138"/>
      <point x="136" y="-246"/>
      <point x="0" y="-246" type="curve" smooth="yes"/>
      <point x="-140" y="-246"/>
      <point x="-150" y="-138"/>
      <point x="-154" y="-92" type="curve"/>
      <point x="-376" y="-92" type="line"/>
      <point x="-380" y="-318"/>
      <point x="-248" y="-484"/>
    </contour>
  </outline>
</glyph>
<glyph name="macronbelowcomb" format="2">
  <unicode hex="0331"/>
  <anchor x="0" y="0" name="_bottom"/>
  <anchor x="0" y="-166" name="_btm"/>
  <anchor x="0" y="-388" name="bottom"/>
  <outline>
    <contour>
      <point x="-302" y="-388" type="line"/>
      <point x="302" y="-388" type="line"/>
      <point x="302" y="-156" type="line"/>
      <point x="-302" y="-156" type="line"/>
    </contour>
  </outline>
</glyph>
<glyph name="strokeshortcomb" format="2">
  <unicode hex="0335"/>
  <anchor x="0" y="558" name="_center"/>
  <outline>
    <contour>
      <point x="410" y="680" type="line"/>
      <point x="-410" y="680" type="line"/>
      <point x="-410" y="436" type="line"/>
      <point x="410" y="436" type="line"/>
    </contour>
  </outline>
</glyph>
<glyph name="slashlongcomb" format="2">
  <unicode hex="0338"/>
  <anchor x="10" y="704" name="_center"/>
  <outline>
    <contour>
      <point x="260" y="1610" type="line"/>
      <point x="-480" y="-196" type="line"/>
      <point x="-242" y="-204" type="line"/>
      <point x="500" y="1610" type="line"/>
    </contour>
  </outline>
</glyph>
<glyph name="figuredash" format="2">
  <advance width="1218"/>
  <unicode hex="2012"/>
  <outline>
    <contour>
      <point x="180" y="552" type="line"/>
      <point x="1038" y="552" type="line"/>
      <point x="1038" y="822" type="line"/>
      <point x="180" y="822" type="line"/>
    </contour>
  </outline>
</glyph>
<glyph name="emdash" format="2">
  <advance width="2242"/>
  <unicode hex="2014"/>
  <outline>
    <contour>
      <point x="180" y="552" type="line"/>
      <point x="2062" y="552" type="line"/>
      <point x="2062" y="822" type="line"/>
      <point x="180" y="822" type="line"/>
    </contour>
  </outline>
</glyph>
<glyph name="quotereversed" format="2">
  <advance width="610"/>
  <unicode hex="201B"/>
  <outline>
    <contour>
      <point x="296" y="1714" type="line"/>
      <point x="210" y="1684"/>
      <point x="108" y="1548"/>
      <point x="108" y="1350" type="curve" smooth="yes"/>
      <point x="108" y="1076"/>
      <point x="248" y="938"/>
      <point x="306" y="894" type="curve"/>
      <point x="456" y="988" type="line"/>
      <point x="456" y="1016" type="line"/>
      <point x="424" y="1056"/>
      <point x="400" y="1154"/>
      <point x="400" y="1260" type="curve" smooth="yes"/>
      <point x="400" y="1384"/>
      <point x="452" y="1468"/>
      <point x="488" y="1490" type="curve"/>
      <point x="488" y="1566" type="line"/>
    </contour>
  </outline>
</glyph>
<glyph name="dagger" format="2">
  <advance width="1010"/>
  <unicode hex="2020"/>
  <outline>
    <contour>
      <point x="378" y="196" type="line"/>
      <point x="634" y="196" type="line"/>
      <point x="648" y="1016" type="line"/>
      <point x="920" y="1016" type="line"/>
      <point x="920" y="1258" type="line"/>
      <point x="648" y="1256" type="line"/>
      <point x="648" y="1620" type="line"/>
      <point x="362" y="1620" type="line"/>
      <point x="362" y="1256" type="line"/>
      <point x="90" y="1258" type="line"/>
      <point x="90" y="1016" type="line"/>
      <point x="362" y="1016" type="line"/>
    </contour>
  </outline>
</glyph>
<glyph name="daggerdbl" format="2">
  <advance width="1014"/>
  <unicode hex="2021"/>
  <outline>
    <contour>
      <point x="378" y="-348" type="line"/>
      <point x="626" y="-348" type="line"/>
      <point x="646" y="382" type="line"/>
      <point x="924" y="382" type="line"/>
      <point x="924" y="624" type="line"/>
      <point x="646" y="626" type="line"/>
      <point x="646" y="1016" type="line"/>
      <point x="924" y="1016" type="line"/>
      <point x="924" y="1258" type="line"/>
      <point x="646" y="1258" type="line"/>
      <point x="648" y="1620" type="line"/>
      <point x="362" y="1620" type="line"/>
      <point x="362" y="1258" type="line"/>
      <point x="90" y="1258" type="line"/>
      <point x="90" y="1016" type="line"/>
      <point x="362" y="1016" type="line"/>
      <point x="362" y="626" type="line"/>
      <point x="90" y="624" type="line"/>
      <point x="90" y="382" type="line"/>
      <point x="362" y="382" type="line"/>
    </contour>
  </outline>
</glyph>
<glyph name="bullet" format="2">
  <advance width="890"/>
  <unicode hex="2022"/>
  <outline>
    <contour>
      <point x="436" y="430" type="curve" smooth="yes"/>
      <point x="598" y="430"/>
      <point x="732" y="568"/>
      <point x="732" y="724" type="curve" smooth="yes"/>
      <point x="732" y="884"/>
      <point x="620" y="998"/>
      <point x="458" y="998" type="curve" smooth="yes"/>
      <point x="296" y="998"/>
      <point x="158" y="862"/>
      <point x="158" y="704" type="curve" smooth="yes"/>
      <point x="156" y="546"/>
      <point x="274" y="430"/>
    </contour>
  </outline>
</glyph>
<glyph name="ellipsis" format="2">
  <advance width="1948"/>
  <unicode hex="2026"/>
  <outline>
    <contour>
      <point x="320" y="-22" type="curve" smooth="yes"/>
      <point x="442" y="-22"/>
      <point x="536" y="84"/>
      <point x="536" y="202" type="curve" smooth="yes"/>
      <point x="536" y="318"/>
      <point x="458" y="406"/>
      <point x="336" y="406" type="curve" smooth="yes"/>
      <point x="212" y="406"/>
      <point x="118" y="302"/>
      <point x="118" y="184" type="curve" smooth="yes"/>
      <point x="118" y="68"/>
      <point x="200" y="-22"/>
    </contour>
    <contour>
      <point x="966" y="-22" type="curve" smooth="yes"/>
      <point x="1090" y="-22"/>
      <point x="1182" y="84"/>
      <point x="1182" y="202" type="curve" smooth="yes"/>
      <point x="1182" y="318"/>
      <point x="1106" y="406"/>
      <point x="984" y="406" type="curve" smooth="yes"/>
      <point x="860" y="406"/>
      <point x="764" y="302"/>
      <point x="764" y="184" type="curve" smooth="yes"/>
      <point x="766" y="68"/>
      <point x="846" y="-22"/>
    </contour>
    <contour>
      <point x="1614" y="-22" type="curve" smooth="yes"/>
      <point x="1736" y="-22"/>
      <point x="1830" y="84"/>
      <point x="1830" y="202" type="curve" smooth="yes"/>
      <point x="1830" y="318"/>
      <point x="1752" y="406"/>
      <point x="1630" y="406" type="curve" smooth="yes"/>
      <point x="1506" y="406"/>
      <point x="1412" y="302"/>
      <point x="1412" y="184" type="curve" smooth="yes"/>
      <point x="1412" y="68"/>
      <point x="1494" y="-22"/>
    </contour>
  </outline>
</glyph>
<glyph name="perthousand" format="2">
  <advance width="3176"/>
  <unicode hex="2030"/>
  <outline>
    <contour>
      <point x="2632" y="-4" type="curve" smooth="yes"/>
      <point x="2864" y="-2"/>
      <point x="3078" y="162"/>
      <point x="3078" y="460" type="curve" smooth="yes"/>
      <point x="3078" y="714"/>
      <point x="2954" y="918"/>
      <point x="2666" y="916" type="curve" smooth="yes"/>
      <point x="2434" y="916"/>
      <point x="2220" y="752"/>
      <point x="2220" y="454" type="curve" smooth="yes"/>
      <point x="2220" y="200"/>
      <point x="2348" y="-4"/>
    </contour>
    <contour>
      <point x="2646" y="224" type="curve" smooth="yes"/>
      <point x="2552" y="224"/>
      <point x="2496" y="320"/>
      <point x="2496" y="464" type="curve" smooth="yes"/>
      <point x="2496" y="606"/>
      <point x="2552" y="692"/>
      <point x="2650" y="692" type="curve" smooth="yes"/>
      <point x="2746" y="692"/>
      <point x="2800" y="596"/>
      <point x="2800" y="452" type="curve" smooth="yes"/>
      <point x="2800" y="310"/>
      <point x="2746" y="224"/>
    </contour>
    <component base="percent"/>
  </outline>
</glyph>
<glyph name="minute" format="2">
  <advance width="674"/>
  <unicode hex="2032"/>
  <outline>
    <contour>
      <point x="136" y="1162" type="line"/>
      <point x="408" y="1162" type="line"/>
      <point x="588" y="1806" type="line"/>
      <point x="250" y="1806" type="line"/>
    </contour>
  </outline>
</glyph>
<glyph name="guilsinglleft" format="2">
  <advance width="1184"/>
  <unicode hex="2039"/>
  <outline>
    <contour>
      <point x="216" y="462" type="line"/>
      <point x="864" y="54" type="line"/>
      <point x="948" y="302" type="line"/>
      <point x="480" y="664" type="line"/>
      <point x="480" y="538" type="line"/>
      <point x="948" y="900" type="line"/>
      <point x="864" y="1146" type="line"/>
      <point x="216" y="740" type="line"/>
    </contour>
  </outline>
</glyph>
<glyph name="fraction" format="2">
  <advance width="656"/>
  <unicode hex="2044"/>
  <outline>
    <contour>
      <point x="698" y="1916" type="line"/>
      <point x="-280" y="-102" type="line"/>
      <point x="-42" y="-102" type="line"/>
      <point x="936" y="1916" type="line"/>
    </contour>
  </outline>
</glyph>
<glyph name="franc" format="2">
  <advance width="1260"/>
  <unicode hex="20A3"/>
  <outline>
    <contour>
      <point x="248" y="0" type="line"/>
      <point x="600" y="0" type="line"/>
      <point x="600" y="212" type="line"/>
      <point x="862" y="212" type="line"/>
      <point x="862" y="408" type="line"/>
      <point x="600" y="408" type="line"/>
      <point x="600" y="582" type="line"/>
      <point x="1038" y="582" type="line"/>
      <point x="1038" y="842" type="line"/>
      <point x="600" y="842" type="line"/>
      <point x="600" y="1224" type="line"/>
      <point x="1164" y="1224" type="line"/>
      <point x="1164" y="1486" type="line"/>
      <point x="248" y="1486" type="line"/>
      <point x="248" y="408" type="line"/>
      <point x="82" y="408" type="line"/>
      <point x="82" y="212" type="line"/>
      <point x="248" y="212" type="line"/>
    </contour>
  </outline>
</glyph>
<glyph name="lira" format="2">
  <advance width="1634"/>
  <unicode hex="20A4"/>
  <outline>
    <contour>
      <point x="228" y="822" type="line"/>
      <point x="390" y="822" type="line"/>
      <point x="390" y="710" type="line"/>
      <point x="206" y="710" type="line"/>
      <point x="206" y="560" type="line"/>
      <point x="390" y="560" type="line"/>
      <point x="390" y="538" type="line" smooth="yes"/>
      <point x="390" y="442"/>
      <point x="386" y="328"/>
      <point x="358" y="310" type="curve"/>
      <point x="248" y="302"/>
      <point x="100" y="240"/>
      <point x="100" y="122" type="curve" smooth="yes"/>
      <point x="100" y="22"/>
      <point x="192" y="-6"/>
      <point x="266" y="-6" type="curve" smooth="yes"/>
      <point x="342" y="-6"/>
      <point x="440" y="48"/>
      <point x="478" y="82" type="curve"/>
      <point x="588" y="78"/>
      <point x="776" y="-14"/>
      <point x="1072" y="-14" type="curve" smooth="yes"/>
      <point x="1410" y="-14"/>
      <point x="1548" y="140"/>
      <point x="1548" y="344" type="curve" smooth="yes"/>
      <point x="1548" y="508"/>
      <point x="1428" y="604"/>
      <point x="1392" y="628" type="curve"/>
      <point x="1100" y="500" type="line"/>
      <point x="1126" y="488"/>
      <point x="1172" y="432"/>
      <point x="1172" y="372" type="curve" smooth="yes"/>
      <point x="1172" y="290"/>
      <point x="1102" y="234"/>
      <point x="966" y="234" type="curve" smooth="yes"/>
      <point x="872" y="234"/>
      <point x="788" y="264"/>
      <point x="706" y="288" type="curve"/>
      <point x="762" y="338"/>
      <point x="780" y="450"/>
      <point x="784" y="560" type="curve"/>
      <point x="1044" y="560" type="line"/>
      <point x="1044" y="710" type="line"/>
      <point x="784" y="710" type="line"/>
      <point x="784" y="822" type="line"/>
      <point x="1064" y="822" type="line"/>
      <point x="1064" y="972" type="line"/>
      <point x="784" y="972" type="line"/>
      <point x="784" y="986" type="line" smooth="yes"/>
      <point x="784" y="1146"/>
      <point x="854" y="1188"/>
      <point x="990" y="1188" type="curve" smooth="yes"/>
      <point x="1092" y="1188"/>
      <point x="1184" y="1140"/>
      <point x="1218" y="1106" type="curve"/>
      <point x="1374" y="1396" type="line"/>
      <point x="1314" y="1436"/>
      <point x="1204" y="1502"/>
      <point x="984" y="1502" type="curve" smooth="yes"/>
      <point x="612" y="1502"/>
      <point x="390" y="1298"/>
      <point x="390" y="1008" type="curve" smooth="yes"/>
      <point x="390" y="972" type="line"/>
      <point x="228" y="972" type="line"/>
    </contour>
  </outline>
</glyph>
<glyph name="peseta" format="2">
  <advance width="1768"/>
  <unicode hex="20A7"/>
  <outline>
    <contour>
      <point x="360" y="0" type="line"/>
      <point x="734" y="0" type="line"/>
      <point x="734" y="310" type="line"/>
      <point x="766" y="310"/>
      <point x="808" y="308"/>
      <point x="886" y="308" type="curve" smooth="yes"/>
      <point x="1282" y="308"/>
      <point x="1496" y="546"/>
      <point x="1496" y="918" type="curve" smooth="yes"/>
      <point x="1496" y="1304"/>
      <point x="1302" y="1502"/>
      <point x="924" y="1502" type="curve" smooth="yes"/>
      <point x="776" y="1502"/>
      <point x="642" y="1486"/>
      <point x="506" y="1486" type="curve" smooth="yes"/>
      <point x="360" y="1486" type="line"/>
    </contour>
    <contour>
      <point x="734" y="584" type="curve"/>
      <point x="734" y="1232" type="line"/>
      <point x="776" y="1238"/>
      <point x="832" y="1240"/>
      <point x="878" y="1242" type="curve" smooth="yes"/>
      <point x="1072" y="1248"/>
      <point x="1132" y="1080"/>
      <point x="1132" y="920" type="curve" smooth="yes"/>
      <point x="1132" y="692"/>
      <point x="1026" y="576"/>
      <point x="886" y="576" type="curve" smooth="yes"/>
      <point x="824" y="576"/>
      <point x="776" y="580"/>
    </contour>
    <contour>
      <point x="180" y="846" type="line"/>
      <point x="1652" y="846" type="line"/>
      <point x="1652" y="990" type="line"/>
      <point x="180" y="990" type="line"/>
    </contour>
  </outline>
</glyph>
<glyph name="sheqel" format="2">
  <advance width="2070"/>
  <unicode hex="20AA"/>
  <outline>
    <contour>
      <point x="1056" y="0" type="curve" smooth="yes"/>
      <point x="1870" y="0" type="line"/>
      <point x="1870" y="1486" type="line"/>
      <point x="1570" y="1486" type="line"/>
      <point x="1570" y="240" type="line"/>
      <point x="1200" y="240" type="line" smooth="yes"/>
      <point x="990" y="240"/>
      <point x="952" y="278"/>
      <point x="952" y="416" type="curve" smooth="yes"/>
      <point x="952" y="1072" type="line"/>
      <point x="644" y="1072" type="line"/>
      <point x="644" y="414" type="line" smooth="yes"/>
      <point x="644" y="112"/>
      <point x="790" y="0"/>
    </contour>
    <contour>
      <point x="200" y="0" type="line"/>
      <point x="502" y="0" type="line"/>
      <point x="502" y="1228" type="line"/>
      <point x="978" y="1228" type="line" smooth="yes"/>
      <point x="1146" y="1228"/>
      <point x="1138" y="1152"/>
      <point x="1138" y="1014" type="curve" smooth="yes"/>
      <point x="1138" y="386" type="line"/>
      <point x="1438" y="386" type="line"/>
      <point x="1438" y="1074" type="line" smooth="yes"/>
      <point x="1438" y="1378"/>
      <point x="1358" y="1486"/>
      <point x="1112" y="1486" type="curve" smooth="yes"/>
      <point x="200" y="1486" type="line"/>
    </contour>
  </outline>
</glyph>
<glyph name="euro" format="2">
  <advance width="1444"/>
  <unicode hex="20AC"/>
  <outline>
    <contour>
      <point x="936" y="-28" type="curve" smooth="yes"/>
      <point x="1208" y="-28"/>
      <point x="1266" y="32"/>
      <point x="1348" y="42" type="curve"/>
      <point x="1290" y="314" type="line"/>
      <point x="1230" y="274"/>
      <point x="1114" y="240"/>
      <point x="992" y="240" type="curve" smooth="yes"/>
      <point x="706" y="240"/>
      <point x="626" y="458"/>
      <point x="626" y="778" type="curve" smooth="yes"/>
      <point x="626" y="1100"/>
      <point x="782" y="1228"/>
      <point x="988" y="1228" type="curve" smooth="yes"/>
      <point x="1140" y="1226"/>
      <point x="1202" y="1202"/>
      <point x="1270" y="1162" type="curve"/>
      <point x="1322" y="1442" type="line"/>
      <point x="1238" y="1460"/>
      <point x="1160" y="1510"/>
      <point x="936" y="1502" type="curve" smooth="yes"/>
      <point x="520" y="1488"/>
      <point x="260" y="1218"/>
      <point x="260" y="704" type="curve" smooth="yes"/>
      <point x="260" y="248"/>
      <point x="484" y="-28"/>
    </contour>
    <contour>
      <point x="112" y="824" type="line"/>
      <point x="1142" y="824" type="line"/>
      <point x="1142" y="1024" type="line"/>
      <point x="112" y="1024" type="line"/>
    </contour>
    <contour>
      <point x="82" y="460" type="line"/>
      <point x="1098" y="460" type="line"/>
      <point x="1098" y="662" type="line"/>
      <point x="82" y="662" type="line"/>
    </contour>
  </outline>
</glyph>
<glyph name="peso" format="2">
  <advance width="1792"/>
  <unicode hex="20B1"/>
  <anchor x="872" y="0" name="bottom"/>
  <anchor x="878" y="-166" name="btm"/>
  <anchor x="942" y="1662" name="top"/>
  <outline>
    <contour>
      <point x="360" y="0" type="line"/>
      <point x="734" y="0" type="line"/>
      <point x="734" y="310" type="line"/>
      <point x="766" y="310"/>
      <point x="808" y="308"/>
      <point x="886" y="308" type="curve" smooth="yes"/>
      <point x="1282" y="308"/>
      <point x="1496" y="546"/>
      <point x="1496" y="918" type="curve" smooth="yes"/>
      <point x="1496" y="1304"/>
      <point x="1302" y="1502"/>
      <point x="924" y="1502" type="curve" smooth="yes"/>
      <point x="776" y="1502"/>
      <point x="642" y="1486"/>
      <point x="506" y="1486" type="curve" smooth="yes"/>
      <point x="360" y="1486" type="line"/>
    </contour>
    <contour>
      <point x="734" y="584" type="curve"/>
      <point x="734" y="1232" type="line"/>
      <point x="776" y="1238"/>
      <point x="832" y="1240"/>
      <point x="878" y="1242" type="curve" smooth="yes"/>
      <point x="1072" y="1248"/>
      <point x="1132" y="1080"/>
      <point x="1132" y="920" type="curve" smooth="yes"/>
      <point x="1132" y="692"/>
      <point x="1026" y="576"/>
      <point x="886" y="576" type="curve" smooth="yes"/>
      <point x="824" y="576"/>
      <point x="776" y="580"/>
    </contour>
    <contour>
      <point x="180" y="972" type="line"/>
      <point x="1652" y="972" type="line"/>
      <point x="1652" y="1116" type="line"/>
      <point x="180" y="1116" type="line"/>
    </contour>
    <contour>
      <point x="180" y="708" type="line"/>
      <point x="1652" y="708" type="line"/>
      <point x="1652" y="852" type="line"/>
      <point x="180" y="852" type="line"/>
    </contour>
  </outline>
</glyph>
<glyph name="cedi" format="2">
  <advance width="1466"/>
  <unicode hex="20B5"/>
  <outline>
    <contour>
      <point x="666" y="-346" type="line"/>
      <point x="810" y="-346" type="line"/>
      <point x="838" y="-14" type="line"/>
      <point x="856" y="-14"/>
      <point x="872" y="-16"/>
      <point x="888" y="-16" type="curve" smooth="yes"/>
      <point x="1056" y="-16"/>
      <point x="1176" y="32"/>
      <point x="1244" y="62" type="curve"/>
      <point x="1244" y="398" type="line"/>
      <point x="1196" y="352"/>
      <point x="1062" y="300"/>
      <point x="938" y="300" type="curve" smooth="yes"/>
      <point x="914" y="300"/>
      <point x="890" y="302"/>
      <point x="868" y="304" type="curve"/>
      <point x="946" y="1176" type="line"/>
      <point x="1102" y="1172"/>
      <point x="1190" y="1116"/>
      <point x="1216" y="1092" type="curve"/>
      <point x="1268" y="1442" type="line"/>
      <point x="1202" y="1458"/>
      <point x="1120" y="1492"/>
      <point x="974" y="1500" type="curve"/>
      <point x="1000" y="1772" type="line"/>
      <point x="856" y="1772" type="line"/>
      <point x="832" y="1500" type="line"/>
      <point x="426" y="1476"/>
      <point x="114" y="1228"/>
      <point x="114" y="740" type="curve" smooth="yes"/>
      <point x="114" y="334"/>
      <point x="310" y="62"/>
      <point x="696" y="0" type="curve"/>
    </contour>
    <contour>
      <point x="728" y="346" type="line"/>
      <point x="598" y="416"/>
      <point x="540" y="562"/>
      <point x="540" y="764" type="curve" smooth="yes"/>
      <point x="540" y="980"/>
      <point x="644" y="1110"/>
      <point x="800" y="1158" type="curve"/>
    </contour>
  </outline>
</glyph>
<glyph name="tenge" format="2">
  <advance width="1528"/>
  <unicode hex="20B8"/>
  <anchor x="762" y="-166" name="btm"/>
  <anchor x="762" y="1660" name="top"/>
  <outline>
    <contour>
      <point x="576" y="0" type="line"/>
      <point x="952" y="0" type="line"/>
      <point x="952" y="828" type="line"/>
      <point x="1348" y="828" type="line"/>
      <point x="1348" y="1114" type="line"/>
      <point x="180" y="1114" type="line"/>
      <point x="180" y="828" type="line"/>
      <point x="576" y="828" type="line"/>
    </contour>
    <contour>
      <point x="180" y="1200" type="line"/>
      <point x="1348" y="1200" type="line"/>
      <point x="1348" y="1486" type="line"/>
      <point x="180" y="1486" type="line"/>
    </contour>
  </outline>
</glyph>
<glyph name="manat" format="2">
  <advance width="1682"/>
  <unicode hex="20BC"/>
  <outline>
    <contour>
      <point x="680" y="276" type="line"/>
      <point x="1002" y="276" type="line"/>
      <point x="1002" y="1570" type="line"/>
      <point x="680" y="1570" type="line"/>
    </contour>
    <contour>
      <point x="136" y="0" type="line"/>
      <point x="496" y="0" type="line"/>
      <point x="496" y="630" type="line" smooth="yes"/>
      <point x="496" y="880"/>
      <point x="622" y="972"/>
      <point x="842" y="972" type="curve" smooth="yes"/>
      <point x="1068" y="972"/>
      <point x="1186" y="880"/>
      <point x="1186" y="630" type="curve" smooth="yes"/>
      <point x="1186" y="4" type="line"/>
      <point x="1546" y="0" type="line"/>
      <point x="1546" y="656" type="line" smooth="yes"/>
      <point x="1546" y="1088"/>
      <point x="1260" y="1266"/>
      <point x="810" y="1266" type="curve" smooth="yes"/>
      <point x="444" y="1266"/>
      <point x="136" y="1100"/>
      <point x="136" y="666" type="curve" smooth="yes"/>
    </contour>
  </outline>
</glyph>
<glyph name="ruble" format="2">
  <advance width="1466"/>
  <unicode hex="20BD"/>
  <anchor x="752" y="-166" name="btm"/>
  <anchor x="816" y="1662" name="top"/>
  <outline>
    <contour>
      <point x="234" y="0" type="line"/>
      <point x="608" y="0" type="line"/>
      <point x="608" y="582" type="line"/>
      <point x="640" y="582"/>
      <point x="682" y="580"/>
      <point x="760" y="580" type="curve" smooth="yes"/>
      <point x="1156" y="580"/>
      <point x="1370" y="758"/>
      <point x="1370" y="1038" type="curve" smooth="yes"/>
      <point x="1370" y="1384"/>
      <point x="1156" y="1502"/>
      <point x="798" y="1502" type="curve" smooth="yes"/>
      <point x="650" y="1502"/>
      <point x="516" y="1486"/>
      <point x="380" y="1486" type="curve" smooth="yes"/>
      <point x="234" y="1486" type="line"/>
    </contour>
    <contour>
      <point x="608" y="856" type="curve"/>
      <point x="608" y="1232" type="line"/>
      <point x="650" y="1238"/>
      <point x="706" y="1242"/>
      <point x="752" y="1242" type="curve" smooth="yes"/>
      <point x="926" y="1248"/>
      <point x="1006" y="1160"/>
      <point x="1006" y="1040" type="curve" smooth="yes"/>
      <point x="1006" y="904"/>
      <point x="900" y="848"/>
      <point x="760" y="848" type="curve" smooth="yes"/>
      <point x="698" y="848"/>
      <point x="650" y="852"/>
    </contour>
    <contour>
      <point x="82" y="174" type="line"/>
      <point x="1070" y="174" type="line"/>
      <point x="1070" y="424" type="line"/>
      <point x="82" y="424" type="line"/>
    </contour>
  </outline>
</glyph>
<glyph name="literSign" format="2">
  <advance width="1354"/>
  <unicode hex="2113"/>
  <anchor x="434" y="20" name="btm"/>
  <anchor x="436" y="1846" name="top"/>
  <outline>
    <contour>
      <point x="228" y="32" type="line"/>
      <point x="770" y="348"/>
      <point x="1224" y="802"/>
      <point x="1220" y="1264" type="curve" smooth="yes"/>
      <point x="1218" y="1490"/>
      <point x="1104" y="1610"/>
      <point x="902" y="1610" type="curve" smooth="yes"/>
      <point x="464" y="1610"/>
      <point x="242" y="994"/>
      <point x="242" y="556" type="curve" smooth="yes"/>
      <point x="242" y="112"/>
      <point x="518" y="-26"/>
      <point x="678" y="-26" type="curve" smooth="yes"/>
      <point x="1058" y="-26"/>
      <point x="1184" y="240"/>
      <point x="1254" y="374" type="curve"/>
      <point x="1000" y="472" type="line"/>
      <point x="938" y="350"/>
      <point x="856" y="236"/>
      <point x="726" y="236" type="curve" smooth="yes"/>
      <point x="562" y="236"/>
      <point x="554" y="438"/>
      <point x="554" y="532" type="curve" smooth="yes"/>
      <point x="554" y="890"/>
      <point x="716" y="1330"/>
      <point x="846" y="1330" type="curve" smooth="yes"/>
      <point x="896" y="1330"/>
      <point x="904" y="1276"/>
      <point x="904" y="1228" type="curve" smooth="yes"/>
      <point x="914" y="826"/>
      <point x="294" y="366"/>
      <point x="-40" y="188" type="curve"/>
    </contour>
  </outline>
</glyph>
<glyph name="numero" format="2">
  <advance width="2686"/>
  <unicode hex="2116"/>
  <outline>
    <contour>
      <point x="168" y="0" type="line"/>
      <point x="492" y="0" type="line"/>
      <point x="492" y="670" type="line"/>
      <point x="444" y="1276" type="line"/>
      <point x="346" y="1268" type="line"/>
      <point x="568" y="770" type="line"/>
      <point x="1020" y="0" type="line"/>
      <point x="1370" y="0" type="line"/>
      <point x="1370" y="1486" type="line"/>
      <point x="1048" y="1486" type="line"/>
      <point x="1048" y="770" type="line"/>
      <point x="1090" y="182" type="line"/>
      <point x="1198" y="182" type="line"/>
      <point x="978" y="682" type="line"/>
      <point x="512" y="1486" type="line"/>
      <point x="168" y="1486" type="line"/>
    </contour>
    <contour>
      <point x="2084" y="388" type="curve" smooth="yes"/>
      <point x="2412" y="388"/>
      <point x="2608" y="606"/>
      <point x="2612" y="948" type="curve" smooth="yes"/>
      <point x="2614" y="1250"/>
      <point x="2466" y="1494"/>
      <point x="2102" y="1494" type="curve" smooth="yes"/>
      <point x="1764" y="1494"/>
      <point x="1558" y="1300"/>
      <point x="1554" y="956" type="curve" smooth="yes"/>
      <point x="1550" y="658"/>
      <point x="1656" y="388"/>
    </contour>
    <contour>
      <point x="2088" y="622" type="curve" smooth="yes"/>
      <point x="1964" y="622"/>
      <point x="1900" y="732"/>
      <point x="1900" y="950" type="curve" smooth="yes"/>
      <point x="1900" y="1160"/>
      <point x="1962" y="1258"/>
      <point x="2090" y="1258" type="curve" smooth="yes"/>
      <point x="2210" y="1258"/>
      <point x="2264" y="1150"/>
      <point x="2264" y="944" type="curve" smooth="yes"/>
      <point x="2264" y="722"/>
      <point x="2214" y="622"/>
    </contour>
    <contour>
      <point x="1636" y="0" type="line"/>
      <point x="2550" y="0" type="line"/>
      <point x="2550" y="240" type="line"/>
      <point x="1636" y="240" type="line"/>
    </contour>
  </outline>
</glyph>
<glyph name="trademark" format="2">
  <advance width="2174"/>
  <unicode hex="2122"/>
  <outline>
    <contour>
      <point x="364" y="750" type="line"/>
      <point x="600" y="750" type="line"/>
      <point x="600" y="1300" type="line"/>
      <point x="846" y="1298" type="line"/>
      <point x="846" y="1506" type="line"/>
      <point x="126" y="1506" type="line"/>
      <point x="126" y="1298" type="line"/>
      <point x="364" y="1300" type="line"/>
    </contour>
    <contour>
      <point x="1170" y="750" type="line"/>
      <point x="1182" y="1190" type="line"/>
      <point x="1186" y="1348" type="line"/>
      <point x="1172" y="1348" type="line"/>
      <point x="1242" y="1142" type="line"/>
      <point x="1396" y="750" type="line"/>
      <point x="1566" y="750" type="line"/>
      <point x="1706" y="1142" type="line"/>
      <point x="1766" y="1346" type="line"/>
      <point x="1754" y="1346" type="line"/>
      <point x="1762" y="1190" type="line"/>
      <point x="1792" y="750" type="line"/>
      <point x="2028" y="750" type="line"/>
      <point x="1960" y="1506" type="line"/>
      <point x="1592" y="1506" type="line"/>
      <point x="1502" y="1202" type="line"/>
      <point x="1448" y="918" type="line"/>
      <point x="1510" y="918" type="line"/>
      <point x="1442" y="1202" type="line"/>
      <point x="1350" y="1506" type="line"/>
      <point x="972" y="1506" type="line"/>
      <point x="930" y="750" type="line"/>
    </contour>
  </outline>
</glyph>
<glyph name="Ohm" format="2">
  <advance width="1786"/>
  <unicode hex="2126"/>
  <outline>
    <contour>
      <point x="792" y="208" type="line"/>
      <point x="698" y="258"/>
      <point x="540" y="472"/>
      <point x="540" y="802" type="curve" smooth="yes"/>
      <point x="540" y="1084"/>
      <point x="700" y="1212"/>
      <point x="900" y="1212" type="curve" smooth="yes"/>
      <point x="1084" y="1212"/>
      <point x="1242" y="1082"/>
      <point x="1242" y="800" type="curve" smooth="yes"/>
      <point x="1242" y="470"/>
      <point x="1104" y="258"/>
      <point x="1016" y="208" type="curve"/>
      <point x="1016" y="0" type="line"/>
      <point x="1020" y="0"/>
      <point x="1176" y="166"/>
      <point x="1182" y="166" type="curve"/>
      <point x="1404" y="234"/>
      <point x="1612" y="514"/>
      <point x="1616" y="830" type="curve" smooth="yes"/>
      <point x="1620" y="1304"/>
      <point x="1322" y="1508"/>
      <point x="900" y="1508" type="curve" smooth="yes"/>
      <point x="524" y="1508"/>
      <point x="172" y="1322"/>
      <point x="164" y="834" type="curve" smooth="yes"/>
      <point x="160" y="504"/>
      <point x="412" y="224"/>
      <point x="588" y="166" type="curve"/>
      <point x="792" y="0" type="line"/>
    </contour>
    <contour>
      <point x="154" y="0" type="line"/>
      <point x="792" y="0" type="line"/>
      <point x="584" y="246" type="line"/>
      <point x="154" y="246" type="line"/>
    </contour>
    <contour>
      <point x="1638" y="0" type="line"/>
      <point x="1638" y="246" type="line"/>
      <point x="1138" y="246" type="line"/>
      <point x="1016" y="0" type="line"/>
    </contour>
  </outline>
</glyph>
<glyph name="partialdiff" format="2">
  <advance width="1392"/>
  <unicode hex="2202"/>
  <outline>
    <contour>
      <point x="644" y="-30" type="curve" smooth="yes"/>
      <point x="1084" y="-30"/>
      <point x="1292" y="248"/>
      <point x="1292" y="778" type="curve" smooth="yes"/>
      <point x="1292" y="1242"/>
      <point x="1060" y="1692"/>
      <point x="528" y="1692" type="curve" smooth="yes"/>
      <point x="376" y="1692"/>
      <point x="222" y="1640"/>
      <point x="106" y="1550" type="curve"/>
      <point x="222" y="1354" type="line"/>
      <point x="290" y="1402"/>
      <point x="394" y="1432"/>
      <point x="482" y="1432" type="curve" smooth="yes"/>
      <point x="774" y="1432"/>
      <point x="938" y="1196"/>
      <point x="940" y="858" type="curve" smooth="yes"/>
      <point x="940" y="804"/>
      <point x="938" y="726"/>
      <point x="938" y="640" type="curve" smooth="yes"/>
      <point x="938" y="520"/>
      <point x="914" y="210"/>
      <point x="708" y="210" type="curve" smooth="yes"/>
      <point x="526" y="210"/>
      <point x="472" y="346"/>
      <point x="468" y="522" type="curve" smooth="yes"/>
      <point x="464" y="744"/>
      <point x="542" y="854"/>
      <point x="712" y="854" type="curve" smooth="yes"/>
      <point x="834" y="854"/>
      <point x="912" y="808"/>
      <point x="1000" y="728" type="curve"/>
      <point x="1002" y="810"/>
      <point x="1002" y="892"/>
      <point x="1004" y="974" type="curve"/>
      <point x="926" y="1022"/>
      <point x="856" y="1072"/>
      <point x="696" y="1072" type="curve" smooth="yes"/>
      <point x="404" y="1072"/>
      <point x="98" y="932"/>
      <point x="104" y="510" type="curve" smooth="yes"/>
      <point x="108" y="212"/>
      <point x="354" y="-30"/>
    </contour>
  </outline>
</glyph>
<glyph name="emptyset" format="2">
  <advance width="1360"/>
  <unicode hex="2205"/>
  <outline>
    <contour>
      <point x="100" y="566" type="curve" smooth="yes"/>
      <point x="96" y="244"/>
      <point x="358" y="-14"/>
      <point x="680" y="-14" type="curve"/>
      <point x="1000" y="-14"/>
      <point x="1262" y="244"/>
      <point x="1260" y="566" type="curve" smooth="yes"/>
      <point x="1258" y="888"/>
      <point x="1000" y="1146"/>
      <point x="680" y="1146" type="curve" smooth="yes"/>
      <point x="360" y="1146"/>
      <point x="104" y="888"/>
    </contour>
    <contour>
      <point x="344" y="560" type="curve" smooth="yes"/>
      <point x="344" y="746"/>
      <point x="492" y="902"/>
      <point x="678" y="902" type="curve" smooth="yes"/>
      <point x="864" y="902"/>
      <point x="1008" y="746"/>
      <point x="1006" y="560" type="curve" smooth="yes"/>
      <point x="1004" y="376"/>
      <point x="864" y="222"/>
      <point x="678" y="222" type="curve" smooth="yes"/>
      <point x="492" y="222"/>
      <point x="344" y="376"/>
    </contour>
    <contour>
      <point x="1152" y="1246" type="line"/>
      <point x="130" y="-18" type="line"/>
      <point x="230" y="-96" type="line"/>
      <point x="1254" y="1168" type="line"/>
    </contour>
  </outline>
</glyph>
<glyph name="summation" format="2">
  <advance width="1468"/>
  <unicode hex="2211"/>
  <outline>
    <contour>
      <point x="168" y="-166" type="line"/>
      <point x="1302" y="-166" type="line"/>
      <point x="1302" y="94" type="line"/>
      <point x="528" y="94" type="line"/>
      <point x="536" y="-90" type="line"/>
      <point x="1038" y="672" type="line"/>
      <point x="512" y="1416" type="line"/>
      <point x="504" y="1214" type="line"/>
      <point x="1246" y="1214" type="line"/>
      <point x="1246" y="1486" type="line"/>
      <point x="172" y="1486" type="line"/>
      <point x="144" y="1408" type="line"/>
      <point x="678" y="666" type="line"/>
      <point x="144" y="-96" type="line"/>
    </contour>
  </outline>
</glyph>
<glyph name="minus" format="2">
  <advance width="1326"/>
  <unicode hex="2212"/>
  <outline>
    <contour>
      <point x="248" y="612" type="line"/>
      <point x="1078" y="612" type="line"/>
      <point x="1078" y="882" type="line"/>
      <point x="248" y="882" type="line"/>
    </contour>
  </outline>
</glyph>
<glyph name="divisionslash" format="2">
  <advance width="834"/>
  <unicode hex="2215"/>
  <outline>
    <contour>
      <point x="-112" y="-354" type="line"/>
      <point x="188" y="-354" type="line"/>
      <point x="946" y="1562" type="line"/>
      <point x="646" y="1562" type="line"/>
    </contour>
  </outline>
</glyph>
<glyph name="bulletoperator" format="2">
  <advance width="656"/>
  <unicode hex="2219"/>
  <outline>
    <contour>
      <point x="320" y="530" type="curve" smooth="yes"/>
      <point x="458" y="530"/>
      <point x="560" y="646"/>
      <point x="560" y="778" type="curve" smooth="yes"/>
      <point x="560" y="910"/>
      <point x="474" y="1006"/>
      <point x="338" y="1006" type="curve" smooth="yes"/>
      <point x="202" y="1006"/>
      <point x="94" y="890"/>
      <point x="94" y="760" type="curve" smooth="yes"/>
      <point x="96" y="628"/>
      <point x="186" y="530"/>
    </contour>
  </outline>
</glyph>
<glyph name="infinity" format="2">
  <advance width="2052"/>
  <unicode hex="221E"/>
  <outline>
    <contour>
      <point x="584" y="146" type="curve" smooth="yes"/>
      <point x="876" y="150"/>
      <point x="1056" y="410"/>
      <point x="1154" y="596" type="curve"/>
      <point x="1000" y="734" type="line"/>
      <point x="870" y="482"/>
      <point x="730" y="388"/>
      <point x="604" y="388" type="curve" smooth="yes"/>
      <point x="448" y="388"/>
      <point x="374" y="490"/>
      <point x="374" y="600" type="curve" smooth="yes"/>
      <point x="374" y="726"/>
      <point x="454" y="806"/>
      <point x="566" y="806" type="curve" smooth="yes"/>
      <point x="714" y="806"/>
      <point x="840" y="632"/>
      <point x="908" y="486" type="curve"/>
      <point x="1192" y="598" type="line"/>
      <point x="1082" y="814"/>
      <point x="954" y="1058"/>
      <point x="570" y="1058" type="curve" smooth="yes"/>
      <point x="262" y="1060"/>
      <point x="72" y="858"/>
      <point x="72" y="610" type="curve" smooth="yes"/>
      <point x="72" y="364"/>
      <point x="234" y="142"/>
    </contour>
    <contour>
      <point x="1480" y="142" type="curve" smooth="yes"/>
      <point x="1792" y="142"/>
      <point x="1980" y="346"/>
      <point x="1980" y="598" type="curve" smooth="yes"/>
      <point x="1980" y="844"/>
      <point x="1830" y="1056"/>
      <point x="1482" y="1054" type="curve"/>
      <point x="1192" y="1052"/>
      <point x="998" y="792"/>
      <point x="900" y="604" type="curve"/>
      <point x="1054" y="466" type="line"/>
      <point x="1184" y="718"/>
      <point x="1316" y="812"/>
      <point x="1442" y="812" type="curve" smooth="yes"/>
      <point x="1600" y="812"/>
      <point x="1676" y="722"/>
      <point x="1676" y="610" type="curve" smooth="yes"/>
      <point x="1676" y="476"/>
      <point x="1596" y="390"/>
      <point x="1482" y="390" type="curve" smooth="yes"/>
      <point x="1332" y="390"/>
      <point x="1212" y="568"/>
      <point x="1144" y="714" type="curve"/>
      <point x="860" y="602" type="line"/>
      <point x="972" y="386"/>
      <point x="1086" y="142"/>
    </contour>
  </outline>
</glyph>
<glyph name="integral" format="2">
  <advance width="1062"/>
  <unicode hex="222B"/>
  <outline>
    <contour>
      <point x="414" y="-506" type="curve" smooth="yes"/>
      <point x="762" y="-506"/>
      <point x="904" y="-250"/>
      <point x="900" y="-2" type="curve" smooth="yes"/>
      <point x="892" y="416"/>
      <point x="488" y="790"/>
      <point x="482" y="1168" type="curve" smooth="yes"/>
      <point x="480" y="1324"/>
      <point x="552" y="1414"/>
      <point x="688" y="1414" type="curve" smooth="yes"/>
      <point x="772" y="1414"/>
      <point x="846" y="1362"/>
      <point x="860" y="1332" type="curve"/>
      <point x="988" y="1510" type="line"/>
      <point x="940" y="1592"/>
      <point x="802" y="1644"/>
      <point x="670" y="1644" type="curve" smooth="yes"/>
      <point x="318" y="1644"/>
      <point x="164" y="1424"/>
      <point x="168" y="1154" type="curve" smooth="yes"/>
      <point x="174" y="740"/>
      <point x="578" y="356"/>
      <point x="584" y="-24" type="curve" smooth="yes"/>
      <point x="586" y="-164"/>
      <point x="546" y="-268"/>
      <point x="394" y="-268" type="curve" smooth="yes"/>
      <point x="312" y="-268"/>
      <point x="214" y="-208"/>
      <point x="190" y="-170" type="curve"/>
      <point x="88" y="-378" type="line"/>
      <point x="136" y="-452"/>
      <point x="294" y="-506"/>
    </contour>
  </outline>
</glyph>
<glyph name="blackSquare" format="2">
  <advance width="1124"/>
  <unicode hex="25A0"/>
  <outline>
    <contour>
      <point x="990" y="980" type="line"/>
      <point x="134" y="980" type="line"/>
      <point x="134" y="124" type="line"/>
      <point x="990" y="124" type="line"/>
    </contour>
  </outline>
</glyph>
<glyph name="upWhiteTriangle" format="2">
  <advance width="1284"/>
  <unicode hex="25B3"/>
  <outline>
    <contour>
      <point x="82" y="78" type="line"/>
      <point x="1202" y="78" type="line"/>
      <point x="642" y="1058" type="line"/>
    </contour>
    <contour>
      <point x="276" y="190" type="line"/>
      <point x="642" y="828" type="line"/>
      <point x="1008" y="190" type="line"/>
    </contour>
  </outline>
</glyph>
<glyph name="downBlackTriangle" format="2">
  <advance width="1284"/>
  <unicode hex="25BC"/>
  <outline>
    <contour>
      <point x="642" y="78" type="line"/>
      <point x="1202" y="1058" type="line"/>
      <point x="82" y="1058" type="line"/>
    </contour>
  </outline>
</glyph>
<glyph name="leftBlackTriangle" format="2">
  <advance width="1186"/>
  <unicode hex="25C0"/>
  <outline>
    <contour>
      <point x="1006" y="1034" type="line"/>
      <point x="50" y="446" type="line"/>
      <point x="1006" y="-144" type="line"/>
    </contour>
  </outline>
</glyph>
<glyph name="lozenge" format="2">
  <advance width="1342"/>
  <unicode hex="25CA"/>
  <outline>
    <contour>
      <point x="68" y="762" type="line"/>
      <point x="68" y="750" type="line"/>
      <point x="666" y="-2" type="line"/>
      <point x="672" y="-2" type="line"/>
      <point x="1272" y="750" type="line"/>
      <point x="1272" y="762" type="line"/>
      <point x="672" y="1512" type="line"/>
      <point x="668" y="1512" type="line"/>
    </contour>
    <contour>
      <point x="668" y="1090" type="line"/>
      <point x="670" y="1090" type="line"/>
      <point x="938" y="758" type="line"/>
      <point x="938" y="754" type="line"/>
      <point x="670" y="406" type="line"/>
      <point x="668" y="406" type="line"/>
      <point x="402" y="752" type="line"/>
      <point x="402" y="758" type="line"/>
    </contour>
  </outline>
</glyph>
<glyph name="a.sc" format="2">
  <advance width="1366"/>
  <anchor x="684" y="0" name="bottom"/>
  <anchor x="680" y="-218" name="btm"/>
  <anchor x="1183" y="0" name="ogonek"/>
  <anchor x="672" y="1800" name="top"/>
  <outline>
    <contour>
      <point x="362" y="0" type="line"/>
      <point x="624" y="862" type="line"/>
      <point x="672" y="1050" type="line"/>
      <point x="720" y="862" type="line"/>
      <point x="1000" y="0" type="line"/>
      <point x="1382" y="0" type="line"/>
      <point x="894" y="1300" type="line"/>
      <point x="466" y="1300" type="line"/>
      <point x="-16" y="0" type="line"/>
    </contour>
    <contour>
      <point x="290" y="210" type="line"/>
      <point x="1024" y="210" type="line"/>
      <point x="986" y="468" type="line"/>
      <point x="332" y="468" type="line"/>
    </contour>
  </outline>
</glyph>
<glyph name="braceleft.case" format="2">
  <advance width="974"/>
  <outline>
    <contour>
      <point x="320" y="58" type="line"/>
      <point x="320" y="-134"/>
      <point x="398" y="-216"/>
      <point x="548" y="-216" type="curve" smooth="yes"/>
      <point x="656" y="-216"/>
      <point x="784" y="-206"/>
      <point x="868" y="-182" type="curve"/>
      <point x="868" y="-12" type="line"/>
      <point x="626" y="-12" type="line"/>
      <point x="626" y="534" type="line" smooth="yes"/>
      <point x="626" y="580"/>
      <point x="614" y="616"/>
      <point x="588" y="642" type="curve" smooth="yes"/>
      <point x="540" y="700"/>
      <point x="430" y="742"/>
      <point x="348" y="768" type="curve"/>
      <point x="348" y="748" type="line"/>
      <point x="430" y="774"/>
      <point x="544" y="820"/>
      <point x="590" y="878" type="curve" smooth="yes"/>
      <point x="612" y="906"/>
      <point x="626" y="940"/>
      <point x="626" y="986" type="curve" smooth="yes"/>
      <point x="626" y="1514" type="line"/>
      <point x="868" y="1514" type="line"/>
      <point x="868" y="1696" type="line"/>
      <point x="784" y="1708"/>
      <point x="656" y="1720"/>
      <point x="548" y="1720" type="curve" smooth="yes"/>
      <point x="398" y="1720"/>
      <point x="320" y="1644"/>
      <point x="320" y="1452" type="curve" smooth="yes"/>
      <point x="320" y="994" type="line" smooth="yes"/>
      <point x="320" y="910"/>
      <point x="166" y="868"/>
      <point x="68" y="858" type="curve"/>
      <point x="68" y="660" type="line"/>
      <point x="166" y="650"/>
      <point x="320" y="598"/>
      <point x="320" y="516" type="curve" smooth="yes"/>
    </contour>
  </outline>
</glyph>
<glyph name="bracketleft.case" format="2">
  <advance width="794"/>
  <outline>
    <contour>
      <point x="126" y="66" type="line"/>
      <point x="126" y="-126"/>
      <point x="172" y="-210"/>
      <point x="322" y="-210" type="curve" smooth="yes"/>
      <point x="480" y="-210"/>
      <point x="580" y="-196"/>
      <point x="684" y="-182" type="curve"/>
      <point x="684" y="-12" type="line"/>
      <point x="438" y="-12" type="line"/>
      <point x="438" y="1506" type="line"/>
      <point x="684" y="1506" type="line"/>
      <point x="684" y="1684" type="line"/>
      <point x="580" y="1694"/>
      <point x="480" y="1708"/>
      <point x="322" y="1708" type="curve" smooth="yes"/>
      <point x="172" y="1708"/>
      <point x="126" y="1644"/>
      <point x="126" y="1452" type="curve" smooth="yes"/>
    </contour>
  </outline>
</glyph>
<glyph name="brevecomb.case" format="2">
  <anchor x="0" y="1660" name="_top"/>
  <anchor x="0" y="2046" name="top"/>
  <outline>
    <contour>
      <point x="0" y="1602" type="curve" smooth="yes"/>
      <point x="236" y="1602"/>
      <point x="378" y="1768"/>
      <point x="376" y="1976" type="curve"/>
      <point x="156" y="1976" type="line"/>
      <point x="148" y="1930"/>
      <point x="136" y="1840"/>
      <point x="0" y="1840" type="curve" smooth="yes"/>
      <point x="-140" y="1840"/>
      <point x="-150" y="1930"/>
      <point x="-154" y="1976" type="curve"/>
      <point x="-376" y="1976" type="line"/>
      <point x="-380" y="1768"/>
      <point x="-248" y="1602"/>
    </contour>
  </outline>
</glyph>
<glyph name="brevecomb_acutecomb" format="2">
  <anchor x="0" y="1660" name="_top"/>
  <anchor x="26" y="2090" name="top"/>
  <outline>
    <contour>
      <point x="24" y="1258" type="curve" smooth="yes"/>
      <point x="278" y="1258"/>
      <point x="404" y="1402"/>
      <point x="400" y="1618" type="curve"/>
      <point x="182" y="1618" type="line"/>
      <point x="178" y="1572"/>
      <point x="160" y="1482"/>
      <point x="24" y="1482" type="curve" smooth="yes"/>
      <point x="-110" y="1482"/>
      <point x="-128" y="1572"/>
      <point x="-136" y="1618" type="curve"/>
      <point x="-350" y="1618" type="line"/>
      <point x="-352" y="1402"/>
      <point x="-218" y="1258"/>
    </contour>
    <contour>
      <point x="22" y="1648" type="line"/>
      <point x="108" y="1690"/>
      <point x="232" y="1792"/>
      <point x="322" y="1940" type="curve"/>
      <point x="148" y="2090" type="line"/>
      <point x="46" y="1948"/>
      <point x="-24" y="1858"/>
      <point x="-114" y="1768" type="curve"/>
    </contour>
  </outline>
</glyph>
<glyph name="brevecomb_gravecomb.case" format="2">
  <anchor x="0" y="1660" name="_top"/>
  <anchor x="0" y="2346" name="top"/>
  <outline>
    <contour>
      <point x="2" y="1558" type="curve" smooth="yes"/>
      <point x="244" y="1558"/>
      <point x="378" y="1702"/>
      <point x="376" y="1918" type="curve"/>
      <point x="162" y="1918" type="line"/>
      <point x="154" y="1872"/>
      <point x="136" y="1782"/>
      <point x="2" y="1782" type="curve" smooth="yes"/>
      <point x="-134" y="1782"/>
      <point x="-152" y="1872"/>
      <point x="-156" y="1918" type="curve"/>
      <point x="-374" y="1918" type="line"/>
      <point x="-378" y="1702"/>
      <point x="-252" y="1558"/>
    </contour>
    <contour>
      <point x="172" y="2030" type="line"/>
      <point x="132" y="2070"/>
      <point x="-56" y="2268"/>
      <point x="-82" y="2346" type="curve"/>
      <point x="-338" y="2218" type="line"/>
      <point x="-262" y="2100"/>
      <point x="-78" y="1928"/>
      <point x="2" y="1902" type="curve"/>
    </contour>
  </outline>
</glyph>
<glyph name="brevecomb_gravecomb" format="2">
  <anchor x="0" y="1660" name="_top"/>
  <anchor x="0" y="1966" name="top"/>
  <outline>
    <contour>
      <point x="26" y="1258" type="curve" smooth="yes"/>
      <point x="268" y="1258"/>
      <point x="402" y="1402"/>
      <point x="400" y="1618" type="curve"/>
      <point x="186" y="1618" type="line"/>
      <point x="178" y="1572"/>
      <point x="160" y="1482"/>
      <point x="26" y="1482" type="curve" smooth="yes"/>
      <point x="-110" y="1482"/>
      <point x="-128" y="1572"/>
      <point x="-132" y="1618" type="curve"/>
      <point x="-350" y="1618" type="line"/>
      <point x="-354" y="1402"/>
      <point x="-228" y="1258"/>
    </contour>
    <contour>
      <point x="28" y="1648" type="curve"/>
      <point x="164" y="1768" type="line"/>
      <point x="74" y="1858"/>
      <point x="4" y="1948"/>
      <point x="-98" y="2090" type="curve"/>
      <point x="-272" y="1940" type="line"/>
      <point x="-182" y="1792"/>
      <point x="-58" y="1690"/>
    </contour>
  </outline>
</glyph>
<glyph name="brevecomb_hookabovecomb" format="2">
  <anchor x="0" y="1660" name="_top"/>
  <anchor x="24" y="2070" name="top"/>
  <outline>
    <contour>
      <point x="26" y="1258" type="curve" smooth="yes"/>
      <point x="268" y="1258"/>
      <point x="402" y="1402"/>
      <point x="400" y="1618" type="curve"/>
      <point x="186" y="1618" type="line"/>
      <point x="178" y="1572"/>
      <point x="160" y="1482"/>
      <point x="26" y="1482" type="curve" smooth="yes"/>
      <point x="-110" y="1482"/>
      <point x="-128" y="1572"/>
      <point x="-132" y="1618" type="curve"/>
      <point x="-350" y="1618" type="line"/>
      <point x="-354" y="1402"/>
      <point x="-228" y="1258"/>
    </contour>
    <contour>
      <point x="-44" y="1618" type="curve"/>
      <point x="140" y="1618" type="line"/>
      <point x="128" y="1668"/>
      <point x="140" y="1714"/>
      <point x="178" y="1742" type="curve" smooth="yes"/>
      <point x="222" y="1774"/>
      <point x="250" y="1830"/>
      <point x="250" y="1906" type="curve" smooth="yes"/>
      <point x="250" y="2000"/>
      <point x="134" y="2070"/>
      <point x="-16" y="2070" type="curve" smooth="yes"/>
      <point x="-102" y="2070"/>
      <point x="-164" y="2054"/>
      <point x="-206" y="2036" type="curve"/>
      <point x="-202" y="1870" type="line"/>
      <point x="-180" y="1886"/>
      <point x="-134" y="1902"/>
      <point x="-88" y="1902" type="curve" smooth="yes"/>
      <point x="-12" y="1902"/>
      <point x="8" y="1872"/>
      <point x="8" y="1836" type="curve" smooth="yes"/>
      <point x="8" y="1770"/>
      <point x="-68" y="1774"/>
      <point x="-68" y="1696" type="curve" smooth="yes"/>
      <point x="-68" y="1660"/>
      <point x="-58" y="1642"/>
    </contour>
  </outline>
</glyph>
<glyph name="brevecomb_tildecomb" format="2">
  <anchor x="0" y="1660" name="_top"/>
  <anchor x="24" y="2034" name="top"/>
  <outline>
    <contour>
      <point x="26" y="1258" type="curve" smooth="yes"/>
      <point x="268" y="1258"/>
      <point x="402" y="1402"/>
      <point x="400" y="1618" type="curve"/>
      <point x="186" y="1618" type="line"/>
      <point x="178" y="1572"/>
      <point x="160" y="1482"/>
      <point x="26" y="1482" type="curve" smooth="yes"/>
      <point x="-110" y="1482"/>
      <point x="-128" y="1572"/>
      <point x="-132" y="1618" type="curve"/>
      <point x="-350" y="1618" type="line"/>
      <point x="-354" y="1402"/>
      <point x="-228" y="1258"/>
    </contour>
    <contour>
      <point x="142" y="1712" type="curve" smooth="yes"/>
      <point x="248" y="1712"/>
      <point x="364" y="1816"/>
      <point x="364" y="1962" type="curve"/>
      <point x="252" y="2002" type="line"/>
      <point x="224" y="1926"/>
      <point x="190" y="1908"/>
      <point x="148" y="1908" type="curve" smooth="yes"/>
      <point x="72" y="1908"/>
      <point x="24" y="2034"/>
      <point x="-102" y="2034" type="curve" smooth="yes"/>
      <point x="-208" y="2034"/>
      <point x="-324" y="1932"/>
      <point x="-324" y="1786" type="curve"/>
      <point x="-212" y="1746" type="line"/>
      <point x="-184" y="1816"/>
      <point x="-154" y="1840"/>
      <point x="-108" y="1840" type="curve" smooth="yes"/>
      <point x="-30" y="1840"/>
      <point x="16" y="1712"/>
    </contour>
  </outline>
</glyph>
<glyph name="breveinvertedcomb.case" format="2">
  <anchor x="0" y="1660" name="_top"/>
  <anchor x="0" y="2086" name="top"/>
  <outline>
    <contour>
      <point x="0" y="2002" type="curve" smooth="yes"/>
      <point x="-248" y="2002"/>
      <point x="-380" y="1836"/>
      <point x="-376" y="1628" type="curve"/>
      <point x="-154" y="1628" type="line"/>
      <point x="-150" y="1674"/>
      <point x="-140" y="1764"/>
      <point x="0" y="1764" type="curve" smooth="yes"/>
      <point x="136" y="1764"/>
      <point x="148" y="1674"/>
      <point x="156" y="1628" type="curve"/>
      <point x="376" y="1628" type="line"/>
      <point x="378" y="1836"/>
      <point x="236" y="2002"/>
    </contour>
  </outline>
</glyph>
<glyph name="bullet.case" format="2">
  <advance width="890"/>
  <outline>
    <contour>
      <point x="436" y="484" type="curve" smooth="yes"/>
      <point x="598" y="484"/>
      <point x="732" y="622"/>
      <point x="732" y="778" type="curve" smooth="yes"/>
      <point x="732" y="938"/>
      <point x="620" y="1052"/>
      <point x="458" y="1052" type="curve" smooth="yes"/>
      <point x="296" y="1052"/>
      <point x="158" y="916"/>
      <point x="158" y="758" type="curve" smooth="yes"/>
      <point x="158" y="600"/>
      <point x="274" y="484"/>
    </contour>
  </outline>
</glyph>
<glyph name="caroncomb.alt" format="2">
  <anchor x="64" y="1112" name="_topright"/>
  <outline>
    <contour>
      <point x="272" y="1142" type="line"/>
      <point x="298" y="1214"/>
      <point x="342" y="1310"/>
      <point x="342" y="1466" type="curve" smooth="yes"/>
      <point x="342" y="1550"/>
      <point x="336" y="1594"/>
      <point x="324" y="1622" type="curve"/>
      <point x="52" y="1622" type="line"/>
      <point x="44" y="1576" type="line"/>
      <point x="58" y="1538"/>
      <point x="72" y="1482"/>
      <point x="72" y="1392" type="curve" smooth="yes"/>
      <point x="72" y="1278"/>
      <point x="68" y="1216"/>
      <point x="58" y="1170" type="curve"/>
      <point x="66" y="1144" type="line"/>
    </contour>
  </outline>
</glyph>
<glyph name="circumflexcomb.case" format="2">
  <anchor x="0" y="1662" name="_top"/>
  <anchor x="0" y="2096" name="top"/>
  <outline>
    <contour>
      <point x="-220" y="1576" type="line"/>
      <point x="-2" y="1764" type="line"/>
      <point x="220" y="1576" type="line"/>
      <point x="394" y="1690" type="line"/>
      <point x="114" y="1988" type="line"/>
      <point x="-116" y="1988" type="line"/>
      <point x="-394" y="1688" type="line"/>
    </contour>
  </outline>
</glyph>
<glyph name="circumflexcomb_acutecomb.case" format="2">
  <anchor x="40" y="1662" name="_top"/>
  <anchor x="218" y="2178" name="top"/>
  <outline>
    <contour>
      <point x="-178" y="1506" type="line"/>
      <point x="40" y="1694" type="line"/>
      <point x="260" y="1506" type="line"/>
      <point x="434" y="1620" type="line"/>
      <point x="154" y="1918" type="line"/>
      <point x="-74" y="1918" type="line"/>
      <point x="-352" y="1618" type="line"/>
    </contour>
    <contour>
      <point x="446" y="1734" type="line"/>
      <point x="534" y="1762"/>
      <point x="706" y="1930"/>
      <point x="788" y="2050" type="curve"/>
      <point x="532" y="2178" type="line"/>
      <point x="506" y="2100"/>
      <point x="318" y="1902"/>
      <point x="278" y="1862" type="curve"/>
    </contour>
  </outline>
</glyph>
<glyph name="circumflexcomb_acutecomb" format="2">
  <anchor x="0" y="1660" name="_top"/>
  <anchor x="0" y="2154" name="top"/>
  <outline>
    <contour>
      <point x="-234" y="1234" type="line"/>
      <point x="0" y="1392" type="line"/>
      <point x="234" y="1234" type="line"/>
      <point x="406" y="1334" type="line"/>
      <point x="110" y="1642" type="line"/>
      <point x="-108" y="1642" type="line"/>
      <point x="-406" y="1334" type="line"/>
    </contour>
    <contour>
      <point x="386" y="1574" type="line"/>
      <point x="472" y="1616"/>
      <point x="596" y="1718"/>
      <point x="686" y="1866" type="curve"/>
      <point x="504" y="2022" type="line"/>
      <point x="402" y="1880"/>
      <point x="332" y="1790"/>
      <point x="242" y="1700" type="curve"/>
    </contour>
  </outline>
</glyph>
<glyph name="circumflexcomb_gravecomb.case" format="2">
  <anchor x="0" y="1662" name="_top"/>
  <anchor x="76" y="2242" name="top"/>
  <outline>
    <contour>
      <point x="-218" y="1506" type="line"/>
      <point x="0" y="1694" type="line"/>
      <point x="220" y="1506" type="line"/>
      <point x="394" y="1620" type="line"/>
      <point x="114" y="1918" type="line"/>
      <point x="-114" y="1918" type="line"/>
      <point x="-392" y="1618" type="line"/>
    </contour>
    <contour>
      <point x="544" y="1926" type="line"/>
      <point x="504" y="1966"/>
      <point x="316" y="2164"/>
      <point x="290" y="2242" type="curve"/>
      <point x="34" y="2114" type="line"/>
      <point x="110" y="1996"/>
      <point x="294" y="1824"/>
      <point x="374" y="1798" type="curve"/>
    </contour>
  </outline>
</glyph>
<glyph name="circumflexcomb_gravecomb" format="2">
  <anchor x="0" y="1660" name="_top"/>
  <anchor x="118" y="1948" name="top"/>
  <outline>
    <contour>
      <point x="-234" y="1234" type="line"/>
      <point x="0" y="1392" type="line"/>
      <point x="234" y="1234" type="line"/>
      <point x="406" y="1334" type="line"/>
      <point x="110" y="1642" type="line"/>
      <point x="-108" y="1642" type="line"/>
      <point x="-406" y="1334" type="line"/>
    </contour>
    <contour>
      <point x="506" y="1506" type="curve"/>
      <point x="642" y="1626" type="line"/>
      <point x="552" y="1716"/>
      <point x="482" y="1806"/>
      <point x="380" y="1948" type="curve"/>
      <point x="206" y="1798" type="line"/>
      <point x="296" y="1650"/>
      <point x="420" y="1548"/>
    </contour>
  </outline>
</glyph>
<glyph name="circumflexcomb_hookabovecomb.case" format="2">
  <anchor x="-2" y="1662" name="_top"/>
  <anchor x="350" y="2282" name="top"/>
  <outline>
    <contour>
      <point x="-220" y="1506" type="line"/>
      <point x="-2" y="1694" type="line"/>
      <point x="218" y="1506" type="line"/>
      <point x="392" y="1620" type="line"/>
      <point x="112" y="1918" type="line"/>
      <point x="-116" y="1918" type="line"/>
      <point x="-394" y="1618" type="line"/>
    </contour>
    <contour>
      <point x="262" y="1852" type="curve"/>
      <point x="438" y="1852" type="line"/>
      <point x="424" y="1910"/>
      <point x="438" y="1962"/>
      <point x="478" y="1992" type="curve" smooth="yes"/>
      <point x="526" y="2028"/>
      <point x="586" y="2092"/>
      <point x="586" y="2178" type="curve" smooth="yes"/>
      <point x="586" y="2284"/>
      <point x="464" y="2364"/>
      <point x="304" y="2364" type="curve" smooth="yes"/>
      <point x="212" y="2364"/>
      <point x="146" y="2346"/>
      <point x="102" y="2324" type="curve"/>
      <point x="106" y="2162" type="line"/>
      <point x="130" y="2180"/>
      <point x="178" y="2198"/>
      <point x="228" y="2198" type="curve" smooth="yes"/>
      <point x="308" y="2198"/>
      <point x="330" y="2164"/>
      <point x="330" y="2124" type="curve" smooth="yes"/>
      <point x="330" y="2048"/>
      <point x="236" y="2030"/>
      <point x="236" y="1940" type="curve"/>
      <point x="236" y="1900"/>
      <point x="246" y="1880"/>
    </contour>
  </outline>
</glyph>
<glyph name="circumflexcomb_tildecomb.case" format="2">
  <anchor x="-2" y="1662" name="_top"/>
  <anchor x="24" y="2516" name="top"/>
  <outline>
    <contour>
      <point x="-220" y="1506" type="line"/>
      <point x="-2" y="1694" type="line"/>
      <point x="218" y="1506" type="line"/>
      <point x="392" y="1620" type="line"/>
      <point x="112" y="1918" type="line"/>
      <point x="-116" y="1918" type="line"/>
      <point x="-394" y="1618" type="line"/>
    </contour>
    <contour>
      <point x="142" y="2034" type="curve" smooth="yes"/>
      <point x="248" y="2034"/>
      <point x="364" y="2138"/>
      <point x="364" y="2284" type="curve"/>
      <point x="252" y="2324" type="line"/>
      <point x="224" y="2248"/>
      <point x="190" y="2230"/>
      <point x="148" y="2230" type="curve" smooth="yes"/>
      <point x="72" y="2230"/>
      <point x="24" y="2356"/>
      <point x="-102" y="2356" type="curve" smooth="yes"/>
      <point x="-208" y="2356"/>
      <point x="-324" y="2254"/>
      <point x="-324" y="2108" type="curve"/>
      <point x="-212" y="2068" type="line"/>
      <point x="-184" y="2138"/>
      <point x="-154" y="2162"/>
      <point x="-108" y="2162" type="curve" smooth="yes"/>
      <point x="-30" y="2162"/>
      <point x="16" y="2034"/>
    </contour>
  </outline>
</glyph>
<glyph name="circumflexcomb_tildecomb" format="2">
  <anchor x="0" y="1660" name="_top"/>
  <anchor x="0" y="2094" name="top"/>
  <outline>
    <contour>
      <point x="-234" y="1234" type="line"/>
      <point x="0" y="1392" type="line"/>
      <point x="234" y="1234" type="line"/>
      <point x="406" y="1334" type="line"/>
      <point x="110" y="1642" type="line"/>
      <point x="-108" y="1642" type="line"/>
      <point x="-406" y="1334" type="line"/>
    </contour>
    <contour>
      <point x="142" y="1772" type="curve" smooth="yes"/>
      <point x="248" y="1772"/>
      <point x="364" y="1876"/>
      <point x="364" y="2022" type="curve"/>
      <point x="252" y="2062" type="line"/>
      <point x="224" y="1986"/>
      <point x="190" y="1968"/>
      <point x="148" y="1968" type="curve" smooth="yes"/>
      <point x="72" y="1968"/>
      <point x="24" y="2094"/>
      <point x="-102" y="2094" type="curve" smooth="yes"/>
      <point x="-208" y="2094"/>
      <point x="-324" y="1992"/>
      <point x="-324" y="1846" type="curve"/>
      <point x="-212" y="1806" type="line"/>
      <point x="-184" y="1876"/>
      <point x="-154" y="1900"/>
      <point x="-108" y="1900" type="curve" smooth="yes"/>
      <point x="-30" y="1900"/>
      <point x="16" y="1772"/>
    </contour>
  </outline>
</glyph>
<glyph name="commaaccentcomb.case" format="2">
  <anchor x="196" y="0" name="_bottom"/>
  <anchor x="184" y="-166" name="_btm"/>
  <anchor x="196" y="-546" name="bottom"/>
  <outline>
    <contour>
      <point x="226" y="-546" type="line"/>
      <point x="264" y="-530"/>
      <point x="356" y="-422"/>
      <point x="356" y="-266" type="curve" smooth="yes"/>
      <point x="356" y="-162"/>
      <point x="292" y="-92"/>
      <point x="258" y="-82" type="curve"/>
      <point x="36" y="-174" type="line"/>
      <point x="36" y="-224" type="line"/>
      <point x="60" y="-238"/>
      <point x="88" y="-290"/>
      <point x="88" y="-342" type="curve" smooth="yes"/>
      <point x="88" y="-410"/>
      <point x="80" y="-452"/>
      <point x="66" y="-476" type="curve"/>
      <point x="66" y="-502" type="line"/>
    </contour>
  </outline>
</glyph>
<glyph name="d.sc" format="2">
  <advance width="1458"/>
  <anchor x="718" y="0" name="bottom"/>
  <anchor x="696" y="-218" name="btm"/>
  <anchor x="718" y="646" name="center"/>
  <anchor x="714" y="1818" name="top"/>
  <outline>
    <contour>
      <point x="140" y="0" type="line"/>
      <point x="184" y="0"/>
      <point x="228" y="0"/>
      <point x="272" y="0" type="curve" smooth="yes"/>
      <point x="382" y="0"/>
      <point x="506" y="-14"/>
      <point x="650" y="-14" type="curve" smooth="yes"/>
      <point x="1110" y="-14"/>
      <point x="1370" y="238"/>
      <point x="1370" y="676" type="curve" smooth="yes"/>
      <point x="1370" y="1076"/>
      <point x="1158" y="1306"/>
      <point x="672" y="1306" type="curve" smooth="yes"/>
      <point x="538" y="1306"/>
      <point x="344" y="1292"/>
      <point x="276" y="1292" type="curve" smooth="yes"/>
      <point x="230" y="1292"/>
      <point x="186" y="1292"/>
      <point x="140" y="1292" type="curve"/>
    </contour>
    <contour>
      <point x="512" y="276" type="curve"/>
      <point x="512" y="1024" type="line"/>
      <point x="550" y="1030"/>
      <point x="622" y="1036"/>
      <point x="662" y="1036" type="curve" smooth="yes"/>
      <point x="882" y="1036"/>
      <point x="986" y="934"/>
      <point x="986" y="650" type="curve" smooth="yes"/>
      <point x="986" y="384"/>
      <point x="862" y="262"/>
      <point x="670" y="262" type="curve" smooth="yes"/>
      <point x="602" y="262"/>
      <point x="544" y="266"/>
    </contour>
  </outline>
</glyph>
<glyph name="dblgravecomb.case" format="2">
  <anchor x="-60" y="1660" name="_top"/>
  <anchor x="44" y="2032" name="top"/>
  <outline>
    <contour>
      <point x="198" y="1576" type="curve"/>
      <point x="372" y="1700" type="line"/>
      <point x="332" y="1738"/>
      <point x="192" y="1920"/>
      <point x="158" y="1998" type="curve"/>
      <point x="-94" y="1882" type="line"/>
      <point x="-14" y="1760"/>
      <point x="134" y="1604"/>
    </contour>
    <contour>
      <point x="-310" y="1576" type="curve"/>
      <point x="-132" y="1700" type="line"/>
      <point x="-172" y="1738"/>
      <point x="-316" y="1920"/>
      <point x="-352" y="1996" type="curve"/>
      <point x="-602" y="1880" type="line"/>
      <point x="-526" y="1764"/>
      <point x="-376" y="1604"/>
    </contour>
  </outline>
</glyph>
<glyph name="dcroat.sc" format="2">
  <advance width="1478"/>
  <anchor x="720" y="-144" name="btm"/>
  <anchor x="736" y="1444" name="top"/>
  <outline>
    <contour>
      <point x="58" y="560" type="line"/>
      <point x="804" y="560" type="line"/>
      <point x="804" y="790" type="line"/>
      <point x="58" y="790" type="line"/>
    </contour>
    <contour>
      <point x="162" y="0" type="line"/>
      <point x="206" y="0"/>
      <point x="250" y="0"/>
      <point x="294" y="0" type="curve" smooth="yes"/>
      <point x="404" y="0"/>
      <point x="528" y="-14"/>
      <point x="672" y="-14" type="curve" smooth="yes"/>
      <point x="1132" y="-14"/>
      <point x="1396" y="238"/>
      <point x="1396" y="676" type="curve" smooth="yes"/>
      <point x="1396" y="1076"/>
      <point x="1180" y="1306"/>
      <point x="694" y="1306" type="curve" smooth="yes"/>
      <point x="560" y="1306"/>
      <point x="366" y="1292"/>
      <point x="298" y="1292" type="curve" smooth="yes"/>
      <point x="252" y="1292"/>
      <point x="206" y="1292"/>
      <point x="162" y="1292" type="curve"/>
    </contour>
    <contour>
      <point x="538" y="276" type="curve"/>
      <point x="538" y="1024" type="line"/>
      <point x="576" y="1030"/>
      <point x="644" y="1036"/>
      <point x="684" y="1036" type="curve" smooth="yes"/>
      <point x="904" y="1036"/>
      <point x="1008" y="932"/>
      <point x="1008" y="650" type="curve" smooth="yes"/>
      <point x="1008" y="386"/>
      <point x="884" y="262"/>
      <point x="692" y="262" type="curve" smooth="yes"/>
      <point x="624" y="262"/>
      <point x="570" y="266"/>
    </contour>
  </outline>
</glyph>
<glyph name="dotaccentcomb.case" format="2">
  <anchor x="0" y="1660" name="_top"/>
  <anchor x="0" y="2072" name="top"/>
  <outline>
    <contour>
      <point x="-8" y="1618" type="curve" smooth="yes"/>
      <point x="112" y="1618"/>
      <point x="196" y="1696"/>
      <point x="196" y="1806" type="curve" smooth="yes"/>
      <point x="196" y="1916"/>
      <point x="128" y="1976"/>
      <point x="10" y="1976" type="curve" smooth="yes"/>
      <point x="-108" y="1976"/>
      <point x="-196" y="1900"/>
      <point x="-196" y="1792" type="curve" smooth="yes"/>
      <point x="-196" y="1682"/>
      <point x="-124" y="1618"/>
    </contour>
  </outline>
</glyph>
<glyph name="e.sc" format="2">
  <advance width="1182"/>
  <anchor x="640" y="0" name="bottom"/>
  <anchor x="642" y="-144" name="btm"/>
  <anchor x="998" y="0" name="ogonek"/>
  <anchor x="612" y="1792" name="top"/>
  <anchor x="18" y="1292" name="topleft"/>
  <outline>
    <contour>
      <point x="140" y="0" type="line"/>
      <point x="1106" y="0" type="line"/>
      <point x="1106" y="286" type="line"/>
      <point x="508" y="286" type="line"/>
      <point x="508" y="524" type="line"/>
      <point x="932" y="524" type="line"/>
      <point x="932" y="792" type="line"/>
      <point x="508" y="792" type="line"/>
      <point x="508" y="1014" type="line"/>
      <point x="1052" y="1014" type="line"/>
      <point x="1052" y="1292" type="line"/>
      <point x="140" y="1292" type="line"/>
    </contour>
  </outline>
</glyph>
<glyph name="eight.sc" format="2">
  <advance width="1302"/>
  <outline>
    <contour>
      <point x="662" y="-14" type="curve" smooth="yes"/>
      <point x="968" y="-14"/>
      <point x="1200" y="128"/>
      <point x="1198" y="364" type="curve" smooth="yes"/>
      <point x="1194" y="742"/>
      <point x="474" y="730"/>
      <point x="474" y="968" type="curve" smooth="yes"/>
      <point x="474" y="1020"/>
      <point x="542" y="1084"/>
      <point x="650" y="1084" type="curve" smooth="yes"/>
      <point x="764" y="1084"/>
      <point x="826" y="1026"/>
      <point x="826" y="964" type="curve" smooth="yes"/>
      <point x="826" y="868"/>
      <point x="782" y="802"/>
      <point x="644" y="766" type="curve"/>
      <point x="762" y="644" type="line"/>
      <point x="1030" y="694"/>
      <point x="1134" y="842"/>
      <point x="1134" y="992" type="curve" smooth="yes"/>
      <point x="1134" y="1168"/>
      <point x="962" y="1304"/>
      <point x="644" y="1304" type="curve" smooth="yes"/>
      <point x="326" y="1304"/>
      <point x="148" y="1138"/>
      <point x="148" y="958" type="curve" smooth="yes"/>
      <point x="148" y="518"/>
      <point x="838" y="538"/>
      <point x="838" y="346" type="curve" smooth="yes"/>
      <point x="838" y="278"/>
      <point x="752" y="212"/>
      <point x="656" y="212" type="curve" smooth="yes"/>
      <point x="506" y="212"/>
      <point x="442" y="300"/>
      <point x="442" y="366" type="curve" smooth="yes"/>
      <point x="442" y="462"/>
      <point x="514" y="508"/>
      <point x="628" y="556" type="curve"/>
      <point x="508" y="694" type="line"/>
      <point x="208" y="618"/>
      <point x="104" y="478"/>
      <point x="104" y="336" type="curve" smooth="yes"/>
      <point x="104" y="130"/>
      <point x="318" y="-14"/>
    </contour>
  </outline>
</glyph>
<glyph name="eight.tosf" format="2">
  <advance width="1354"/>
  <outline>
    <contour>
      <point x="692" y="-16" type="curve" smooth="yes"/>
      <point x="1014" y="-16"/>
      <point x="1252" y="142"/>
      <point x="1248" y="416" type="curve" smooth="yes"/>
      <point x="1244" y="834"/>
      <point x="492" y="878"/>
      <point x="492" y="1168" type="curve" smooth="yes"/>
      <point x="492" y="1244"/>
      <point x="564" y="1310"/>
      <point x="680" y="1310" type="curve" smooth="yes"/>
      <point x="794" y="1310"/>
      <point x="864" y="1254"/>
      <point x="866" y="1164" type="curve" smooth="yes"/>
      <point x="868" y="1030"/>
      <point x="810" y="942"/>
      <point x="670" y="898" type="curve"/>
      <point x="792" y="758" type="line"/>
      <point x="1074" y="822"/>
      <point x="1182" y="1002"/>
      <point x="1182" y="1176" type="curve" smooth="yes"/>
      <point x="1182" y="1380"/>
      <point x="1006" y="1530"/>
      <point x="672" y="1530" type="curve" smooth="yes"/>
      <point x="340" y="1530"/>
      <point x="158" y="1354"/>
      <point x="158" y="1138" type="curve" smooth="yes"/>
      <point x="158" y="632"/>
      <point x="886" y="646"/>
      <point x="886" y="378" type="curve" smooth="yes"/>
      <point x="886" y="282"/>
      <point x="794" y="222"/>
      <point x="686" y="222" type="curve" smooth="yes"/>
      <point x="518" y="222"/>
      <point x="450" y="306"/>
      <point x="450" y="404" type="curve" smooth="yes"/>
      <point x="450" y="538"/>
      <point x="536" y="608"/>
      <point x="658" y="664" type="curve"/>
      <point x="534" y="814" type="line"/>
      <point x="226" y="724"/>
      <point x="112" y="560"/>
      <point x="112" y="388" type="curve" smooth="yes"/>
      <point x="112" y="142"/>
      <point x="328" y="-16"/>
    </contour>
  </outline>
</glyph>
<glyph name="exclamdown.case" format="2">
  <advance width="638"/>
  <outline>
    <contour>
      <point x="464" y="1162" type="line"/>
      <point x="158" y="1162" type="line"/>
      <point x="118" y="0" type="line"/>
      <point x="516" y="0" type="line"/>
    </contour>
    <contour>
      <point x="328" y="1760" type="curve" smooth="yes"/>
      <point x="204" y="1760"/>
      <point x="110" y="1654"/>
      <point x="110" y="1536" type="curve" smooth="yes"/>
      <point x="110" y="1420"/>
      <point x="188" y="1332"/>
      <point x="310" y="1332" type="curve" smooth="yes"/>
      <point x="434" y="1332"/>
      <point x="530" y="1436"/>
      <point x="528" y="1554" type="curve" smooth="yes"/>
      <point x="528" y="1670"/>
      <point x="446" y="1760"/>
    </contour>
  </outline>
</glyph>
